SplineFontDB: 3.2
FontName: linjatomolip-Regular
FullName: linjatomolip-Regular
FamilyName: linja pi tomo lipu
Weight: Book
Copyright: Created using Inkscape and Fontforge By Pascal Guimier (jan Talu) in 2019,\nAuthor of the original glyphs : Christophe Bouteiller (in 2015)\nCopyright (c) 2015 tomo-lipu.net / Christophe Bouteiller.\nThis Font Software is licensed under the SIL Open Font License, Version 1.1.\nInspired by tomo-lipu.net closed website.\nBased on the official toki pona book
Version: 0.7
ItalicAngle: 0
UnderlinePosition: -175
UnderlineWidth: 50
Ascent: 819
Descent: 205
InvalidEm: 0
sfntRevision: 0x0000b333
LayerCount: 2
Layer: 0 1 "Arri+AOgA-re" 1
Layer: 1 1 "Avant" 0
XUID: [1021 960 -234912623 6056881]
StyleMap: 0x0040
FSType: 8
OS2Version: 1
OS2_WeightWidthSlopeOnly: 0
OS2_UseTypoMetrics: 0
CreationTime: 1578149709
ModificationTime: 1653591251
PfmFamily: 81
TTFWeight: 400
TTFWidth: 5
LineGap: 92
VLineGap: 0
Panose: 0 0 0 0 0 0 0 0 0 0
OS2TypoAscent: 819
OS2TypoAOffset: 0
OS2TypoDescent: -205
OS2TypoDOffset: 0
OS2TypoLinegap: 92
OS2WinAscent: 1040
OS2WinAOffset: 0
OS2WinDescent: 185
OS2WinDOffset: 0
HheadAscent: 1040
HheadAOffset: 0
HheadDescent: -185
HheadDOffset: 0
OS2SubXSize: 665
OS2SubYSize: 716
OS2SubXOff: 0
OS2SubYOff: 143
OS2SupXSize: 665
OS2SupYSize: 716
OS2SupXOff: 0
OS2SupYOff: 491
OS2StrikeYSize: 51
OS2StrikeYPos: 265
OS2Vendor: 'PfEd'
OS2CodePages: 00000001.00000000
OS2UnicodeRanges: 8000002f.1000000a.00000000.00000000
Lookup: 4 0 1 "'liga' Standard Ligatures in Latin lookup 0" { "'liga' Standard Ligatures in Latin lookup 0 subtable"  } ['liga' ('latn' <'dflt' > ) ]
Lookup: 258 0 0 "'kern' Horizontal Kerning lookup 0" { "'kern' Horizontal Kerning lookup 0 subtable"  } ['kern' ('DFLT' <'dflt' > ) ]
MarkAttachClasses: 1
DEI: 91125
ShortTable: maxp 16
  1
  0
  315
  277
  11
  0
  0
  2
  0
  1
  1
  0
  64
  0
  0
  0
EndShort
LangName: 1033 "" "" "" "FontForge 2.0 : linjatomolip-Regular : 8-12-2021"
GaspTable: 1 65535 2 0

StartChar: aa
Encoding: 57344 57344 3
Width: 708
GlyphClass: 3
Flags: W
LayerCount: 2
Fore
SplineSet
170 840 m 2,0,1
 150 840 150 840 136 825.5 c 128,-1,2
 122 811 122 811 122 791 c 2,3,-1
 122 303 l 1,4,-1
 122 302 l 2,5,6
 122 282 122 282 136.5 268 c 128,-1,7
 151 254 151 254 171 254 c 128,-1,8
 191 254 191 254 205 268 c 128,-1,9
 219 282 219 282 219 302 c 2,10,-1
 219 303 l 1,11,-1
 219 791 l 2,12,13
 219 811 219 811 205 825.5 c 128,-1,14
 191 840 191 840 171 840 c 2,15,-1
 170 840 l 2,0,1
170 230 m 0,16,17
 158 230 158 230 146 224 c 1,18,19
 128 230 128 230 110 230 c 0,20,21
 65 230 65 230 32.5 197.5 c 128,-1,22
 0 165 0 165 0 120 c 128,-1,23
 0 75 0 75 32.5 42.5 c 128,-1,24
 65 10 65 10 110 10 c 0,25,26
 142 10 142 10 168.5 28 c 128,-1,27
 195 46 195 46 209 74 c 1,28,-1
 258 25 l 2,29,30
 273 10 273 10 293 10 c 128,-1,31
 313 10 313 10 327.5 24.5 c 128,-1,32
 342 39 342 39 342 59 c 128,-1,33
 342 79 342 79 327 94 c 2,34,-1
 205 216 l 2,35,36
 191 230 191 230 170 230 c 0,16,17
110 132 m 128,-1,38
 122 132 122 132 122 120 c 128,-1,39
 122 108 122 108 110 108 c 128,-1,40
 98 108 98 108 98 120 c 128,-1,37
 98 132 98 132 110 132 c 128,-1,38
EndSplineSet
Validated: 9
Ligature2: "'liga' Standard Ligatures in Latin lookup 0 subtable" a nonmarkingreturn
Ligature2: "'liga' Standard Ligatures in Latin lookup 0 subtable" a colon
Ligature2: "'liga' Standard Ligatures in Latin lookup 0 subtable" a comma
Ligature2: "'liga' Standard Ligatures in Latin lookup 0 subtable" a exclam
Ligature2: "'liga' Standard Ligatures in Latin lookup 0 subtable" a space
Ligature2: "'liga' Standard Ligatures in Latin lookup 0 subtable" a a
Ligature2: "'liga' Standard Ligatures in Latin lookup 0 subtable" a period
Ligature2: "'liga' Standard Ligatures in Latin lookup 0 subtable" a nbspace
EndChar

StartChar: akesi
Encoding: 57345 57345 4
Width: 850
GlyphClass: 3
Flags: W
LayerCount: 2
Fore
SplineSet
233 840 m 2,0,1
 232 840 232 840 232 840 c 2,2,3
 212 840 212 840 197.5 825.5 c 128,-1,4
 183 811 183 811 183 791 c 128,-1,5
 183 771 183 771 197.5 756.5 c 128,-1,6
 212 742 212 742 232 742 c 2,7,-1
 233 742 l 1,8,-1
 257 742 l 1,9,10
 257 742 257 742 258 742 c 0,11,12
 278 742 278 742 292.5 756.5 c 128,-1,13
 307 771 307 771 307 791 c 0,14,15
 307 799 307 799 304.5 806.5 c 128,-1,16
 302 814 302 814 297.5 820 c 128,-1,17
 293 826 293 826 287 830.5 c 128,-1,18
 281 835 281 835 273.5 837.5 c 128,-1,19
 266 840 266 840 258 840 c 2,20,-1
 257 840 l 1,21,-1
 233 840 l 2,0,1
574 840 m 2,22,23
 553 840 553 840 539 825.5 c 128,-1,24
 525 811 525 811 525 791 c 128,-1,25
 525 771 525 771 539 756.5 c 128,-1,26
 553 742 553 742 574 742 c 2,27,-1
 599 742 l 2,28,29
 620 742 620 742 634 756.5 c 128,-1,30
 648 771 648 771 648 791 c 0,31,32
 648 804 648 804 641.5 815.5 c 128,-1,33
 635 827 635 827 624 833.5 c 128,-1,34
 613 840 613 840 599 840 c 2,35,-1
 574 840 l 2,22,23
416 779 m 0,36,37
 345 779 345 779 295 728.5 c 128,-1,38
 245 678 245 678 245 608 c 2,39,-1
 245 596 l 1,40,-1
 50 596 l 2,41,42
 49 596 49 596 49 596 c 2,43,44
 43 596 43 596 37.5 594.5 c 128,-1,45
 32 593 32 593 27.5 590.5 c 128,-1,46
 23 588 23 588 18.5 585 c 128,-1,47
 14 582 14 582 10.5 577.5 c 128,-1,48
 7 573 7 573 5 568.5 c 128,-1,49
 3 564 3 564 1.5 558.5 c 128,-1,50
 0 553 0 553 0 547 c 0,51,52
 0 527 0 527 14.5 512.5 c 128,-1,53
 29 498 29 498 49 498 c 2,54,55
 49 498 49 498 50 498 c 2,56,-1
 245 498 l 1,57,-1
 245 413 l 1,58,-1
 50 413 l 2,59,60
 49 413 49 413 49 413 c 2,61,62
 17 413 17 413 4 384 c 0,63,64
 0 374 0 374 0 364 c 0,65,66
 0 344 0 344 14.5 329.5 c 128,-1,67
 29 315 29 315 49 315 c 2,68,69
 49 315 49 315 50 315 c 2,70,-1
 245 315 l 1,71,-1
 245 230 l 1,72,-1
 50 230 l 2,73,74
 49 230 49 230 49 230 c 2,75,76
 29 230 29 230 14.5 215.5 c 128,-1,77
 0 201 0 201 0 181 c 128,-1,78
 0 161 0 161 14.5 146.5 c 128,-1,79
 29 132 29 132 49 132 c 2,80,81
 49 132 49 132 50 132 c 2,82,-1
 252 132 l 1,83,84
 260 106 260 106 276 83.5 c 128,-1,85
 292 61 292 61 313 44.5 c 128,-1,86
 334 28 334 28 360.5 19 c 128,-1,87
 387 10 387 10 416 10 c 0,88,89
 473 10 473 10 518 44.5 c 128,-1,90
 563 79 563 79 579 132 c 1,91,-1
 782 132 l 1,92,93
 782 132 782 132 783 132 c 0,94,95
 803 132 803 132 817 146.5 c 128,-1,96
 831 161 831 161 831 181 c 128,-1,97
 831 201 831 201 817 215.5 c 128,-1,98
 803 230 803 230 783 230 c 0,99,100
 782 230 782 230 782 230 c 1,101,-1
 587 230 l 1,102,-1
 587 315 l 1,103,-1
 782 315 l 1,104,105
 782 315 782 315 783 315 c 0,106,107
 803 315 803 315 817 329.5 c 128,-1,108
 831 344 831 344 831 364 c 128,-1,109
 831 384 831 384 817 398.5 c 128,-1,110
 803 413 803 413 783 413 c 0,111,112
 782 413 782 413 782 413 c 1,113,-1
 587 413 l 1,114,-1
 587 498 l 1,115,-1
 782 498 l 1,116,117
 782 498 782 498 783 498 c 0,118,119
 796 498 796 498 807 504.5 c 128,-1,120
 818 511 818 511 824.5 522.5 c 128,-1,121
 831 534 831 534 831 547 c 128,-1,122
 831 560 831 560 824.5 571.5 c 128,-1,123
 818 583 818 583 807 589.5 c 128,-1,124
 796 596 796 596 783 596 c 0,125,126
 782 596 782 596 782 596 c 1,127,-1
 587 596 l 1,128,-1
 587 608 l 2,129,130
 587 654 587 654 564 693.5 c 128,-1,131
 541 733 541 733 501.5 756 c 128,-1,132
 462 779 462 779 416 779 c 0,36,37
416 681 m 0,133,134
 436 681 436 681 453 671.5 c 128,-1,135
 470 662 470 662 479.5 645 c 128,-1,136
 489 628 489 628 489 608 c 2,137,-1
 489 596 l 1,138,-1
 342 596 l 1,139,-1
 342 608 l 2,140,141
 342 623 342 623 348 636.5 c 128,-1,142
 354 650 354 650 363.5 660 c 128,-1,143
 373 670 373 670 387 675.5 c 128,-1,144
 401 681 401 681 416 681 c 0,133,134
342 498 m 1,145,-1
 489 498 l 1,146,-1
 489 413 l 1,147,-1
 342 413 l 1,148,-1
 342 498 l 1,145,-1
342 315 m 1,149,-1
 489 315 l 1,150,-1
 489 230 l 1,151,-1
 342 230 l 1,152,-1
 342 315 l 1,149,-1
361 132 m 1,153,-1
 471 132 l 2,154,155
 468 129 468 129 464.5 126 c 128,-1,156
 461 123 461 123 457.5 120.5 c 128,-1,157
 454 118 454 118 450 116 c 128,-1,158
 446 114 446 114 442 112.5 c 128,-1,159
 438 111 438 111 434 110 c 128,-1,160
 430 109 430 109 425 108.5 c 128,-1,161
 420 108 420 108 416 108 c 0,162,163
 408 108 408 108 400 109.5 c 128,-1,164
 392 111 392 111 385 114 c 128,-1,165
 378 117 378 117 372 121.5 c 128,-1,166
 366 126 366 126 361 132 c 1,153,-1
EndSplineSet
Validated: 9
Ligature2: "'liga' Standard Ligatures in Latin lookup 0 subtable" a k e s i
EndChar

StartChar: alasa
Encoding: 57346 57346 5
Width: 850
GlyphClass: 3
Flags: W
LayerCount: 2
Fore
SplineSet
172 840 m 0,0,1
 151 840 151 840 137 825.5 c 128,-1,2
 123 811 123 811 123 791 c 2,3,-1
 123 474 l 1,4,-1
 49 474 l 2,5,6
 17 474 17 474 4 445 c 0,7,8
 0 435 0 435 0 425 c 0,9,10
 0 412 0 412 6.5 400.5 c 128,-1,11
 13 389 13 389 24.5 382.5 c 128,-1,12
 36 376 36 376 49 376 c 2,13,-1
 123 376 l 1,14,-1
 123 59 l 2,15,16
 123 49 123 49 126.5 40 c 128,-1,17
 130 31 130 31 137 24.5 c 128,-1,18
 144 18 144 18 153 14 c 128,-1,19
 162 10 162 10 172 10 c 0,20,21
 254 10 254 10 330.5 41.5 c 128,-1,22
 407 73 407 73 465 132 c 0,23,24
 567 233 567 233 584 376 c 1,25,-1
 664 376 l 1,26,-1
 625 337 l 2,27,28
 610 323 610 323 610 302 c 0,29,30
 610 293 610 293 614 283.5 c 128,-1,31
 618 274 618 274 624.5 267.5 c 128,-1,32
 631 261 631 261 640 257.5 c 128,-1,33
 649 254 649 254 659 254 c 0,34,35
 680 254 680 254 694 268 c 2,36,-1
 812 386 l 2,37,38
 820 392 820 392 825.5 403.5 c 128,-1,39
 831 415 831 415 831 425 c 128,-1,40
 831 435 831 435 825.5 446.5 c 128,-1,41
 820 458 820 458 812 464 c 2,42,-1
 694 582 l 2,43,44
 693 583 693 583 691.5 584 c 128,-1,45
 690 585 690 585 688.5 586 c 128,-1,46
 687 587 687 587 685.5 588 c 128,-1,47
 684 589 684 589 682 590 c 128,-1,48
 680 591 680 591 678 592 c 128,-1,49
 676 593 676 593 674 593.5 c 128,-1,50
 672 594 672 594 670 594.5 c 128,-1,51
 668 595 668 595 666.5 595.5 c 128,-1,52
 665 596 665 596 663 596 c 128,-1,53
 661 596 661 596 659 596 c 0,54,55
 646 596 646 596 635 589.5 c 128,-1,56
 624 583 624 583 617 572 c 128,-1,57
 610 561 610 561 610 548 c 0,58,59
 610 543 610 543 611.5 538 c 128,-1,60
 613 533 613 533 615 528.5 c 128,-1,61
 617 524 617 524 619.5 519.5 c 128,-1,62
 622 515 622 515 625 513 c 2,63,-1
 664 474 l 1,64,-1
 584 474 l 1,65,66
 575 543 575 543 544.5 606 c 128,-1,67
 514 669 514 669 465 718 c 0,68,69
 407 777 407 777 330.5 808.5 c 128,-1,70
 254 840 254 840 172 840 c 0,0,1
220 739 m 1,71,72
 323 723 323 723 396 649 c 0,73,74
 420 626 420 626 438 597.5 c 128,-1,75
 456 569 456 569 468 538 c 128,-1,76
 480 507 480 507 485 474 c 1,77,-1
 220 474 l 1,78,-1
 220 739 l 1,71,72
220 376 m 1,79,-1
 485 376 l 1,80,81
 469 274 469 274 396 200.5 c 128,-1,82
 323 127 323 127 220 111 c 1,83,-1
 220 376 l 1,79,-1
EndSplineSet
Validated: 9
Ligature2: "'liga' Standard Ligatures in Latin lookup 0 subtable" a l a s a
EndChar

StartChar: ala
Encoding: 57347 57347 6
Width: 850
GlyphClass: 3
Flags: W
LayerCount: 2
Fore
SplineSet
49 840 m 0,0,1
 36 840 36 840 24.5 833.5 c 128,-1,2
 13 827 13 827 6.5 815.5 c 128,-1,3
 0 804 0 804 0 791 c 0,4,5
 1 771 1 771 15 756 c 2,6,-1
 346 425 l 1,7,-1
 15 94 l 2,8,9
 0 79 0 79 0 59 c 256,10,11
 0 39 0 39 14.5 24.5 c 128,-1,12
 29 10 29 10 49 10 c 256,13,14
 69 10 69 10 84 25 c 2,15,-1
 415 356 l 1,16,-1
 746 25 l 2,17,18
 761 10 761 10 781 10 c 256,19,20
 801 10 801 10 815.5 24.5 c 128,-1,21
 830 39 830 39 830 59 c 256,22,23
 830 79 830 79 815 94 c 2,24,-1
 484 425 l 1,25,-1
 815 756 l 2,26,27
 821 762 821 762 825.5 772.5 c 128,-1,28
 830 783 830 783 830 791 c 0,29,30
 830 797 830 797 828.5 802.5 c 128,-1,31
 827 808 827 808 825 812.5 c 128,-1,32
 823 817 823 817 819.5 821.5 c 128,-1,33
 816 826 816 826 811.5 829.5 c 128,-1,34
 807 833 807 833 802.5 835 c 128,-1,35
 798 837 798 837 792.5 838.5 c 128,-1,36
 787 840 787 840 781 840 c 0,37,38
 761 840 761 840 746 825 c 2,39,-1
 415 494 l 1,40,-1
 84 825 l 2,41,42
 69 840 69 840 49 840 c 0,0,1
EndSplineSet
Validated: 9
Ligature2: "'liga' Standard Ligatures in Latin lookup 0 subtable" a l a
EndChar

StartChar: ale
Encoding: 57348 57348 7
Width: 850
GlyphClass: 3
Flags: W
LayerCount: 2
Fore
SplineSet
170 600 m 0,0,1
 229 598 229 598 285 553 c 0,2,3
 347 505 347 505 415 399 c 1,4,5
 483 505 483 505 545 553 c 0,6,7
 573 576 573 576 603 588 c 128,-1,8
 633 600 633 600 662 600 c 0,9,10
 687 600 687 600 709 590 c 0,11,12
 774 561 774 561 804 471 c 0,13,14
 830 399 830 399 830 305 c 0,15,16
 830 212 830 212 804 138 c 0,17,18
 774 48 774 48 709 20 c 0,19,20
 698 15 698 15 686 12.5 c 128,-1,21
 674 10 674 10 661 10 c 0,22,23
 633 10 633 10 603 22 c 128,-1,24
 573 34 573 34 545 57 c 0,25,26
 483 105 483 105 415 211 c 1,27,28
 347 105 347 105 285 57 c 0,29,30
 227 10 227 10 169 10 c 0,31,32
 143 10 143 10 121 20 c 0,33,34
 56 48 56 48 26 138 c 0,35,36
 0 212 0 212 0 305 c 0,37,38
 0 399 0 399 26 471 c 0,39,40
 56 561 56 561 121 590 c 0,41,42
 142 600 142 600 170 600 c 0,0,1
175 503 m 0,43,44
 168 504 168 504 160 500 c 0,45,46
 136 489 136 489 118 439 c 0,47,48
 98 382 98 382 98 305 c 0,49,50
 98 226 98 226 118 171 c 0,51,52
 137 120 137 120 160 109 c 0,53,54
 166 106 166 106 173 106 c 0,55,56
 192 106 192 106 224 133 c 0,57,58
 282 178 282 178 358 305 c 1,59,60
 284 429 284 429 224 477 c 0,61,62
 195 501 195 501 175 503 c 0,43,44
655 503 m 0,63,64
 635 501 635 501 606 477 c 0,65,66
 546 429 546 429 472 305 c 1,67,68
 548 178 548 178 606 133 c 0,69,70
 638 106 638 106 657 106 c 0,71,72
 664 106 664 106 670 109 c 0,73,74
 693 120 693 120 712 171 c 0,75,76
 732 226 732 226 732 305 c 0,77,78
 732 382 732 382 712 439 c 0,79,80
 694 489 694 489 670 500 c 0,81,82
 662 504 662 504 655 503 c 0,63,64
EndSplineSet
Validated: 1
Ligature2: "'liga' Standard Ligatures in Latin lookup 0 subtable" a l i
Ligature2: "'liga' Standard Ligatures in Latin lookup 0 subtable" a l e
EndChar

StartChar: anpa
Encoding: 57349 57349 8
Width: 850
GlyphClass: 3
Flags: W
LayerCount: 2
Fore
SplineSet
48 841 m 0,0,1
 17 840 17 840 4 812 c 0,2,3
 0 802 0 802 0 792 c 2,4,5
 0 792 0 792 0 791 c 2,6,-1
 0 303 l 2,7,8
 0 283 0 283 14.5 268.5 c 128,-1,9
 29 254 29 254 49 254 c 2,10,-1
 781 254 l 2,11,12
 794 254 794 254 805.5 260.5 c 128,-1,13
 817 267 817 267 823.5 278.5 c 128,-1,14
 830 290 830 290 830 303 c 2,15,-1
 830 791 l 2,16,17
 830 792 830 792 830 792 c 2,18,19
 830 812 830 812 815.5 826.5 c 128,-1,20
 801 841 801 841 781 841 c 0,21,22
 771 841 771 841 762 837 c 128,-1,23
 753 833 753 833 746.5 826.5 c 128,-1,24
 740 820 740 820 736 811 c 128,-1,25
 732 802 732 802 732 792 c 0,26,27
 732 791 732 791 732 791 c 1,28,-1
 732 352 l 1,29,-1
 98 352 l 1,30,-1
 98 791 l 1,31,-1
 98 792 l 2,32,33
 98 812 98 812 83.5 826.5 c 128,-1,34
 69 841 69 841 49 841 c 2,35,36
 49 841 49 841 48 841 c 0,0,1
415 230 m 0,37,38
 370 230 370 230 337.5 197.5 c 128,-1,39
 305 165 305 165 305 120 c 128,-1,40
 305 75 305 75 337.5 42.5 c 128,-1,41
 370 10 370 10 415 10 c 128,-1,42
 460 10 460 10 492.5 42.5 c 128,-1,43
 525 75 525 75 525 120 c 0,44,45
 525 149 525 149 510 174.5 c 128,-1,46
 495 200 495 200 470 215 c 128,-1,47
 445 230 445 230 415 230 c 0,37,38
415 132 m 128,-1,49
 427 132 427 132 427 120 c 0,50,51
 427 117 427 117 426 115 c 128,-1,52
 425 113 425 113 423.5 111 c 128,-1,53
 422 109 422 109 420 108.5 c 128,-1,54
 418 108 418 108 415 108 c 0,55,56
 403 108 403 108 403 120 c 128,-1,48
 403 132 403 132 415 132 c 128,-1,49
EndSplineSet
Validated: 9
Ligature2: "'liga' Standard Ligatures in Latin lookup 0 subtable" a n p a
EndChar

StartChar: ante
Encoding: 57350 57350 9
Width: 850
GlyphClass: 3
Flags: W
LayerCount: 2
Fore
SplineSet
49 840 m 0,0,1
 29 840 29 840 14.5 825.5 c 128,-1,2
 0 811 0 811 0 791 c 0,3,4
 2 765 2 765 22 750 c 2,5,-1
 388 506 l 2,6,7
 400 498 400 498 415 498 c 0,8,9
 421 498 421 498 429 500.5 c 128,-1,10
 437 503 437 503 442 506 c 2,11,-1
 808 750 l 2,12,13
 814 754 814 754 819 761 c 128,-1,14
 824 768 824 768 827 776 c 128,-1,15
 830 784 830 784 830 791 c 0,16,17
 830 811 830 811 816 825.5 c 128,-1,18
 802 840 802 840 782 840 c 0,19,20
 766 840 766 840 754 831 c 2,21,-1
 415 606 l 1,22,-1
 76 831 l 2,23,24
 71 835 71 835 63 837.5 c 128,-1,25
 55 840 55 840 49 840 c 0,0,1
415 352 m 0,26,27
 409 352 409 352 401 349.5 c 128,-1,28
 393 347 393 347 388 344 c 2,29,-1
 22 100 l 2,30,31
 16 96 16 96 11 89 c 128,-1,32
 6 82 6 82 3 74 c 128,-1,33
 0 66 0 66 0 59 c 0,34,35
 0 39 0 39 14.5 24.5 c 128,-1,36
 29 10 29 10 49 10 c 0,37,38
 64 10 64 10 76 19 c 2,39,-1
 415 244 l 1,40,-1
 754 19 l 2,41,42
 759 15 759 15 767 12.5 c 128,-1,43
 775 10 775 10 782 10 c 0,44,45
 802 10 802 10 816 24.5 c 128,-1,46
 830 39 830 39 830 59 c 0,47,48
 830 66 830 66 827 74 c 128,-1,49
 824 82 824 82 819 89 c 128,-1,50
 814 96 814 96 808 100 c 2,51,-1
 442 344 l 2,52,53
 430 352 430 352 415 352 c 0,26,27
EndSplineSet
Validated: 9
Ligature2: "'liga' Standard Ligatures in Latin lookup 0 subtable" a n t e
EndChar

StartChar: anu
Encoding: 57351 57351 10
Width: 850
GlyphClass: 3
Flags: W
LayerCount: 2
Fore
SplineSet
49 840 m 256,0,1
 29 840 29 840 14.5 825.5 c 128,-1,2
 0 811 0 811 0 791 c 0,3,4
 0 783 0 783 4.5 772.5 c 128,-1,5
 9 762 9 762 15 756 c 2,6,-1
 366 405 l 1,7,-1
 366 59 l 2,8,9
 366 39 366 39 380.5 24.5 c 128,-1,10
 395 10 395 10 415 10 c 128,-1,11
 435 10 435 10 449.5 24.5 c 128,-1,12
 464 39 464 39 464 59 c 2,13,-1
 464 405 l 1,14,-1
 815 756 l 2,15,16
 821 762 821 762 825.5 772.5 c 128,-1,17
 830 783 830 783 830 791 c 0,18,19
 830 804 830 804 823.5 815.5 c 128,-1,20
 817 827 817 827 805.5 833.5 c 128,-1,21
 794 840 794 840 781 840 c 0,22,23
 760 840 760 840 746 825 c 2,24,-1
 415 494 l 1,25,-1
 84 825 l 2,26,27
 69 840 69 840 49 840 c 256,0,1
EndSplineSet
Validated: 9
Ligature2: "'liga' Standard Ligatures in Latin lookup 0 subtable" a n u
EndChar

StartChar: apeja
Encoding: 57352 57352 11
Width: 850
GlyphClass: 3
Flags: W
LayerCount: 2
Fore
SplineSet
419 350 m 0,0,1
 490 350 490 350 541 300 c 128,-1,2
 592 250 592 250 594 179 c 0,3,4
 594 177 594 177 594 175 c 1,5,-1
 594 175 l 1,6,7
 594 173 594 173 594 171 c 0,8,9
 592 100 592 100 541 50 c 128,-1,10
 490 0 490 0 419 0 c 0,11,12
 347 0 347 0 295.5 51.5 c 128,-1,13
 244 103 244 103 244 175 c 128,-1,14
 244 247 244 247 295.5 298.5 c 128,-1,15
 347 350 347 350 419 350 c 0,0,1
419 272 m 0,16,17
 378 272 378 272 350 244 c 128,-1,18
 322 216 322 216 322 175 c 0,19,20
 322 155 322 155 329.5 137 c 128,-1,21
 337 119 337 119 350 106 c 128,-1,22
 363 93 363 93 381 85.5 c 128,-1,23
 399 78 399 78 419 78 c 0,24,25
 460 78 460 78 488 106.5 c 128,-1,26
 516 135 516 135 516 175 c 0,27,28
 516 195 516 195 508.5 213 c 128,-1,29
 501 231 501 231 488 244 c 128,-1,30
 475 257 475 257 457 264.5 c 128,-1,31
 439 272 439 272 419 272 c 0,16,17
184 828 m 0,32,33
 231 828 231 828 271 805 c 128,-1,34
 311 782 311 782 334.5 742.5 c 128,-1,35
 358 703 358 703 359 657 c 0,36,37
 359 655 359 655 359 653 c 128,-1,38
 359 651 359 651 359 649 c 0,39,40
 358 578 358 578 306.5 528 c 128,-1,41
 255 478 255 478 184 478 c 0,42,43
 112 478 112 478 60.5 529 c 128,-1,44
 9 580 9 580 9 652.5 c 128,-1,45
 9 725 9 725 60.5 776.5 c 128,-1,46
 112 828 112 828 184 828 c 0,32,33
184.5 750 m 128,-1,48
 144 750 144 750 115.5 721.5 c 128,-1,49
 87 693 87 693 87 652.5 c 128,-1,50
 87 612 87 612 115.5 584 c 128,-1,51
 144 556 144 556 184.5 556 c 128,-1,52
 225 556 225 556 253 584 c 128,-1,53
 281 612 281 612 281 652.5 c 128,-1,54
 281 693 281 693 253 721.5 c 128,-1,47
 225 750 225 750 184.5 750 c 128,-1,48
783 155 m 0,55,56
 766 155 766 155 753 165 c 2,57,-1
 416 425 l 1,58,-1
 77 165 l 2,59,60
 64 155 64 155 47 155 c 0,61,62
 37 155 37 155 25.5 161 c 128,-1,63
 14 167 14 167 7 175 c 0,64,65
 -3 188 -3 188 -3 205 c 0,66,67
 -3 215 -3 215 2.5 227 c 128,-1,68
 8 239 8 239 17 245 c 2,69,-1
 386 527 l 2,70,71
 399 538 399 538 416 538 c 128,-1,72
 433 538 433 538 447 527 c 2,73,-1
 814 244 l 2,74,75
 819 240 819 240 823.5 233.5 c 128,-1,76
 828 227 828 227 830.5 219 c 128,-1,77
 833 211 833 211 833 205 c 0,78,79
 833 188 833 188 823 174 c 0,80,81
 817 166 817 166 805 160.5 c 128,-1,82
 793 155 793 155 783 155 c 0,55,56
649 828 m 0,83,84
 720 828 720 828 771.5 777.5 c 128,-1,85
 823 727 823 727 824 657 c 0,86,87
 824 655 824 655 824 653 c 128,-1,88
 824 651 824 651 824 649 c 0,89,90
 823 578 823 578 771.5 528 c 128,-1,91
 720 478 720 478 649 478 c 0,92,93
 577 478 577 478 525.5 529 c 128,-1,94
 474 580 474 580 474 652.5 c 128,-1,95
 474 725 474 725 525.5 776.5 c 128,-1,96
 577 828 577 828 649 828 c 0,83,84
649.5 750 m 128,-1,98
 609 750 609 750 580.5 721.5 c 128,-1,99
 552 693 552 693 552 653 c 0,100,101
 552 626 552 626 565 603.5 c 128,-1,102
 578 581 578 581 600.5 568.5 c 128,-1,103
 623 556 623 556 649 556 c 0,104,105
 690 556 690 556 718.5 584 c 128,-1,106
 747 612 747 612 747 652.5 c 128,-1,107
 747 693 747 693 718.5 721.5 c 128,-1,97
 690 750 690 750 649.5 750 c 128,-1,98
EndSplineSet
Validated: 1
Ligature2: "'liga' Standard Ligatures in Latin lookup 0 subtable" a p e j a
EndChar

StartChar: awen
Encoding: 57353 57353 12
Width: 850
GlyphClass: 3
Flags: W
LayerCount: 2
Fore
SplineSet
417 840 m 0,0,1
 416 840 416 840 416 840 c 2,2,3
 405 840 405 840 395 835 c 128,-1,4
 385 830 385 830 378 821.5 c 128,-1,5
 371 813 371 813 368 803 c 2,6,-1
 195 108 l 1,7,-1
 50 108 l 2,8,9
 49 108 49 108 49 108 c 2,10,11
 29 108 29 108 14.5 93.5 c 128,-1,12
 0 79 0 79 0 59 c 0,13,14
 0 46 0 46 6.5 34.5 c 128,-1,15
 13 23 13 23 24.5 16.5 c 128,-1,16
 36 10 36 10 49 10 c 2,17,18
 49 10 49 10 50 10 c 2,19,-1
 233 10 l 2,20,21
 248 10 248 10 262 21 c 128,-1,22
 276 32 276 32 280 47 c 2,23,-1
 416 590 l 1,24,-1
 551 47 l 2,25,26
 555 32 555 32 569 21 c 128,-1,27
 583 10 583 10 599 10 c 2,28,-1
 782 10 l 1,29,30
 782 10 782 10 783 10 c 0,31,32
 803 10 803 10 817 24.5 c 128,-1,33
 831 39 831 39 831 59 c 0,34,35
 831 69 831 69 827.5 78 c 128,-1,36
 824 87 824 87 817.5 93.5 c 128,-1,37
 811 100 811 100 802 104 c 128,-1,38
 793 108 793 108 783 108 c 0,39,40
 782 108 782 108 782 108 c 1,41,-1
 637 108 l 1,42,-1
 463 803 l 2,43,44
 459 818 459 818 445.5 829 c 128,-1,45
 432 840 432 840 417 840 c 0,0,1
EndSplineSet
Validated: 9
Ligature2: "'liga' Standard Ligatures in Latin lookup 0 subtable" a w e n
EndChar

StartChar: ee
Encoding: 57354 57354 13
Width: 850
GlyphClass: 3
Flags: W
LayerCount: 2
Fore
SplineSet
49 840 m 0,0,1
 39 840 39 840 30 836 c 128,-1,2
 21 832 21 832 14.5 825.5 c 128,-1,3
 8 819 8 819 4 810 c 128,-1,4
 0 801 0 801 0 791 c 0,5,6
 0 771 0 771 15 756 c 2,7,-1
 346 425 l 1,8,-1
 15 94 l 2,9,10
 14 93 14 93 12.5 91.5 c 128,-1,11
 11 90 11 90 10 88.5 c 128,-1,12
 9 87 9 87 8 85 c 128,-1,13
 7 83 7 83 6 81 c 128,-1,14
 5 79 5 79 4.5 77.5 c 128,-1,15
 4 76 4 76 3 74 c 128,-1,16
 2 72 2 72 1.5 70 c 128,-1,17
 1 68 1 68 0.5 66 c 128,-1,18
 0 64 0 64 0 62 c 128,-1,19
 0 60 0 60 0 59 c 0,20,21
 0 39 0 39 14.5 24.5 c 128,-1,22
 29 10 29 10 49 10 c 256,23,24
 69 10 69 10 84 25 c 2,25,-1
 449 391 l 2,26,27
 453 394 453 394 456.5 400 c 128,-1,28
 460 406 460 406 462 413 c 128,-1,29
 464 420 464 420 464 425 c 0,30,31
 464 445 464 445 449 459 c 2,32,-1
 84 825 l 2,33,34
 69 840 69 840 49 840 c 0,0,1
414 840 m 2,35,36
 407 840 407 840 399.5 837.5 c 128,-1,37
 392 835 392 835 386 830.5 c 128,-1,38
 380 826 380 826 375.5 820 c 128,-1,39
 371 814 371 814 368.5 806.5 c 128,-1,40
 366 799 366 799 366 791 c 0,41,42
 366 771 366 771 381 756 c 2,43,-1
 712 425 l 1,44,-1
 381 94 l 2,45,46
 374 88 374 88 370 77.5 c 128,-1,47
 366 67 366 67 366 59 c 0,48,49
 366 27 366 27 394 14 c 0,50,51
 405 10 405 10 415 10 c 0,52,53
 435 10 435 10 449 25 c 2,54,-1
 815 391 l 2,55,56
 830 405 830 405 830 425 c 128,-1,57
 830 445 830 445 815 459 c 2,58,-1
 449 825 l 2,59,60
 435 840 435 840 415 840 c 2,61,-1
 414 840 l 2,35,36
EndSplineSet
Validated: 9
Ligature2: "'liga' Standard Ligatures in Latin lookup 0 subtable" e space
Ligature2: "'liga' Standard Ligatures in Latin lookup 0 subtable" e e
Ligature2: "'liga' Standard Ligatures in Latin lookup 0 subtable" e comma
Ligature2: "'liga' Standard Ligatures in Latin lookup 0 subtable" e period
Ligature2: "'liga' Standard Ligatures in Latin lookup 0 subtable" e colon
Ligature2: "'liga' Standard Ligatures in Latin lookup 0 subtable" e nonmarkingreturn
Ligature2: "'liga' Standard Ligatures in Latin lookup 0 subtable" e nbspace
EndChar

StartChar: en
Encoding: 57355 57355 14
Width: 850
GlyphClass: 3
Flags: W
LayerCount: 2
Fore
SplineSet
414 840 m 2,0,1
 404 840 404 840 395.5 836 c 128,-1,2
 387 832 387 832 380.5 825.5 c 128,-1,3
 374 819 374 819 370 810 c 128,-1,4
 366 801 366 801 366 791 c 1,5,6
 366 791 366 791 366 791 c 1,7,-1
 366 474 l 1,8,-1
 49 474 l 1,9,10
 49 474 49 474 49 474 c 1,11,12
 17 474 17 474 4 445 c 0,13,14
 0 435 0 435 0 425 c 0,15,16
 0 405 0 405 14.5 390.5 c 128,-1,17
 29 376 29 376 49 376 c 2,18,-1
 366 376 l 1,19,-1
 366 59 l 1,20,21
 366 59 366 59 366 59 c 1,22,23
 366 52 366 52 368 45.5 c 128,-1,24
 370 39 370 39 373 34 c 128,-1,25
 376 29 376 29 380.5 24.5 c 128,-1,26
 385 20 385 20 390.5 17 c 128,-1,27
 396 14 396 14 402 12 c 128,-1,28
 408 10 408 10 415 10 c 0,29,30
 435 10 435 10 449.5 24.5 c 128,-1,31
 464 39 464 39 464 59 c 2,32,-1
 464 376 l 1,33,-1
 781 376 l 2,34,35
 801 376 801 376 815.5 390.5 c 128,-1,36
 830 405 830 405 830 425 c 0,37,38
 830 435 830 435 826 444 c 128,-1,39
 822 453 822 453 815.5 459.5 c 128,-1,40
 809 466 809 466 800 470 c 128,-1,41
 791 474 791 474 781 474 c 2,42,-1
 464 474 l 1,43,-1
 464 791 l 2,44,45
 464 799 464 799 461.5 806.5 c 128,-1,46
 459 814 459 814 454.5 820 c 128,-1,47
 450 826 450 826 444 830.5 c 128,-1,48
 438 835 438 835 430.5 837.5 c 128,-1,49
 423 840 423 840 415 840 c 0,50,51
 414 840 414 840 414 840 c 2,0,1
EndSplineSet
Validated: 5
Ligature2: "'liga' Standard Ligatures in Latin lookup 0 subtable" e n
EndChar

StartChar: epiku
Encoding: 57356 57356 15
Width: 850
GlyphClass: 3
Flags: W
LayerCount: 2
Fore
SplineSet
424 -21 m 0,0,1
 413 -21 413 -21 399.5 -15.5 c 128,-1,2
 386 -10 386 -10 378 -5 c 2,3,-1
 370 0 l 1,4,-1
 370 768 l 1,5,-1
 421 794 l 1,6,-1
 472 768 l 1,7,-1
 472 0 l 1,8,9
 444 -21 444 -21 424 -21 c 0,0,1
11 499 m 0,10,11
 6 507 6 507 5.5 521 c 128,-1,12
 5 535 5 535 6 545 c 2,13,-1
 8 555 l 1,14,15
 235 723 235 723 392 811 c 0,16,17
 399 815 399 815 410 810.5 c 128,-1,18
 421 806 421 806 429 799 c 2,19,-1
 436 793 l 1,20,-1
 449 725 l 1,21,-1
 65 469 l 1,22,23
 25 479 25 479 11 499 c 0,10,11
830 501 m 0,24,25
 824 492 824 492 810.5 484 c 128,-1,26
 797 476 797 476 787 473 c 2,27,-1
 776 469 l 1,28,-1
 392 725 l 1,29,30
 390 732 390 732 387.5 742.5 c 128,-1,31
 385 753 385 753 384.5 775.5 c 128,-1,32
 384 798 384 798 392 811 c 0,33,34
 408 834 408 834 449 811 c 0,35,36
 493 785 493 785 548.5 749.5 c 128,-1,37
 604 714 604 714 652 681 c 128,-1,38
 700 648 700 648 742 619 c 128,-1,39
 784 590 784 590 809 572 c 2,40,-1
 833 555 l 1,41,42
 842 518 842 518 830 501 c 0,24,25
EndSplineSet
Validated: 37
Ligature2: "'liga' Standard Ligatures in Latin lookup 0 subtable" e p i k u
EndChar

StartChar: esun
Encoding: 57357 57357 16
Width: 850
GlyphClass: 3
Flags: W
LayerCount: 2
Fore
SplineSet
596 840 m 0,0,1
 505 840 505 840 440 796 c 0,2,3
 406 773 406 773 386 739.5 c 128,-1,4
 366 706 366 706 366 668 c 2,5,-1
 366 669 l 1,6,-1
 366 598 l 1,7,8
 260 605 260 605 183 629 c 0,9,10
 137 644 137 644 112 662 c 0,11,12
 104 667 104 667 97 676 c 1,13,14
 96 687 96 687 89 697 c 128,-1,15
 82 707 82 707 71.5 713 c 128,-1,16
 61 719 61 719 49 719 c 0,17,18
 29 719 29 719 14.5 704.5 c 128,-1,19
 0 690 0 690 0 670 c 0,20,21
 0 666 0 666 1 662 c 0,22,23
 7 617 7 617 55 583 c 0,24,25
 92 556 92 556 154 536 c 0,26,27
 245 507 245 507 366 500 c 1,28,-1
 366 352 l 1,29,30
 226 348 226 348 128 313 c 0,31,32
 109 307 109 307 93.5 299.5 c 128,-1,33
 78 292 78 292 63.5 283 c 128,-1,34
 49 274 49 274 38 264 c 0,35,36
 19 247 19 247 8.5 224 c 128,-1,37
 -2 201 -2 201 0 177 c 0,38,39
 4 103 4 103 78 54 c 0,40,41
 144 10 144 10 235 10 c 256,42,43
 326 10 326 10 391 54 c 0,44,45
 424 77 424 77 444.5 110.5 c 128,-1,46
 465 144 465 144 464 182 c 2,47,-1
 464 181 l 1,48,-1
 464 252 l 1,49,50
 570 245 570 245 647 221 c 0,51,52
 694 206 694 206 718 188 c 0,53,54
 726 183 726 183 733 174 c 1,55,56
 735 156 735 156 749.5 143.5 c 128,-1,57
 764 131 764 131 781 131 c 0,58,59
 802 131 802 131 816 145.5 c 128,-1,60
 830 160 830 160 830 180 c 0,61,62
 830 184 830 184 830 188 c 0,63,64
 826 212 826 212 812 231.5 c 128,-1,65
 798 251 798 251 776 267 c 0,66,67
 738 294 738 294 677 314 c 0,68,69
 654 321 654 321 628.5 327 c 128,-1,70
 603 333 603 333 576.5 337.5 c 128,-1,71
 550 342 550 342 521.5 345 c 128,-1,72
 493 348 493 348 464 350 c 1,73,-1
 464 498 l 1,74,75
 605 502 605 502 702 537 c 0,76,77
 721 543 721 543 737 550.5 c 128,-1,78
 753 558 753 558 767 567 c 128,-1,79
 781 576 781 576 793 586 c 0,80,81
 835 624 835 624 830 673 c 0,82,83
 827 747 827 747 753 796 c 0,84,85
 686 840 686 840 596 840 c 0,0,1
596 742 m 256,86,87
 657 742 657 742 699 715 c 0,88,89
 708 709 708 709 714.5 702.5 c 128,-1,90
 721 696 721 696 725 690.5 c 128,-1,91
 729 685 729 685 730.5 679 c 128,-1,92
 732 673 732 673 733 668 c 0,93,94
 733 667 733 667 733 666 c 128,-1,95
 733 665 733 665 733 664 c 0,96,97
 730 661 730 661 727 658 c 0,98,99
 710 643 710 643 670 629 c 0,100,101
 588 600 588 600 464 596 c 1,102,-1
 464 669 l 2,103,104
 464 670 464 670 464 670 c 2,105,106
 464 681 464 681 471 692.5 c 128,-1,107
 478 704 478 704 494 715 c 0,108,109
 535 742 535 742 596 742 c 256,86,87
366 254 m 1,110,-1
 366 181 l 2,111,112
 366 180 366 180 366 180 c 2,113,114
 367 169 367 169 359.5 157.5 c 128,-1,115
 352 146 352 146 336 135 c 0,116,117
 324 127 324 127 309 121 c 128,-1,118
 294 115 294 115 274.5 111.5 c 128,-1,119
 255 108 255 108 235 108 c 0,120,121
 174 108 174 108 131 135 c 0,122,123
 98 157 98 157 98 182 c 2,124,-1
 98 186 l 2,125,126
 100 189 100 189 103 192 c 0,127,128
 111 198 111 198 125.5 206 c 128,-1,129
 140 214 140 214 160 221 c 0,130,131
 186 230 186 230 218.5 237 c 128,-1,132
 251 244 251 244 288.5 248.5 c 128,-1,133
 326 253 326 253 366 254 c 1,110,-1
EndSplineSet
Validated: 37
Ligature2: "'liga' Standard Ligatures in Latin lookup 0 subtable" e s u n
EndChar

StartChar: ijo
Encoding: 57358 57358 17
Width: 850
GlyphClass: 3
Flags: W
LayerCount: 2
Fore
SplineSet
415 840 m 128,-1,1
 360 840 360 840 307.5 826 c 128,-1,2
 255 812 255 812 207.5 784.5 c 128,-1,3
 160 757 160 757 122 718 c 0,4,5
 63 660 63 660 31.5 584 c 128,-1,6
 0 508 0 508 0 425 c 128,-1,7
 0 342 0 342 31.5 266 c 128,-1,8
 63 190 63 190 121.5 131.5 c 128,-1,9
 180 73 180 73 256 41.5 c 128,-1,10
 332 10 332 10 415 10 c 128,-1,11
 498 10 498 10 574 41.5 c 128,-1,12
 650 73 650 73 708.5 131.5 c 128,-1,13
 767 190 767 190 798.5 266 c 128,-1,14
 830 342 830 342 830 425 c 0,15,16
 830 480 830 480 816 532.5 c 128,-1,17
 802 585 802 585 774.5 632.5 c 128,-1,18
 747 680 747 680 708.5 718.5 c 128,-1,19
 670 757 670 757 622.5 784.5 c 128,-1,20
 575 812 575 812 522.5 826 c 128,-1,0
 470 840 470 840 415 840 c 128,-1,1
415 742 m 128,-1,22
 446 742 446 742 477 736 c 128,-1,23
 508 730 508 730 536.5 718 c 128,-1,24
 565 706 565 706 591 689 c 128,-1,25
 617 672 617 672 639 649 c 0,26,27
 684 605 684 605 708 546.5 c 128,-1,28
 732 488 732 488 732 425 c 128,-1,29
 732 362 732 362 708 303.5 c 128,-1,30
 684 245 684 245 639.5 200.5 c 128,-1,31
 595 156 595 156 536.5 132 c 128,-1,32
 478 108 478 108 415 108 c 128,-1,33
 352 108 352 108 293.5 132 c 128,-1,34
 235 156 235 156 190.5 200.5 c 128,-1,35
 146 245 146 245 122 303.5 c 128,-1,36
 98 362 98 362 98 425 c 0,37,38
 98 467 98 467 108.5 507.5 c 128,-1,39
 119 548 119 548 140 584 c 128,-1,40
 161 620 161 620 191 649 c 0,41,42
 213 672 213 672 239 689 c 128,-1,43
 265 706 265 706 293.5 718 c 128,-1,44
 322 730 322 730 353 736 c 128,-1,21
 384 742 384 742 415 742 c 128,-1,22
EndSplineSet
Validated: 9
Ligature2: "'liga' Standard Ligatures in Latin lookup 0 subtable" i j o
EndChar

StartChar: ike
Encoding: 57359 57359 18
Width: 850
GlyphClass: 3
Flags: W
LayerCount: 2
Fore
SplineSet
415 475 m 128,-1,1
 332 475 332 475 256 443 c 128,-1,2
 180 411 180 411 122 353 c 0,3,4
 11 243 11 243 1 88 c 0,5,6
 0 73 0 73 0 60 c 0,7,8
 0 59 0 59 0 59 c 2,9,10
 0 49 0 49 4 40 c 128,-1,11
 8 31 8 31 14.5 24.5 c 128,-1,12
 21 18 21 18 30 14 c 128,-1,13
 39 10 39 10 49 10 c 0,14,15
 69 10 69 10 83.5 24.5 c 128,-1,16
 98 39 98 39 98 59 c 2,17,18
 98 59 98 59 98 60 c 0,19,20
 98 123 98 123 122 181 c 128,-1,21
 146 239 146 239 190.5 284 c 128,-1,22
 235 329 235 329 293.5 353 c 128,-1,23
 352 377 352 377 415 377 c 0,24,25
 457 377 457 377 497 366 c 128,-1,26
 537 355 537 355 573.5 334.5 c 128,-1,27
 610 314 610 314 639 284 c 0,28,29
 684 239 684 239 708 181 c 128,-1,30
 732 123 732 123 732 60 c 2,31,-1
 732 59 l 2,32,33
 732 39 732 39 746.5 24.5 c 128,-1,34
 761 10 761 10 781 10 c 128,-1,35
 801 10 801 10 815.5 24.5 c 128,-1,36
 830 39 830 39 830 59 c 2,37,-1
 830 60 l 2,38,39
 830 80 830 80 828 100.5 c 128,-1,40
 826 121 826 121 822 141 c 128,-1,41
 818 161 818 161 812 180.5 c 128,-1,42
 806 200 806 200 798.5 218.5 c 128,-1,43
 791 237 791 237 781.5 255 c 128,-1,44
 772 273 772 273 760.5 290 c 128,-1,45
 749 307 749 307 736 322.5 c 128,-1,46
 723 338 723 338 708 353 c 0,47,48
 650 411 650 411 574 443 c 128,-1,0
 498 475 498 475 415 475 c 128,-1,1
EndSplineSet
Validated: 9
Ligature2: "'liga' Standard Ligatures in Latin lookup 0 subtable" i k e
EndChar

StartChar: ilo
Encoding: 57360 57360 19
Width: 850
GlyphClass: 3
Flags: W
LayerCount: 2
Fore
SplineSet
414 840 m 0,0,1
 410 840 410 840 406 839 c 2,2,-1
 49 839 l 2,3,4
 29 839 29 839 14.5 825 c 128,-1,5
 0 811 0 811 0 791 c 2,6,-1
 0 425 l 2,7,8
 0 405 0 405 14.5 390.5 c 128,-1,9
 29 376 29 376 49 376 c 2,10,-1
 366 376 l 1,11,-1
 366 59 l 2,12,13
 366 39 366 39 380 24.5 c 128,-1,14
 394 10 394 10 414.5 10 c 128,-1,15
 435 10 435 10 449 24.5 c 128,-1,16
 463 39 463 39 463 59 c 1,17,18
 463 59 463 59 463 59 c 1,19,-1
 463 376 l 1,20,-1
 780 376 l 2,21,22
 800 376 800 376 814.5 390.5 c 128,-1,23
 829 405 829 405 829 425 c 2,24,-1
 829 791 l 2,25,26
 829 811 829 811 814.5 825 c 128,-1,27
 800 839 800 839 780 839 c 2,28,-1
 422 839 l 2,29,30
 421 840 421 840 418.5 840 c 128,-1,31
 416 840 416 840 414 840 c 0,0,1
97 742 m 1,32,-1
 366 742 l 1,33,-1
 366 474 l 1,34,-1
 97 474 l 1,35,-1
 97 742 l 1,32,-1
463 742 m 1,36,-1
 731 742 l 1,37,-1
 731 474 l 1,38,-1
 463 474 l 1,39,-1
 463 742 l 1,36,-1
EndSplineSet
Validated: 5
Ligature2: "'liga' Standard Ligatures in Latin lookup 0 subtable" i l o
EndChar

StartChar: insa
Encoding: 57361 57361 20
Width: 850
GlyphClass: 3
Flags: W
LayerCount: 2
Fore
SplineSet
414.5 376 m 128,-1,1
 427 376 427 376 427 363.5 c 128,-1,2
 427 351 427 351 414.5 351 c 128,-1,3
 402 351 402 351 402 363.5 c 128,-1,0
 402 376 402 376 414.5 376 c 128,-1,1
415 473 m 0,4,5
 370 473 370 473 337.5 441 c 128,-1,6
 305 409 305 409 305 364 c 128,-1,7
 305 319 305 319 337.5 286.5 c 128,-1,8
 370 254 370 254 415 254 c 0,9,10
 444 254 444 254 469.5 269 c 128,-1,11
 495 284 495 284 509.5 309 c 128,-1,12
 524 334 524 334 524 364 c 0,13,14
 524 378 524 378 520 392.5 c 128,-1,15
 516 407 516 407 509 419 c 128,-1,16
 502 431 502 431 492 441 c 128,-1,17
 482 451 482 451 470 458 c 128,-1,18
 458 465 458 465 443.5 469 c 128,-1,19
 429 473 429 473 415 473 c 0,4,5
48 840 m 2,20,21
 28 840 28 840 14 825.5 c 128,-1,22
 0 811 0 811 0 791 c 2,23,-1
 0 59 l 2,24,25
 0 39 0 39 14.5 24.5 c 128,-1,26
 29 10 29 10 49 10 c 2,27,-1
 781 10 l 2,28,29
 801 10 801 10 815 24.5 c 128,-1,30
 829 39 829 39 829 59 c 2,31,-1
 829 791 l 1,32,33
 829 791 829 791 829 791 c 1,34,35
 829 799 829 799 826.5 806.5 c 128,-1,36
 824 814 824 814 819.5 820 c 128,-1,37
 815 826 815 826 809 830.5 c 128,-1,38
 803 835 803 835 795.5 837.5 c 128,-1,39
 788 840 788 840 781 840 c 0,40,41
 771 840 771 840 762 836 c 128,-1,42
 753 832 753 832 746 825.5 c 128,-1,43
 739 819 739 819 735.5 810 c 128,-1,44
 732 801 732 801 732 791 c 1,45,46
 732 791 732 791 732 791 c 1,47,-1
 732 108 l 1,48,-1
 98 108 l 1,49,-1
 98 791 l 2,50,51
 98 811 98 811 83.5 825.5 c 128,-1,52
 69 840 69 840 49 840 c 2,53,-1
 48 840 l 2,20,21
EndSplineSet
Validated: 5
Ligature2: "'liga' Standard Ligatures in Latin lookup 0 subtable" i n s a
EndChar

StartChar: isipin
Encoding: 57362 57362 21
Width: 850
GlyphClass: 3
Flags: W
LayerCount: 2
Fore
SplineSet
367 661 m 128,-1,1
 466 661 466 661 536.5 590.5 c 128,-1,2
 607 520 607 520 607 421 c 0,3,4
 607 420 607 420 607 420 c 2,5,6
 604 252 604 252 541 132 c 0,7,8
 509 70 509 70 463.5 33 c 128,-1,9
 418 -4 418 -4 362 -4 c 128,-1,10
 306 -4 306 -4 261 33.5 c 128,-1,11
 216 71 216 71 185 133 c 0,12,13
 125 253 125 253 126 421 c 0,14,15
 126 520 126 520 197 590.5 c 128,-1,0
 268 661 268 661 367 661 c 128,-1,1
366.5 561 m 128,-1,17
 308 561 308 561 267 520 c 128,-1,18
 226 479 226 479 226 421 c 2,19,-1
 226 420 l 2,20,21
 226 276 226 276 274 177 c 0,22,23
 295 136 295 136 318 116 c 128,-1,24
 341 96 341 96 361.5 96 c 128,-1,25
 382 96 382 96 406.5 116.5 c 128,-1,26
 431 137 431 137 452 178 c 0,27,28
 504 277 504 277 507 421 c 0,29,30
 507 479 507 479 466 520 c 128,-1,16
 425 561 425 561 366.5 561 c 128,-1,17
176 471 m 2,31,-1
 747 471 l 2,32,33
 761 471 761 471 772.5 464 c 128,-1,34
 784 457 784 457 790.5 445.5 c 128,-1,35
 797 434 797 434 797 421 c 1,36,-1
 797 421 l 1,37,38
 797 400 797 400 782.5 385.5 c 128,-1,39
 768 371 768 371 747 371 c 2,40,-1
 176 371 l 2,41,42
 168 371 168 371 160.5 373.5 c 128,-1,43
 153 376 153 376 147 380.5 c 128,-1,44
 141 385 141 385 136 391 c 128,-1,45
 131 397 131 397 128.5 405 c 128,-1,46
 126 413 126 413 126 421 c 1,47,-1
 126 421 l 1,48,49
 126 441 126 441 141 456 c 128,-1,50
 156 471 156 471 176 471 c 2,31,-1
47 816 m 2,51,52
 47 816 47 816 48 816 c 0,53,54
 59 816 59 816 70.5 810 c 128,-1,55
 82 804 82 804 89 795 c 2,56,-1
 151 708 l 2,57,58
 160 695 160 695 160 679 c 0,59,60
 160 668 160 668 154 656 c 128,-1,61
 148 644 148 644 139 638 c 0,62,63
 126 629 126 629 110 629 c 0,64,65
 100 629 100 629 88 635 c 128,-1,66
 76 641 76 641 70 650 c 2,67,-1
 7 737 l 2,68,69
 -2 750 -2 750 -2 766 c 0,70,71
 -2 777 -2 777 4 789 c 128,-1,72
 10 801 10 801 19 807 c 0,73,74
 32 816 32 816 47 816 c 2,51,52
360 854 m 0,75,76
 381 854 381 854 395.5 839.5 c 128,-1,77
 410 825 410 825 410 804 c 2,78,-1
 410 716 l 2,79,80
 410 696 410 696 395.5 681 c 128,-1,81
 381 666 381 666 360.5 666 c 128,-1,82
 340 666 340 666 325 681 c 128,-1,83
 310 696 310 696 310 716 c 2,84,-1
 310 804 l 2,85,86
 310 817 310 817 317 829 c 128,-1,87
 324 841 324 841 335.5 847.5 c 128,-1,88
 347 854 347 854 360 854 c 0,75,76
672 816 m 2,89,-1
 673 816 l 2,90,91
 689 816 689 816 702 807 c 0,92,93
 711 801 711 801 717 789 c 128,-1,94
 723 777 723 777 723 766 c 0,95,96
 723 750 723 750 714 737 c 2,97,-1
 651 650 l 2,98,99
 648 646 648 646 643 642 c 128,-1,100
 638 638 638 638 633 635 c 128,-1,101
 628 632 628 632 622 630.5 c 128,-1,102
 616 629 616 629 610 629 c 0,103,104
 594 629 594 629 581 638 c 0,105,106
 573 644 573 644 566.5 656 c 128,-1,107
 560 668 560 668 560 679 c 0,108,109
 560 695 560 695 570 708 c 2,110,-1
 632 795 l 2,111,112
 638 804 638 804 650 810 c 128,-1,113
 662 816 662 816 672 816 c 2,89,-1
EndSplineSet
Validated: 37
Ligature2: "'liga' Standard Ligatures in Latin lookup 0 subtable" i s i p i n
EndChar

StartChar: jaki
Encoding: 57363 57363 22
Width: 850
GlyphClass: 3
Flags: W
LayerCount: 2
Fore
SplineSet
414 840 m 2,0,1
 404 840 404 840 393 834 c 128,-1,2
 382 828 382 828 376 820 c 2,3,-1
 272 681 l 1,4,-1
 57 717 l 2,5,6
 53 718 53 718 49 718 c 0,7,8
 36 718 36 718 24.5 711.5 c 128,-1,9
 13 705 13 705 6.5 693.5 c 128,-1,10
 0 682 0 682 0 669 c 0,11,12
 0 658 0 658 6.5 646.5 c 128,-1,13
 13 635 13 635 22 628 c 2,14,-1
 162 535 l 1,15,-1
 10 332 l 2,16,17
 0 319 0 319 0 303 c 0,18,19
 0 273 0 273 27 259 c 0,20,21
 34 256 34 256 41 255 c 2,22,-1
 366 201 l 1,23,-1
 366 59 l 2,24,25
 366 39 366 39 380.5 24.5 c 128,-1,26
 395 10 395 10 415 10 c 0,27,28
 425 10 425 10 436.5 15.5 c 128,-1,29
 448 21 448 21 454 30 c 2,30,-1
 558 169 l 1,31,-1
 773 133 l 2,32,33
 774 133 774 133 775.5 132.5 c 128,-1,34
 777 132 777 132 778.5 132 c 128,-1,35
 780 132 780 132 781 132 c 0,36,37
 794 132 794 132 805.5 138.5 c 128,-1,38
 817 145 817 145 823.5 156.5 c 128,-1,39
 830 168 830 168 830 181 c 0,40,41
 830 192 830 192 823.5 203.5 c 128,-1,42
 817 215 817 215 808 222 c 2,43,-1
 668 315 l 1,44,-1
 820 518 l 2,45,46
 830 531 830 531 830 547 c 0,47,48
 830 564 830 564 818 578 c 128,-1,49
 806 592 806 592 789 595 c 2,50,-1
 464 649 l 1,51,-1
 464 791 l 2,52,53
 464 811 464 811 449.5 825.5 c 128,-1,54
 435 840 435 840 415 840 c 0,55,56
 414 840 414 840 414 840 c 2,0,1
314 575 m 1,57,-1
 366 567 l 1,58,-1
 366 516 l 1,59,-1
 302 559 l 1,60,-1
 314 575 l 1,57,-1
464 550 m 1,61,-1
 694 512 l 1,62,-1
 587 369 l 1,63,-1
 464 451 l 1,64,-1
 464 550 l 1,61,-1
243 481 m 1,65,-1
 366 399 l 1,66,-1
 366 300 l 1,67,-1
 136 338 l 1,68,-1
 243 481 l 1,65,-1
464 334 m 1,69,-1
 528 291 l 1,70,-1
 516 275 l 1,71,-1
 464 283 l 1,72,-1
 464 334 l 1,69,-1
EndSplineSet
Validated: 9
Ligature2: "'liga' Standard Ligatures in Latin lookup 0 subtable" j a k i
EndChar

StartChar: jan
Encoding: 57364 57364 23
Width: 850
GlyphClass: 3
Flags: W
LayerCount: 2
Fore
SplineSet
415 840 m 0,0,1
 383 840 383 840 351.5 834.5 c 128,-1,2
 320 829 320 829 291.5 818 c 128,-1,3
 263 807 263 807 236.5 791.5 c 128,-1,4
 210 776 210 776 187 756.5 c 128,-1,5
 164 737 164 737 144.5 714 c 128,-1,6
 125 691 125 691 109.5 664.5 c 128,-1,7
 94 638 94 638 83.5 609.5 c 128,-1,8
 73 581 73 581 67 549.5 c 128,-1,9
 61 518 61 518 61 486 c 0,10,11
 61 344 61 344 162 241 c 0,12,13
 161 240 161 240 161 240 c 1,14,-1
 15 94 l 2,15,16
 0 79 0 79 0 59 c 256,17,18
 0 39 0 39 14.5 24.5 c 128,-1,19
 29 10 29 10 49 10 c 256,20,21
 69 10 69 10 84 25 c 2,22,-1
 230 171 l 2,23,24
 235 176 235 176 238 182 c 1,25,26
 279 158 279 158 323.5 145 c 128,-1,27
 368 132 368 132 415 132 c 0,28,29
 508 132 508 132 592 182 c 1,30,31
 595 176 595 176 600 171 c 2,32,-1
 747 25 l 2,33,34
 753 19 753 19 763 14.5 c 128,-1,35
 773 10 773 10 781 10 c 0,36,37
 802 10 802 10 816 24.5 c 128,-1,38
 830 39 830 39 830 59 c 256,39,40
 830 79 830 79 816 94 c 2,41,-1
 669 240 l 1,42,43
 669 240 669 240 669 241 c 0,44,45
 769 344 769 344 769 486 c 0,46,47
 769 582 769 582 721.5 663.5 c 128,-1,48
 674 745 674 745 592.5 792.5 c 128,-1,49
 511 840 511 840 415 840 c 0,0,1
415 742 m 0,50,51
 468 742 468 742 515 722 c 128,-1,52
 562 702 562 702 596.5 667.5 c 128,-1,53
 631 633 631 633 651 586 c 128,-1,54
 671 539 671 539 671 486.5 c 128,-1,55
 671 434 671 434 651 386.5 c 128,-1,56
 631 339 631 339 596.5 304.5 c 128,-1,57
 562 270 562 270 515 250 c 128,-1,58
 468 230 468 230 415 230 c 0,59,60
 309 230 309 230 234 305 c 128,-1,61
 159 380 159 380 159 486.5 c 128,-1,62
 159 593 159 593 234 667.5 c 128,-1,63
 309 742 309 742 415 742 c 0,50,51
EndSplineSet
Validated: 9
Ligature2: "'liga' Standard Ligatures in Latin lookup 0 subtable" j a n
EndChar

StartChar: jasima
Encoding: 57365 57365 24
Width: 850
GlyphClass: 3
Flags: W
LayerCount: 2
Fore
SplineSet
20 568 m 0,0,1
 25 565 25 565 32 565 c 128,-1,2
 39 565 39 565 45.5 566 c 128,-1,3
 52 567 52 567 58.5 569.5 c 128,-1,4
 65 572 65 572 70.5 575 c 128,-1,5
 76 578 76 578 80.5 580 c 128,-1,6
 85 582 85 582 88 584 c 2,7,-1
 90 586 l 2,8,9
 91 586 91 586 106.5 597.5 c 128,-1,10
 122 609 122 609 141.5 622 c 128,-1,11
 161 635 161 635 188.5 646 c 128,-1,12
 216 657 216 657 239 657 c 0,13,14
 282 656 282 656 326 632.5 c 128,-1,15
 370 609 370 609 382 585 c 0,16,17
 397 556 397 556 422.5 532 c 128,-1,18
 448 508 448 508 479.5 492 c 128,-1,19
 511 476 511 476 546 466.5 c 128,-1,20
 581 457 581 457 616 456 c 0,21,22
 691 455 691 455 760 490.5 c 128,-1,23
 829 526 829 526 858 586 c 0,24,25
 859 587 859 587 859.5 589.5 c 128,-1,26
 860 592 860 592 860.5 598.5 c 128,-1,27
 861 605 861 605 860 611.5 c 128,-1,28
 859 618 859 618 854.5 626 c 128,-1,29
 850 634 850 634 843 640 c 0,30,31
 830 647 830 647 813 645 c 128,-1,32
 796 643 796 643 781 637 c 2,33,-1
 766 630 l 2,34,35
 765 630 765 630 741 611.5 c 128,-1,36
 717 593 717 593 681.5 575.5 c 128,-1,37
 646 558 646 558 617 559 c 0,38,39
 574 560 574 560 530 583.5 c 128,-1,40
 486 607 486 607 474 631 c 0,41,42
 445 688 445 688 378.5 723 c 128,-1,43
 312 758 312 758 240 759 c 0,44,45
 165 760 165 760 96 725 c 128,-1,46
 27 690 27 690 -2 630 c 0,47,48
 -2 624 -2 624 -1.5 615.5 c 128,-1,49
 -1 607 -1 607 4.5 590 c 128,-1,50
 10 573 10 573 20 568 c 0,0,1
22 171 m 0,51,52
 33 165 33 165 50.5 172.5 c 128,-1,53
 68 180 68 180 79 191 c 2,54,-1
 90 202 l 2,55,56
 91 202 91 202 101 210 c 128,-1,57
 111 218 111 218 126 228 c 128,-1,58
 141 238 141 238 159 248.5 c 128,-1,59
 177 259 177 259 198.5 266 c 128,-1,60
 220 273 220 273 239 273 c 0,61,62
 282 272 282 272 326 248.5 c 128,-1,63
 370 225 370 225 382 201 c 0,64,65
 411 144 411 144 477.5 109 c 128,-1,66
 544 74 544 74 616 72 c 0,67,68
 691 71 691 71 760 106.5 c 128,-1,69
 829 142 829 142 858 202 c 0,70,71
 860 207 860 207 862.5 215.5 c 128,-1,72
 865 224 865 224 863.5 242.5 c 128,-1,73
 862 261 862 261 848 271 c 0,74,75
 834 278 834 278 816 272.5 c 128,-1,76
 798 267 798 267 782 256 c 2,77,-1
 766 246 l 2,78,79
 764 245 764 245 753.5 237.5 c 128,-1,80
 743 230 743 230 728 219.5 c 128,-1,81
 713 209 713 209 695.5 198.5 c 128,-1,82
 678 188 678 188 657 181.5 c 128,-1,83
 636 175 636 175 617 175 c 0,84,85
 574 176 574 176 530 199.5 c 128,-1,86
 486 223 486 223 474 247 c 0,87,88
 445 304 445 304 378.5 339 c 128,-1,89
 312 374 312 374 240 375 c 0,90,91
 165 376 165 376 96 341 c 128,-1,92
 27 306 27 306 -2 246 c 0,93,94
 -1 243 -1 243 -2 229.5 c 128,-1,95
 -3 216 -3 216 3 196.5 c 128,-1,96
 9 177 9 177 22 171 c 0,51,52
426 836 m 0,97,98
 415 836 415 836 403 826.5 c 128,-1,99
 391 817 391 817 384 807 c 2,100,-1
 377 798 l 1,101,-1
 377 34 l 2,102,103
 379 29 379 29 383.5 21.5 c 128,-1,104
 388 14 388 14 400.5 1.5 c 128,-1,105
 413 -11 413 -11 425 -11 c 0,106,107
 430 -11 430 -11 436 -8.5 c 128,-1,108
 442 -6 442 -6 447.5 -2 c 128,-1,109
 453 2 453 2 457.5 6.5 c 128,-1,110
 462 11 462 11 466 16 c 128,-1,111
 470 21 470 21 473 25 c 128,-1,112
 476 29 476 29 478 31 c 2,113,-1
 479 34 l 1,114,-1
 479 798 l 2,115,116
 476 802 476 802 471 808.5 c 128,-1,117
 466 815 466 815 452 825.5 c 128,-1,118
 438 836 438 836 426 836 c 0,97,98
EndSplineSet
Validated: 37
Ligature2: "'liga' Standard Ligatures in Latin lookup 0 subtable" j a s i m a
EndChar

StartChar: jelo
Encoding: 57366 57366 25
Width: 850
GlyphClass: 3
Flags: W
LayerCount: 2
Fore
SplineSet
414 841 m 2,0,1
 394 840 394 840 380 826 c 128,-1,2
 366 812 366 812 366 792 c 2,3,4
 366 792 366 792 366 791 c 2,5,-1
 366 772 l 1,6,7
 325 759 325 759 294.5 728.5 c 128,-1,8
 264 698 264 698 251 657 c 1,9,-1
 171 657 l 1,10,-1
 170 657 l 2,11,12
 150 657 150 657 135.5 642.5 c 128,-1,13
 121 628 121 628 121 608 c 128,-1,14
 121 588 121 588 135.5 573.5 c 128,-1,15
 150 559 150 559 170 559 c 2,16,-1
 171 559 l 1,17,-1
 251 559 l 1,18,19
 264 518 264 518 294.5 487.5 c 128,-1,20
 325 457 325 457 366 445 c 1,21,-1
 14 93 l 2,22,23
 0 79 0 79 0 59 c 0,24,25
 0 49 0 49 4 40 c 128,-1,26
 8 31 8 31 14.5 24.5 c 128,-1,27
 21 18 21 18 30 14 c 128,-1,28
 39 10 39 10 49 10 c 2,29,-1
 781 10 l 2,30,31
 801 10 801 10 815.5 24.5 c 128,-1,32
 830 39 830 39 830 59 c 128,-1,33
 830 79 830 79 816 93 c 2,34,-1
 464 445 l 1,35,36
 505 457 505 457 535.5 487.5 c 128,-1,37
 566 518 566 518 579 559 c 1,38,-1
 659 559 l 2,39,40
 660 559 660 559 660 559 c 2,41,42
 666 559 666 559 672.5 561 c 128,-1,43
 679 563 679 563 684.5 566 c 128,-1,44
 690 569 690 569 694.5 573.5 c 128,-1,45
 699 578 699 578 702 583.5 c 128,-1,46
 705 589 705 589 707 595 c 128,-1,47
 709 601 709 601 709 608 c 0,48,49
 709 628 709 628 694.5 642.5 c 128,-1,50
 680 657 680 657 660 657 c 0,51,52
 659 657 659 657 659 657 c 1,53,-1
 579 657 l 1,54,55
 566 698 566 698 535.5 728.5 c 128,-1,56
 505 759 505 759 464 772 c 1,57,-1
 464 791 l 1,58,-1
 464 792 l 2,59,60
 464 812 464 812 449.5 826.5 c 128,-1,61
 435 841 435 841 415 841 c 0,62,63
 414 841 414 841 414 841 c 2,0,1
409 681 m 0,64,65
 412 681 412 681 415 681 c 128,-1,66
 418 681 418 681 421 681 c 0,67,68
 439 680 439 680 454 670.5 c 128,-1,69
 469 661 469 661 478 646.5 c 128,-1,70
 487 632 487 632 488 614 c 0,71,72
 488 611 488 611 488 608 c 128,-1,73
 488 605 488 605 488 602 c 0,74,75
 487 591 487 591 483.5 581.5 c 128,-1,76
 480 572 480 572 473.5 564 c 128,-1,77
 467 556 467 556 459 549.5 c 128,-1,78
 451 543 451 543 441.5 539.5 c 128,-1,79
 432 536 432 536 421 535 c 0,80,81
 418 536 418 536 415 536 c 128,-1,82
 412 536 412 536 409 535 c 0,83,84
 391 537 391 537 376 546 c 128,-1,85
 361 555 361 555 352 569.5 c 128,-1,86
 343 584 343 584 342 602 c 0,87,88
 342 605 342 605 342 608 c 0,89,90
 342 609 342 609 342 611 c 128,-1,91
 342 613 342 613 342 614 c 0,92,93
 344 641 344 641 363 660 c 128,-1,94
 382 679 382 679 409 681 c 0,64,65
415 356 m 1,95,-1
 663 108 l 1,96,-1
 167 108 l 1,97,-1
 415 356 l 1,95,-1
EndSplineSet
Validated: 9
Ligature2: "'liga' Standard Ligatures in Latin lookup 0 subtable" j e l o
EndChar

StartChar: jo
Encoding: 57367 57367 26
Width: 850
GlyphClass: 3
Flags: W
LayerCount: 2
Fore
SplineSet
412.5 845 m 128,-1,1
 378 845 378 845 346 831 c 128,-1,2
 314 817 314 817 291 794 c 128,-1,3
 268 771 268 771 254.5 739.5 c 128,-1,4
 241 708 241 708 241 673 c 0,5,6
 241 656 241 656 244 640 c 128,-1,7
 247 624 247 624 253 609.5 c 128,-1,8
 259 595 259 595 267 581 c 1,9,10
 189 561 189 561 128 521 c 0,11,12
 68 481 68 481 34 425.5 c 128,-1,13
 0 370 0 370 0 308 c 128,-1,14
 0 246 0 246 34 190.5 c 128,-1,15
 68 135 68 135 128 94 c 0,16,17
 185 54 185 54 258.5 33 c 128,-1,18
 332 12 332 12 412 10 c 0,19,20
 581 8 581 8 702 89 c 0,21,22
 763 129 763 129 797 186 c 128,-1,23
 831 243 831 243 830 306 c 0,24,25
 830 315 830 315 826 324 c 128,-1,26
 822 333 822 333 815.5 339.5 c 128,-1,27
 809 346 809 346 800 350 c 128,-1,28
 791 354 791 354 781 354 c 2,29,-1
 413 354 l 1,30,-1
 412 354 l 2,31,32
 392 354 392 354 377.5 339.5 c 128,-1,33
 363 325 363 325 363 305 c 0,34,35
 363 295 363 295 367 285.5 c 128,-1,36
 371 276 371 276 377.5 269.5 c 128,-1,37
 384 263 384 263 393 259.5 c 128,-1,38
 402 256 402 256 412 256 c 2,39,-1
 413 256 l 1,40,-1
 723 256 l 1,41,42
 713 232 713 232 694.5 210.5 c 128,-1,43
 676 189 676 189 648 171 c 0,44,45
 603 141 603 141 541.5 124.5 c 128,-1,46
 480 108 480 108 413 108 c 0,47,48
 277 111 277 111 183 175 c 0,49,50
 98 233 98 233 98 308 c 256,51,52
 98 383 98 383 182 439 c 0,53,54
 276 501 276 501 413 501 c 1,55,-1
 413 501 l 1,56,57
 459 501 459 501 498.5 524 c 128,-1,58
 538 547 538 547 561 587 c 128,-1,59
 584 627 584 627 584 673 c 0,60,61
 584 708 584 708 570.5 739.5 c 128,-1,62
 557 771 557 771 534 794 c 128,-1,63
 511 817 511 817 479 831 c 128,-1,0
 447 845 447 845 412.5 845 c 128,-1,1
413 747 m 0,64,65
 444 747 444 747 465 725.5 c 128,-1,66
 486 704 486 704 486 673 c 0,67,68
 486 658 486 658 480.5 644 c 128,-1,69
 475 630 475 630 465 620.5 c 128,-1,70
 455 611 455 611 441.5 605 c 128,-1,71
 428 599 428 599 413 599 c 0,72,73
 392 599 392 599 375 609 c 128,-1,74
 358 619 358 619 348.5 636 c 128,-1,75
 339 653 339 653 339 673 c 0,76,77
 339 685 339 685 342.5 696.5 c 128,-1,78
 346 708 346 708 353 717 c 128,-1,79
 360 726 360 726 369 732.5 c 128,-1,80
 378 739 378 739 389 743 c 128,-1,81
 400 747 400 747 413 747 c 0,64,65
EndSplineSet
Validated: 41
Ligature2: "'liga' Standard Ligatures in Latin lookup 0 subtable" j o
EndChar

StartChar: kala
Encoding: 57368 57368 27
Width: 850
GlyphClass: 3
Flags: W
LayerCount: 2
Fore
SplineSet
48 597 m 0,0,1
 28 597 28 597 14 582.5 c 128,-1,2
 0 568 0 568 0 548 c 0,3,4
 0 543 0 543 1 538 c 0,5,6
 26 411 26 411 98 304 c 1,7,8
 63 251 63 251 38.5 192 c 128,-1,9
 14 133 14 133 1 69 c 0,10,11
 1 67 1 67 0.5 64 c 128,-1,12
 0 61 0 61 0 59 c 0,13,14
 0 39 0 39 14.5 24.5 c 128,-1,15
 29 10 29 10 49 10 c 0,16,17
 66 10 66 10 80 21.5 c 128,-1,18
 94 33 94 33 97 50 c 0,19,20
 115 142 115 142 162 222 c 1,21,22
 245 131 245 131 356.5 76 c 128,-1,23
 468 21 468 21 594 11 c 1,24,-1
 598 11 l 2,25,26
 623 11 623 11 647.5 17.5 c 128,-1,27
 672 24 672 24 693 36 c 128,-1,28
 714 48 714 48 732.5 64.5 c 128,-1,29
 751 81 751 81 767 102 c 0,30,31
 830 186 830 186 830 304 c 0,32,33
 830 342 830 342 822.5 378.5 c 128,-1,34
 815 415 815 415 801 447 c 128,-1,35
 787 479 787 479 767 505 c 0,36,37
 735 547 735 547 691.5 571.5 c 128,-1,38
 648 596 648 596 598 596 c 0,39,40
 596 596 596 596 594 596 c 0,41,42
 468 586 468 586 356.5 531 c 128,-1,43
 245 476 245 476 162 385 c 1,44,45
 115 466 115 466 97 557 c 0,46,47
 96 561 96 561 95 564.5 c 128,-1,48
 94 568 94 568 92 571 c 128,-1,49
 90 574 90 574 87.5 577 c 128,-1,50
 85 580 85 580 82.5 583 c 128,-1,51
 80 586 80 586 77 588 c 128,-1,52
 74 590 74 590 70.5 591.5 c 128,-1,53
 67 593 67 593 63.5 594.5 c 128,-1,54
 60 596 60 596 56.5 596.5 c 128,-1,55
 53 597 53 597 49 597 c 2,56,57
 49 597 49 597 48 597 c 0,0,1
600 499 m 1,58,59
 650 498 650 498 689 447 c 0,60,61
 732 388 732 388 732 303.5 c 128,-1,62
 732 219 732 219 689 160 c 0,63,64
 676 143 676 143 661.5 131.5 c 128,-1,65
 647 120 647 120 631.5 114.5 c 128,-1,66
 616 109 616 109 600 108 c 0,67,68
 488 118 488 118 389.5 169 c 128,-1,69
 291 220 291 220 220 304 c 1,70,71
 267 359 267 359 326 400 c 128,-1,72
 385 441 385 441 455 466.5 c 128,-1,73
 525 492 525 492 600 499 c 1,58,59
EndSplineSet
Validated: 9
Ligature2: "'liga' Standard Ligatures in Latin lookup 0 subtable" k a l a
EndChar

StartChar: kalama
Encoding: 57369 57369 28
Width: 850
GlyphClass: 3
Flags: W
LayerCount: 2
Fore
SplineSet
414 840 m 0,0,1
 404 840 404 840 395.5 836 c 128,-1,2
 387 832 387 832 380.5 825.5 c 128,-1,3
 374 819 374 819 370 810 c 128,-1,4
 366 801 366 801 366 791 c 2,5,-1
 366 608 l 2,6,7
 366 607 366 607 366 607 c 2,8,9
 366 587 366 587 380.5 572.5 c 128,-1,10
 395 558 395 558 415 558 c 0,11,12
 425 558 425 558 434 562 c 128,-1,13
 443 566 443 566 449.5 572.5 c 128,-1,14
 456 579 456 579 460 588 c 128,-1,15
 464 597 464 597 464 607 c 2,16,17
 464 607 464 607 464 608 c 2,18,-1
 464 791 l 2,19,20
 464 811 464 811 449.5 825.5 c 128,-1,21
 435 840 435 840 415 840 c 2,22,23
 415 840 415 840 414 840 c 0,0,1
50 779 m 2,24,25
 50 779 50 779 49 779 c 0,26,27
 17 779 17 779 4 750 c 0,28,29
 0 740 0 740 0 730 c 0,30,31
 0 718 0 718 5 708 c 2,32,-1
 66 586 l 2,33,34
 70 578 70 578 77 572 c 128,-1,35
 84 566 84 566 93 562 c 128,-1,36
 102 558 102 558 110 558 c 256,37,38
 118 558 118 558 125.5 560.5 c 128,-1,39
 133 563 133 563 139 567.5 c 128,-1,40
 145 572 145 572 149.5 578 c 128,-1,41
 154 584 154 584 156.5 591.5 c 128,-1,42
 159 599 159 599 159 607 c 0,43,44
 159 619 159 619 154 629 c 2,45,-1
 93 751 l 2,46,47
 91 756 91 756 87.5 760 c 128,-1,48
 84 764 84 764 79.5 767.5 c 128,-1,49
 75 771 75 771 70 773.5 c 128,-1,50
 65 776 65 776 60 777.5 c 128,-1,51
 55 779 55 779 50 779 c 2,24,25
784 779 m 0,52,53
 782 779 782 779 781 779 c 0,54,55
 775 779 775 779 768.5 777 c 128,-1,56
 762 775 762 775 756 771 c 128,-1,57
 750 767 750 767 745 762 c 128,-1,58
 740 757 740 757 737 751 c 2,59,-1
 676 629 l 2,60,61
 674 625 674 625 672.5 618.5 c 128,-1,62
 671 612 671 612 671 607 c 0,63,64
 671 587 671 587 685 572.5 c 128,-1,65
 699 558 699 558 720 558 c 0,66,67
 728 558 728 558 737 562 c 128,-1,68
 746 566 746 566 753 572 c 128,-1,69
 760 578 760 578 764 586 c 2,70,-1
 825 708 l 2,71,72
 826 710 826 710 827 713 c 128,-1,73
 828 716 828 716 828.5 719 c 128,-1,74
 829 722 829 722 829.5 725 c 128,-1,75
 830 728 830 728 830 730 c 0,76,77
 830 749 830 749 816.5 763.5 c 128,-1,78
 803 778 803 778 784 779 c 0,52,53
49 473 m 2,79,80
 18 473 18 473 5 445 c 0,81,82
 1 435 1 435 0 425 c 0,83,84
 0 342 0 342 31.5 266 c 128,-1,85
 63 190 63 190 121.5 131.5 c 128,-1,86
 180 73 180 73 256.5 41.5 c 128,-1,87
 333 10 333 10 415 10 c 128,-1,88
 497 10 497 10 573.5 41.5 c 128,-1,89
 650 73 650 73 708 131 c 0,90,91
 737 160 737 160 760 194.5 c 128,-1,92
 783 229 783 229 798.5 266 c 128,-1,93
 814 303 814 303 822 343.5 c 128,-1,94
 830 384 830 384 830 425 c 0,95,96
 830 445 830 445 815.5 459 c 128,-1,97
 801 473 801 473 781 473 c 2,98,-1
 49 473 l 2,79,80
102 376 m 1,99,-1
 728 376 l 1,100,101
 712 274 712 274 639 200 c 0,102,103
 624 186 624 186 607.5 173 c 128,-1,104
 591 160 591 160 573.5 150 c 128,-1,105
 556 140 556 140 536.5 132 c 128,-1,106
 517 124 517 124 497 118.5 c 128,-1,107
 477 113 477 113 456.5 110.5 c 128,-1,108
 436 108 436 108 415 108 c 0,109,110
 352 108 352 108 293.5 132 c 128,-1,111
 235 156 235 156 191 200 c 0,112,113
 118 274 118 274 102 376 c 1,99,-1
EndSplineSet
Validated: 9
Ligature2: "'liga' Standard Ligatures in Latin lookup 0 subtable" k a l a m a
EndChar

StartChar: kama
Encoding: 57370 57370 29
Width: 850
GlyphClass: 3
Flags: W
LayerCount: 2
Fore
SplineSet
352 840 m 2,0,1
 335 839 335 839 321 826 c 128,-1,2
 307 813 307 813 306 795 c 2,3,-1
 250 120 l 1,4,-1
 61 167 l 2,5,6
 55 169 55 169 49 169 c 0,7,8
 17 169 17 169 4 140 c 0,9,10
 0 130 0 130 0 120 c 0,11,12
 0 104 0 104 11 90 c 128,-1,13
 22 76 22 76 38 73 c 2,14,-1
 282 12 l 2,15,16
 287 10 287 10 293 10 c 0,17,18
 312 10 312 10 326 23.5 c 128,-1,19
 340 37 340 37 342 55 c 2,20,-1
 392 652 l 1,21,-1
 709 199 l 1,22,-1
 515 103 l 2,23,24
 511 101 511 101 507 97 c 128,-1,25
 503 93 503 93 499.5 88.5 c 128,-1,26
 496 84 496 84 493.5 79 c 128,-1,27
 491 74 491 74 489.5 69 c 128,-1,28
 488 64 488 64 488 59 c 0,29,30
 488 27 488 27 517 14 c 0,31,32
 527 10 527 10 537 10 c 0,33,34
 549 10 549 10 559 15 c 2,35,-1
 803 137 l 2,36,37
 814 143 814 143 822 156 c 128,-1,38
 830 169 830 169 830 181 c 0,39,40
 830 187 830 187 827.5 195.5 c 128,-1,41
 825 204 825 204 821 209 c 2,42,-1
 394 819 l 2,43,44
 391 823 391 823 386.5 827 c 128,-1,45
 382 831 382 831 376.5 833.5 c 128,-1,46
 371 836 371 836 365.5 838 c 128,-1,47
 360 840 360 840 354 840 c 2,48,-1
 352 840 l 2,0,1
EndSplineSet
Validated: 9
Ligature2: "'liga' Standard Ligatures in Latin lookup 0 subtable" k a m a
EndChar

StartChar: kamalawala
Encoding: 57371 57371 30
Width: 850
GlyphClass: 3
Flags: W
LayerCount: 2
Fore
SplineSet
421 792 m 0,0,1
 521 792 521 792 606.5 743.5 c 128,-1,2
 692 695 692 695 743 610.5 c 128,-1,3
 794 526 794 526 797 427 c 0,4,5
 798 421 798 421 798 415.5 c 128,-1,6
 798 410 798 410 797 405 c 0,7,8
 794 305 794 305 743 221 c 128,-1,9
 692 137 692 137 606.5 88 c 128,-1,10
 521 39 521 39 421 39 c 0,11,12
 319 39 319 39 232 89.5 c 128,-1,13
 145 140 145 140 94.5 227 c 128,-1,14
 44 314 44 314 44 416 c 0,15,16
 44 492 44 492 74 562 c 128,-1,17
 104 632 104 632 154.5 682.5 c 128,-1,18
 205 733 205 733 275 762.5 c 128,-1,19
 345 792 345 792 421 792 c 0,0,1
421 683 m 128,-1,21
 310 683 310 683 232 605 c 128,-1,22
 154 527 154 527 154 416 c 128,-1,23
 154 305 154 305 232 227 c 128,-1,24
 310 149 310 149 421 149 c 128,-1,25
 532 149 532 149 610 227 c 128,-1,26
 688 305 688 305 688 416 c 128,-1,27
 688 527 688 527 610 605 c 128,-1,20
 532 683 532 683 421 683 c 128,-1,21
411 819 m 2,28,29
 423 819 423 819 436 811 c 128,-1,30
 449 803 449 803 455 791 c 2,31,-1
 829 51 l 2,32,33
 835 41 835 41 835 29 c 0,34,35
 835 16 835 16 827 3 c 128,-1,36
 819 -10 819 -10 807 -16 c 0,37,38
 797 -21 797 -21 785 -21 c 0,39,40
 772 -21 772 -21 759 -13 c 128,-1,41
 746 -5 746 -5 740 6 c 2,42,-1
 413 653 l 1,43,-1
 118 -5 l 2,44,45
 113 -17 113 -17 99.5 -25.5 c 128,-1,46
 86 -34 86 -34 73 -34 c 0,47,48
 62 -34 62 -34 52 -30 c 0,49,50
 40 -25 40 -25 31.5 -11.5 c 128,-1,51
 23 2 23 2 23 16 c 0,52,53
 23 26 23 26 27 36 c 2,54,-1
 365 789 l 2,55,56
 370 801 370 801 383.5 810 c 128,-1,57
 397 819 397 819 410 819 c 2,58,-1
 411 819 l 2,28,29
47 472 m 2,59,-1
 777 472 l 2,60,61
 798 472 798 472 812.5 457.5 c 128,-1,62
 827 443 827 443 827 422 c 128,-1,63
 827 401 827 401 812.5 386.5 c 128,-1,64
 798 372 798 372 777 372 c 2,65,-1
 47 372 l 2,66,67
 26 372 26 372 11.5 386.5 c 128,-1,68
 -3 401 -3 401 -3 422 c 128,-1,69
 -3 443 -3 443 11.5 457.5 c 128,-1,70
 26 472 26 472 47 472 c 2,59,-1
EndSplineSet
Validated: 5
Ligature2: "'liga' Standard Ligatures in Latin lookup 0 subtable" k a m a l a w a l a
EndChar

StartChar: kapesi
Encoding: 57372 57372 31
Width: 850
GlyphClass: 3
Flags: W
LayerCount: 2
Fore
SplineSet
423 849 m 0,0,1
 514 849 514 849 579.5 785.5 c 128,-1,2
 645 722 645 722 649 632 c 0,3,4
 650 627 650 627 650 622 c 128,-1,5
 650 617 650 617 649 612 c 0,6,7
 645 522 645 522 579.5 459 c 128,-1,8
 514 396 514 396 423 396 c 0,9,10
 330 396 330 396 263.5 462.5 c 128,-1,11
 197 529 197 529 197 622.5 c 128,-1,12
 197 716 197 716 263.5 782.5 c 128,-1,13
 330 849 330 849 423 849 c 0,0,1
423 749 m 0,14,15
 370 749 370 749 333.5 712 c 128,-1,16
 297 675 297 675 297 622 c 0,17,18
 297 588 297 588 313.5 558.5 c 128,-1,19
 330 529 330 529 359 512.5 c 128,-1,20
 388 496 388 496 423 496 c 0,21,22
 476 496 476 496 513 532.5 c 128,-1,23
 550 569 550 569 550 622 c 0,24,25
 550 643 550 643 543.5 662.5 c 128,-1,26
 537 682 537 682 525.5 697.5 c 128,-1,27
 514 713 514 713 498.5 724.5 c 128,-1,28
 483 736 483 736 463.5 742.5 c 128,-1,29
 444 749 444 749 423 749 c 0,14,15
423 804 m 128,-1,31
 444 804 444 804 458.5 789 c 128,-1,32
 473 774 473 774 473 754 c 2,33,-1
 473 509 l 2,34,35
 473 489 473 489 458.5 474 c 128,-1,36
 444 459 444 459 423 459 c 128,-1,37
 402 459 402 459 387.5 474 c 128,-1,38
 373 489 373 489 373 509 c 2,39,-1
 373 754 l 2,40,41
 373 774 373 774 387.5 789 c 128,-1,30
 402 804 402 804 423 804 c 128,-1,31
297 670 m 2,42,-1
 543 670 l 2,43,44
 551 670 551 670 559 667.5 c 128,-1,45
 567 665 567 665 573 660.5 c 128,-1,46
 579 656 579 656 583.5 650 c 128,-1,47
 588 644 588 644 590.5 636.5 c 128,-1,48
 593 629 593 629 593 620 c 0,49,50
 593 600 593 600 578.5 585 c 128,-1,51
 564 570 564 570 543 570 c 2,52,-1
 297 570 l 2,53,54
 276 570 276 570 261.5 585 c 128,-1,55
 247 600 247 600 247 620.5 c 128,-1,56
 247 641 247 641 261.5 655.5 c 128,-1,57
 276 670 276 670 297 670 c 2,42,-1
422 474 m 2,58,-1
 423 474 l 2,59,60
 444 474 444 474 458 460 c 2,61,-1
 833 86 l 2,62,63
 848 72 848 72 848 51 c 128,-1,64
 848 30 848 30 833.5 15.5 c 128,-1,65
 819 1 819 1 798 1 c 2,66,-1
 48 1 l 2,67,68
 27 1 27 1 12.5 15.5 c 128,-1,69
 -2 30 -2 30 -2 51 c 128,-1,70
 -2 72 -2 72 13 86 c 2,71,-1
 388 460 l 2,72,73
 402 474 402 474 422 474 c 2,58,-1
423 354 m 1,74,-1
 169 101 l 1,75,-1
 677 101 l 1,76,-1
 423 354 l 1,74,-1
EndSplineSet
Validated: 5
Ligature2: "'liga' Standard Ligatures in Latin lookup 0 subtable" k a p e s i
EndChar

StartChar: kasi
Encoding: 57373 57373 32
Width: 850
GlyphClass: 3
Flags: W
LayerCount: 2
Fore
SplineSet
659 840 m 0,0,1
 613 841 613 841 571 813 c 0,2,3
 479 751 479 751 425 569 c 0,4,5
 417 542 417 542 410 511.5 c 128,-1,6
 403 481 403 481 397 448 c 1,7,8
 343 569 343 569 254 614 c 0,9,10
 209 637 209 637 161.5 634.5 c 128,-1,11
 114 632 114 632 77.5 604.5 c 128,-1,12
 41 577 41 577 20.5 531.5 c 128,-1,13
 0 486 0 486 0 431 c 0,14,15
 0 392 0 392 24.5 362.5 c 128,-1,16
 49 333 49 333 85 316 c 0,17,18
 143 288 143 288 225 284 c 0,19,20
 293 280 293 280 343 294 c 1,21,22
 366 191 366 191 366 59 c 0,23,24
 366 39 366 39 380.5 24.5 c 128,-1,25
 395 10 395 10 415 10 c 128,-1,26
 435 10 435 10 449.5 24.5 c 128,-1,27
 464 39 464 39 464 59 c 0,28,29
 464 263 464 263 491 419 c 1,30,31
 516 411 516 411 545.5 408.5 c 128,-1,32
 575 406 575 406 608 408 c 0,33,34
 633 409 633 409 655.5 412.5 c 128,-1,35
 678 416 678 416 702 423 c 128,-1,36
 726 430 726 430 746 440 c 0,37,38
 782 457 782 457 806 486.5 c 128,-1,39
 830 516 830 516 830 555 c 0,40,41
 830 631 830 631 812.5 690.5 c 128,-1,42
 795 750 795 750 760 789 c 0,43,44
 722 832 722 832 672 839 c 0,45,46
 665 840 665 840 659 840 c 0,0,1
652 741 m 0,47,48
 655 741 655 741 659 741 c 0,49,50
 674 739 674 739 688 723 c 0,51,52
 693 716 693 716 698.5 707.5 c 128,-1,53
 704 699 704 699 709 687 c 128,-1,54
 714 675 714 675 718 661 c 128,-1,55
 722 647 722 647 725.5 630.5 c 128,-1,56
 729 614 729 614 730.5 594.5 c 128,-1,57
 732 575 732 575 732 555 c 0,58,59
 732 543 732 543 704 529 c 0,60,61
 692 523 692 523 675.5 518.5 c 128,-1,62
 659 514 659 514 640 511 c 128,-1,63
 621 508 621 508 603 507 c 0,64,65
 559 504 559 504 525 513 c 0,66,67
 525 515 525 515 525 518 c 0,68,69
 525 531 525 531 519 542 c 1,70,71
 535 593 535 593 554.5 634 c 128,-1,72
 574 675 574 675 591.5 697 c 128,-1,73
 609 719 609 719 625 730 c 0,74,75
 640 740 640 740 652 741 c 0,47,48
172 536 m 0,76,77
 175 536 175 536 178 536 c 128,-1,78
 181 536 181 536 184 535.5 c 128,-1,79
 187 535 187 535 190 534 c 128,-1,80
 193 533 193 533 196.5 531.5 c 128,-1,81
 200 530 200 530 203.5 529 c 128,-1,82
 207 528 207 528 210 526 c 0,83,84
 271 495 271 495 314 389 c 1,85,86
 277 380 277 380 230 383 c 0,87,88
 167 386 167 386 126 405 c 0,89,90
 109 413 109 413 103.5 419 c 128,-1,91
 98 425 98 425 98 431 c 0,92,93
 98 497 98 497 135 524 c 0,94,95
 152 537 152 537 172 536 c 0,76,77
EndSplineSet
Validated: 41
Ligature2: "'liga' Standard Ligatures in Latin lookup 0 subtable" k a s i
EndChar

StartChar: ken
Encoding: 57374 57374 33
Width: 850
GlyphClass: 3
Flags: W
LayerCount: 2
Fore
SplineSet
48 840 m 2,0,1
 17 840 17 840 4 811 c 0,2,3
 0 801 0 801 0 791 c 2,4,-1
 0 59 l 2,5,6
 0 27 0 27 29 14 c 0,7,8
 39 10 39 10 49 10 c 0,9,10
 69 10 69 10 83.5 24.5 c 128,-1,11
 98 39 98 39 98 59 c 1,12,13
 98 59 98 59 98 59 c 1,14,-1
 98 375 l 1,15,16
 222 369 222 369 336 342 c 128,-1,17
 450 315 450 315 538 271 c 0,18,19
 631 225 631 225 680 168.5 c 128,-1,20
 729 112 729 112 732 57 c 0,21,22
 733 38 733 38 747.5 24 c 128,-1,23
 762 10 762 10 781 10 c 0,24,25
 801 10 801 10 815.5 24.5 c 128,-1,26
 830 39 830 39 830 59 c 2,27,-1
 830 62 l 1,28,29
 825 150 825 150 759.5 226 c 128,-1,30
 694 302 694 302 582 358 c 0,31,32
 509 394 509 394 421 420 c 1,33,34
 469 433 469 433 512.5 449 c 128,-1,35
 556 465 556 465 595 485 c 0,36,37
 670 522 670 522 723 569.5 c 128,-1,38
 776 617 776 617 804.5 674.5 c 128,-1,39
 833 732 833 732 830 793 c 0,40,41
 829 803 829 803 825 811.5 c 128,-1,42
 821 820 821 820 814.5 826.5 c 128,-1,43
 808 833 808 833 799 836.5 c 128,-1,44
 790 840 790 840 781 840 c 0,45,46
 761 840 761 840 746.5 825.5 c 128,-1,47
 732 811 732 811 732 791 c 2,48,-1
 732 788 l 2,49,50
 733 766 733 766 727 744 c 128,-1,51
 721 722 721 722 707 699.5 c 128,-1,52
 693 677 693 677 671.5 655 c 128,-1,53
 650 633 650 633 619.5 612 c 128,-1,54
 589 591 589 591 552 572 c 0,55,56
 463 528 463 528 345 502.5 c 128,-1,57
 227 477 227 477 98 474 c 1,58,-1
 98 791 l 1,59,60
 98 791 98 791 98 791 c 1,61,62
 98 811 98 811 83.5 825.5 c 128,-1,63
 69 840 69 840 49 840 c 2,64,-1
 48 840 l 2,0,1
EndSplineSet
Validated: 37
Ligature2: "'liga' Standard Ligatures in Latin lookup 0 subtable" k e n
EndChar

StartChar: kepeken
Encoding: 57375 57375 34
Width: 850
GlyphClass: 3
Flags: W
LayerCount: 2
Fore
SplineSet
414 840 m 2,0,1
 410 840 410 840 407 839 c 2,2,-1
 110 839 l 2,3,4
 90 839 90 839 75.5 825 c 128,-1,5
 61 811 61 811 61 791 c 2,6,-1
 61 547 l 2,7,8
 61 527 61 527 75.5 512.5 c 128,-1,9
 90 498 90 498 110 498 c 2,10,-1
 366 498 l 1,11,-1
 366 462 l 1,12,13
 353 459 353 459 340 454 c 128,-1,14
 327 449 327 449 314.5 442.5 c 128,-1,15
 302 436 302 436 290 428 c 128,-1,16
 278 420 278 420 266.5 410.5 c 128,-1,17
 255 401 255 401 244.5 390 c 128,-1,18
 234 379 234 379 224.5 367 c 128,-1,19
 215 355 215 355 206 342 c 0,20,21
 154 267 154 267 134 166 c 1,22,-1
 84 216 l 2,23,24
 78 222 78 222 67.5 226.5 c 128,-1,25
 57 231 57 231 49 231 c 0,26,27
 17 231 17 231 4 202 c 0,28,29
 0 192 0 192 0 182 c 0,30,31
 1 161 1 161 15 147 c 2,32,-1
 137 25 l 2,33,34
 151 11 151 11 171 11 c 0,35,36
 184 11 184 11 195 17.5 c 128,-1,37
 206 24 206 24 213 35 c 128,-1,38
 220 46 220 46 220 59 c 0,39,40
 222 194 222 194 286 287 c 0,41,42
 344 371 344 371 418 371 c 256,43,44
 492 371 492 371 548 288 c 0,45,46
 610 195 610 195 610 60 c 0,47,48
 610 59 610 59 610 59 c 2,49,50
 610 27 610 27 638 14 c 0,51,52
 648 10 648 10 658 10 c 0,53,54
 664 10 664 10 669.5 11.5 c 128,-1,55
 675 13 675 13 680 15 c 128,-1,56
 685 17 685 17 689 20.5 c 128,-1,57
 693 24 693 24 696.5 28.5 c 128,-1,58
 700 33 700 33 702.5 37.5 c 128,-1,59
 705 42 705 42 706 47.5 c 128,-1,60
 707 53 707 53 707 59 c 0,61,62
 707 224 707 224 629 342 c 0,63,64
 562 442 562 442 464 464 c 1,65,-1
 464 498 l 1,66,-1
 719 498 l 2,67,68
 740 498 740 498 754 512.5 c 128,-1,69
 768 527 768 527 768 547 c 2,70,-1
 768 791 l 2,71,72
 768 804 768 804 761.5 815 c 128,-1,73
 755 826 755 826 744 832.5 c 128,-1,74
 733 839 733 839 719 839 c 2,75,-1
 423 839 l 2,76,77
 419 840 419 840 415 840 c 2,78,-1
 414 840 l 2,0,1
159 742 m 1,79,-1
 366 742 l 1,80,-1
 366 596 l 1,81,-1
 159 596 l 1,82,-1
 159 742 l 1,79,-1
464 742 m 1,83,-1
 671 742 l 1,84,-1
 671 596 l 1,85,-1
 464 596 l 1,86,-1
 464 742 l 1,83,-1
EndSplineSet
Validated: 9
Ligature2: "'liga' Standard Ligatures in Latin lookup 0 subtable" k e p e k e n
EndChar

StartChar: kijetesantakalu
Encoding: 57376 57376 35
Width: 850
GlyphClass: 3
Flags: W
LayerCount: 2
Fore
SplineSet
685.5 -2 m 128,-1,1
 666 -2 666 -2 652 11.5 c 128,-1,2
 638 25 638 25 638 45 c 2,3,-1
 638 474 l 2,4,5
 638 481 638 481 640.5 488.5 c 128,-1,6
 643 496 643 496 647.5 502.5 c 128,-1,7
 652 509 652 509 658 512 c 2,8,-1
 720 558 l 1,9,-1
 577 675 l 2,10,11
 566 685 566 685 562 698 c 2,12,-1
 549 742 l 1,13,14
 493 731 493 731 459 700 c 0,15,16
 409 655 409 655 380 564 c 0,17,18
 328 404 328 404 345 94 c 1,19,-1
 386 94 l 1,20,-1
 369 157 l 2,21,22
 367 163 367 163 367 169 c 0,23,24
 367 184 367 184 377.5 197.5 c 128,-1,25
 388 211 388 211 402 214 c 0,26,27
 408 216 408 216 414 216 c 0,28,29
 429 216 429 216 442.5 206 c 128,-1,30
 456 196 456 196 460 181 c 2,31,-1
 492 59 l 2,32,33
 494 53 494 53 494 47 c 0,34,35
 494 28 494 28 480 14 c 128,-1,36
 466 0 466 0 447 0 c 2,37,-1
 300 0 l 2,38,39
 282 0 282 0 268 13 c 128,-1,40
 254 26 254 26 253 44 c 0,41,42
 228 401 228 401 291 593 c 0,43,44
 328 707 328 707 396 770 c 0,45,46
 471 838 471 838 580 844 c 0,47,48
 581 844 581 844 582 844 c 0,49,50
 596 844 596 844 609.5 834 c 128,-1,51
 623 824 623 824 627 810 c 2,52,-1
 648 739 l 1,53,-1
 827 593 l 2,54,55
 844 579 844 579 844 556 c 0,56,57
 844 546 844 546 838.5 535 c 128,-1,58
 833 524 833 524 825 518 c 2,59,-1
 732 450 l 1,60,-1
 732 45 l 2,61,62
 732 25 732 25 718.5 11.5 c 128,-1,0
 705 -2 705 -2 685.5 -2 c 128,-1,1
260 0 m 0,63,64
 144 -5 144 -5 72 47 c 0,65,66
 37 71 37 71 17.5 106 c 128,-1,67
 -2 141 -2 141 -2 179 c 128,-1,68
 -2 217 -2 217 17.5 252 c 128,-1,69
 37 287 37 287 71 311 c 0,70,71
 144 361 144 361 261 354 c 0,72,73
 279 353 279 353 292 339.5 c 128,-1,74
 305 326 305 326 305 307 c 0,75,76
 305 306 305 306 305 305 c 0,77,78
 304 286 304 286 290 273 c 128,-1,79
 276 260 276 260 258 260 c 0,80,81
 256 260 256 260 255 260 c 0,82,83
 171 265 171 265 125 234 c 0,84,85
 92 211 92 211 92 179 c 256,86,87
 92 147 92 147 126 124 c 0,88,89
 173 91 173 91 257 94 c 2,90,91
 257 94 257 94 258 94 c 0,92,93
 277 94 277 94 291 81 c 128,-1,94
 305 68 305 68 306 49 c 0,95,96
 306 48 306 48 306 47 c 0,97,98
 306 28 306 28 292.5 14.5 c 128,-1,99
 279 1 279 1 260 0 c 0,63,64
573.5 -1 m 128,-1,101
 554 -1 554 -1 540 13 c 128,-1,102
 526 27 526 27 526 46 c 2,103,-1
 526 211 l 2,104,105
 526 231 526 231 540 244.5 c 128,-1,106
 554 258 554 258 573.5 258 c 128,-1,107
 593 258 593 258 606.5 244.5 c 128,-1,108
 620 231 620 231 620 211 c 2,109,-1
 620 46 l 2,110,111
 620 27 620 27 606.5 13 c 128,-1,100
 593 -1 593 -1 573.5 -1 c 128,-1,101
169.5 20 m 128,-1,113
 150 20 150 20 136.5 34 c 128,-1,114
 123 48 123 48 123 67 c 2,115,-1
 123 68 l 1,116,-1
 123 297 l 2,117,118
 123 317 123 317 136.5 330.5 c 128,-1,119
 150 344 150 344 170 344 c 0,120,121
 180 344 180 344 188.5 340.5 c 128,-1,122
 197 337 197 337 203.5 330.5 c 128,-1,123
 210 324 210 324 213.5 315.5 c 128,-1,124
 217 307 217 307 217 297 c 2,125,-1
 217 68 l 1,126,-1
 217 67 l 2,127,128
 217 48 217 48 203 34 c 128,-1,112
 189 20 189 20 169.5 20 c 128,-1,113
440 524 m 2,129,130
 427 524 427 524 416.5 530.5 c 128,-1,131
 406 537 406 537 399.5 547.5 c 128,-1,132
 393 558 393 558 393 571 c 0,133,134
 393 581 393 581 396.5 589.5 c 128,-1,135
 400 598 400 598 406.5 604.5 c 128,-1,136
 413 611 413 611 421.5 614.5 c 128,-1,137
 430 618 430 618 440 618 c 2,138,-1
 458 618 l 2,139,140
 478 618 478 618 492 604.5 c 128,-1,141
 506 591 506 591 506 571.5 c 128,-1,142
 506 552 506 552 492 538 c 128,-1,143
 478 524 478 524 458 524 c 2,144,-1
 440 524 l 2,129,130
567 524 m 2,145,146
 560 524 560 524 552.5 526.5 c 128,-1,147
 545 529 545 529 539.5 533.5 c 128,-1,148
 534 538 534 538 529.5 543.5 c 128,-1,149
 525 549 525 549 522.5 556.5 c 128,-1,150
 520 564 520 564 520 571 c 0,151,152
 520 584 520 584 526.5 595 c 128,-1,153
 533 606 533 606 543.5 612 c 128,-1,154
 554 618 554 618 567 618 c 2,155,-1
 586 618 l 2,156,157
 605 618 605 618 619 604.5 c 128,-1,158
 633 591 633 591 633 571 c 0,159,160
 633 558 633 558 626.5 547.5 c 128,-1,161
 620 537 620 537 609 530.5 c 128,-1,162
 598 524 598 524 586 524 c 2,163,-1
 567 524 l 2,145,146
EndSplineSet
Validated: 37
Ligature2: "'liga' Standard Ligatures in Latin lookup 0 subtable" k i j e t e s a n t a k a l u
EndChar

StartChar: kili
Encoding: 57377 57377 36
Width: 850
GlyphClass: 3
Flags: W
LayerCount: 2
Fore
SplineSet
414 841 m 2,0,1
 406 841 406 841 399 838 c 128,-1,2
 392 835 392 835 386 830.5 c 128,-1,3
 380 826 380 826 375.5 820 c 128,-1,4
 371 814 371 814 368.5 807 c 128,-1,5
 366 800 366 800 366 792 c 2,6,7
 366 792 366 792 366 791 c 2,8,-1
 366 736 l 1,9,10
 306 779 306 779 232 779 c 0,11,12
 136 779 136 779 68 711 c 128,-1,13
 0 643 0 643 0 547 c 2,14,-1
 0 425 l 2,15,16
 0 342 0 342 31.5 266 c 128,-1,17
 63 190 63 190 121.5 131.5 c 128,-1,18
 180 73 180 73 256 41.5 c 128,-1,19
 332 10 332 10 415 10 c 0,20,21
 470 10 470 10 522.5 24 c 128,-1,22
 575 38 575 38 622.5 65.5 c 128,-1,23
 670 93 670 93 708 132 c 0,24,25
 737 161 737 161 760 195 c 128,-1,26
 783 229 783 229 798.5 266 c 128,-1,27
 814 303 814 303 822 343.5 c 128,-1,28
 830 384 830 384 830 425 c 2,29,-1
 830 547 l 2,30,31
 830 610 830 610 799 663.5 c 128,-1,32
 768 717 768 717 714.5 748 c 128,-1,33
 661 779 661 779 598 779 c 0,34,35
 524 779 524 779 464 736 c 1,36,-1
 464 791 l 2,37,38
 464 792 464 792 464 792 c 2,39,40
 464 805 464 805 457.5 816.5 c 128,-1,41
 451 828 451 828 439.5 834.5 c 128,-1,42
 428 841 428 841 415 841 c 2,43,-1
 414 841 l 2,0,1
232 681 m 0,44,45
 259 681 259 681 284 670.5 c 128,-1,46
 309 660 309 660 327 642 c 128,-1,47
 345 624 345 624 355.5 599.5 c 128,-1,48
 366 575 366 575 366 547 c 2,49,-1
 366 546 l 2,50,51
 366 532 366 532 372.5 521 c 128,-1,52
 379 510 379 510 390.5 503.5 c 128,-1,53
 402 497 402 497 415 497 c 128,-1,54
 428 497 428 497 439.5 503.5 c 128,-1,55
 451 510 451 510 457.5 521 c 128,-1,56
 464 532 464 532 464 546 c 1,57,58
 464 546 464 546 464 546 c 1,59,-1
 464 547 l 2,60,61
 464 584 464 584 482 615 c 128,-1,62
 500 646 500 646 530.5 663.5 c 128,-1,63
 561 681 561 681 598 681 c 0,64,65
 626 681 626 681 650.5 670.5 c 128,-1,66
 675 660 675 660 693 642 c 128,-1,67
 711 624 711 624 721.5 599.5 c 128,-1,68
 732 575 732 575 732 547 c 2,69,-1
 732 425 l 2,70,71
 732 362 732 362 708 303.5 c 128,-1,72
 684 245 684 245 639.5 200.5 c 128,-1,73
 595 156 595 156 536.5 132 c 128,-1,74
 478 108 478 108 415 108 c 0,75,76
 390 108 390 108 365 112 c 128,-1,77
 340 116 340 116 316.5 123.5 c 128,-1,78
 293 131 293 131 271 142 c 128,-1,79
 249 153 249 153 228.5 168 c 128,-1,80
 208 183 208 183 191 201 c 0,81,82
 146 245 146 245 122 303.5 c 128,-1,83
 98 362 98 362 98 425 c 2,84,-1
 98 547 l 2,85,86
 98 603 98 603 137 642 c 128,-1,87
 176 681 176 681 232 681 c 0,44,45
EndSplineSet
Validated: 5
Ligature2: "'liga' Standard Ligatures in Latin lookup 0 subtable" k i l i
EndChar

StartChar: kin
Encoding: 57378 57378 37
Width: 850
GlyphClass: 3
Flags: W
LayerCount: 2
Fore
SplineSet
302 91 m 0,0,1
 302 87 302 87 303.5 81.5 c 128,-1,2
 305 76 305 76 307.5 71.5 c 128,-1,3
 310 67 310 67 312 63.5 c 128,-1,4
 314 60 314 60 316 57 c 2,5,-1
 317 55 l 1,6,-1
 477 55 l 1,7,8
 496 73 496 73 496 88 c 0,9,10
 496 91 496 91 495 94 c 128,-1,11
 494 97 494 97 492.5 100 c 128,-1,12
 491 103 491 103 488.5 105.5 c 128,-1,13
 486 108 486 108 484 110.5 c 128,-1,14
 482 113 482 113 480.5 114.5 c 128,-1,15
 479 116 479 116 477 117 c 2,16,-1
 476 118 l 1,17,-1
 316 118 l 1,18,19
 302 103 302 103 302 91 c 0,0,1
342 167 m 0,20,21
 337 163 337 163 331.5 154.5 c 128,-1,22
 326 146 326 146 324 140 c 2,23,-1
 322 133 l 1,24,-1
 419 -12 l 1,25,26
 442 -10 442 -10 454 -2 c 0,27,28
 457 1 457 1 460.5 4.5 c 128,-1,29
 464 8 464 8 467 12 c 128,-1,30
 470 16 470 16 472.5 20 c 128,-1,31
 475 24 475 24 476 26 c 2,32,-1
 477 28 l 1,33,-1
 380 174 l 1,34,35
 355 176 355 176 342 167 c 0,20,21
345 -1 m 1,36,-1
 380 -7 l 1,37,-1
 477 138 l 1,38,39
 467 161 467 161 456 169 c 0,40,41
 453 172 453 172 448 173.5 c 128,-1,42
 443 175 443 175 438.5 176 c 128,-1,43
 434 177 434 177 430 177 c 128,-1,44
 426 177 426 177 424 177 c 2,45,-1
 422 178 l 1,46,-1
 324 32 l 1,47,-1
 345 -1 l 1,36,-1
405 844 m 0,48,49
 401 844 401 844 395 843 c 128,-1,50
 389 842 389 842 384 839.5 c 128,-1,51
 379 837 379 837 374 834.5 c 128,-1,52
 369 832 369 832 364.5 829.5 c 128,-1,53
 360 827 360 827 357 824.5 c 128,-1,54
 354 822 354 822 352 821 c 128,-1,55
 350 820 350 820 350 820 c 1,56,-1
 350 278 l 1,57,58
 381 247 381 247 405 247 c 0,59,60
 412 247 412 247 420 250 c 128,-1,61
 428 253 428 253 434.5 257.5 c 128,-1,62
 441 262 441 262 446.5 266.5 c 128,-1,63
 452 271 452 271 455 274 c 2,64,-1
 459 278 l 1,65,-1
 459 820 l 1,66,67
 428 844 428 844 405 844 c 0,48,49
EndSplineSet
Validated: 37
Ligature2: "'liga' Standard Ligatures in Latin lookup 0 subtable" k i n
EndChar

StartChar: kipisi
Encoding: 57379 57379 38
Width: 850
GlyphClass: 3
Flags: W
LayerCount: 2
Fore
SplineSet
168 -16 m 0,0,1
 179 -22 179 -22 197.5 -22.5 c 128,-1,2
 216 -23 216 -23 229 -20 c 2,3,-1
 242 -17 l 1,4,-1
 694 765 l 1,5,6
 684 814 684 814 660 828 c 0,7,8
 646 834 646 834 630.5 833.5 c 128,-1,9
 615 833 615 833 602 829 c 2,10,-1
 590 825 l 1,11,-1
 138 43 l 1,12,13
 146 -3 146 -3 168 -16 c 0,0,1
129 675 m 128,-1,15
 129 681 129 681 133.5 685.5 c 128,-1,16
 138 690 138 690 144 690 c 0,17,18
 149 690 149 690 152.5 688 c 128,-1,19
 156 686 156 686 158 682.5 c 128,-1,20
 160 679 160 679 160 675 c 0,21,22
 160 669 160 669 155.5 664.5 c 128,-1,23
 151 660 151 660 144.5 660 c 128,-1,24
 138 660 138 660 133.5 664.5 c 128,-1,14
 129 669 129 669 129 675 c 128,-1,15
9 675 m 0,25,26
 9 638 9 638 27 607 c 128,-1,27
 45 576 45 576 76.5 557.5 c 128,-1,28
 108 539 108 539 144 539 c 0,29,30
 201 539 201 539 240.5 579 c 128,-1,31
 280 619 280 619 280 675 c 128,-1,32
 280 731 280 731 240.5 771 c 128,-1,33
 201 811 201 811 144.5 811 c 128,-1,34
 88 811 88 811 48.5 771 c 128,-1,35
 9 731 9 731 9 675 c 0,25,26
699 135.5 m 128,-1,37
 699 142 699 142 703.5 146.5 c 128,-1,38
 708 151 708 151 714 151 c 128,-1,39
 720 151 720 151 724.5 146.5 c 128,-1,40
 729 142 729 142 729 136 c 0,41,42
 729 131 729 131 727 127.5 c 128,-1,43
 725 124 725 124 721.5 122 c 128,-1,44
 718 120 718 120 714 120 c 0,45,46
 708 120 708 120 703.5 124.5 c 128,-1,36
 699 129 699 129 699 135.5 c 128,-1,37
578 135.5 m 128,-1,48
 578 79 578 79 618 39.5 c 128,-1,49
 658 0 658 0 714 0 c 128,-1,50
 770 0 770 0 810 39.5 c 128,-1,51
 850 79 850 79 850 135.5 c 128,-1,52
 850 192 850 192 810 231.5 c 128,-1,53
 770 271 770 271 714 271 c 128,-1,54
 658 271 658 271 618 231.5 c 128,-1,47
 578 192 578 192 578 135.5 c 128,-1,48
EndSplineSet
Validated: 9
Ligature2: "'liga' Standard Ligatures in Latin lookup 0 subtable" k i p i s i
EndChar

StartChar: kiwen
Encoding: 57380 57380 39
Width: 774
GlyphClass: 3
Flags: W
LayerCount: 2
Fore
SplineSet
288 818 m 1,0,-1
 269 818 l 1,1,-1
 255 804 l 1,2,-1
 23 572 l 1,3,-1
 -5 544 l 1,4,-1
 19 512 l 1,5,-1
 367 48 l 1,6,-1
 404 -1 l 1,7,-1
 441 48 l 1,8,-1
 788 512 l 1,9,-1
 813 544 l 1,10,-1
 784 572 l 1,11,-1
 552 804 l 1,12,-1
 539 818 l 1,13,-1
 520 818 l 1,14,-1
 288 818 l 1,0,-1
307 725 m 1,15,-1
 500 725 l 1,16,-1
 690 535 l 1,17,-1
 404 153 l 1,18,-1
 117 535 l 1,19,-1
 307 725 l 1,15,-1
EndSplineSet
Validated: 9
Ligature2: "'liga' Standard Ligatures in Latin lookup 0 subtable" k i w e n
EndChar

StartChar: ko
Encoding: 57381 57381 40
Width: 850
GlyphClass: 3
Flags: W
LayerCount: 2
Fore
SplineSet
171 840 m 0,0,1
 159 840 159 840 148 837.5 c 128,-1,2
 137 835 137 835 127 830.5 c 128,-1,3
 117 826 117 826 107.5 820 c 128,-1,4
 98 814 98 814 90.5 807 c 128,-1,5
 83 800 83 800 77 792 c 128,-1,6
 71 784 71 784 66 775 c 0,7,8
 46 734 46 734 46 669 c 0,9,10
 46 640 46 640 49.5 611.5 c 128,-1,11
 53 583 53 583 57 559 c 1,12,13
 45 542 45 542 36 523 c 0,14,15
 0 452 0 452 0 364 c 0,16,17
 0 302 0 302 43 259 c 0,18,19
 75 228 75 228 125 211 c 0,20,21
 159 200 159 200 198 195 c 1,22,23
 215 156 215 156 237 123 c 0,24,25
 313 10 313 10 415 10 c 128,-1,26
 517 10 517 10 593 123 c 0,27,28
 615 156 615 156 632 195 c 1,29,30
 671 200 671 200 705 211 c 0,31,32
 756 228 756 228 787 259 c 0,33,34
 830 302 830 302 830 364 c 0,35,36
 830 452 830 452 794 523 c 0,37,38
 785 542 785 542 773 559 c 1,39,40
 784 618 784 618 784 669 c 0,41,42
 784 699 784 699 780 725 c 128,-1,43
 776 751 776 751 764 775 c 0,44,45
 750 802 750 802 721.5 821 c 128,-1,46
 693 840 693 840 659 840 c 0,47,48
 591 840 591 840 527 822.5 c 128,-1,49
 463 805 463 805 415 784 c 1,50,51
 387 796 387 796 355.5 807 c 128,-1,52
 324 818 324 818 271.5 829 c 128,-1,53
 219 840 219 840 171 840 c 0,0,1
171 742 m 0,54,55
 218 742 218 742 273.5 728 c 128,-1,56
 329 714 329 714 361 700 c 2,57,-1
 393 686 l 2,58,59
 397 684 397 684 403.5 682.5 c 128,-1,60
 410 681 410 681 415 681 c 0,61,62
 427 681 427 681 437 686 c 0,63,64
 450 693 450 693 472 702 c 128,-1,65
 494 711 494 711 553 726.5 c 128,-1,66
 612 742 612 742 659 742 c 0,67,68
 669 742 669 742 670.5 741 c 128,-1,69
 672 740 672 740 676 731 c 0,70,71
 679 726 679 726 681.5 716.5 c 128,-1,72
 684 707 684 707 685.5 694.5 c 128,-1,73
 687 682 687 682 687 669 c 0,74,75
 687 654 687 654 685.5 637.5 c 128,-1,76
 684 621 684 621 682 607.5 c 128,-1,77
 680 594 680 594 678 582.5 c 128,-1,78
 676 571 676 571 674 565 c 2,79,-1
 673 559 l 2,80,81
 672 556 672 556 671.5 553 c 128,-1,82
 671 550 671 550 671 547 c 0,83,84
 671 539 671 539 675.5 528.5 c 128,-1,85
 680 518 680 518 686 513 c 0,86,87
 695 504 695 504 707 479 c 0,88,89
 714 466 714 466 719 450.5 c 128,-1,90
 724 435 724 435 728 412 c 128,-1,91
 732 389 732 389 732 364 c 0,92,93
 732 342 732 342 718 328 c 0,94,95
 703 313 703 313 674 303 c 0,96,97
 658 298 658 298 639 295 c 128,-1,98
 620 292 620 292 609 291 c 2,99,-1
 598 291 l 2,100,101
 584 291 584 291 570 281 c 128,-1,102
 556 271 556 271 552 257 c 0,103,104
 538 217 538 217 512 177 c 0,105,106
 490 146 490 146 465.5 127 c 128,-1,107
 441 108 441 108 415 108 c 0,108,109
 365 108 365 108 318 177 c 0,110,111
 292 217 292 217 278 257 c 0,112,113
 275 266 275 266 268 274 c 128,-1,114
 261 282 261 282 251 286.5 c 128,-1,115
 241 291 241 291 232 291 c 0,116,117
 192 291 192 291 156 303 c 0,118,119
 127 313 127 313 112 328 c 0,120,121
 108 332 108 332 105.5 335 c 128,-1,122
 103 338 103 338 101 342.5 c 128,-1,123
 99 347 99 347 98.5 352 c 128,-1,124
 98 357 98 357 98 364 c 0,125,126
 98 429 98 429 123 479 c 0,127,128
 125 483 125 483 127 487 c 128,-1,129
 129 491 129 491 130.5 493.5 c 128,-1,130
 132 496 132 496 134 499 c 128,-1,131
 136 502 136 502 137 503.5 c 128,-1,132
 138 505 138 505 139.5 506.5 c 128,-1,133
 141 508 141 508 141.5 509 c 128,-1,134
 142 510 142 510 143 511 c 128,-1,135
 144 512 144 512 144 512 c 1,136,-1
 144 513 l 1,137,138
 159 527 159 527 159 547 c 0,139,140
 159 553 159 553 157 559 c 0,141,142
 156 565 156 565 153.5 576 c 128,-1,143
 151 587 151 587 147 616.5 c 128,-1,144
 143 646 143 646 143 669 c 0,145,146
 143 711 143 711 154 731 c 0,147,148
 154 733 154 733 156 735 c 0,149,150
 158 741 158 741 160 741.5 c 128,-1,151
 162 742 162 742 171 742 c 0,54,55
EndSplineSet
Validated: 9
Ligature2: "'liga' Standard Ligatures in Latin lookup 0 subtable" k o
EndChar

StartChar: kokosila
Encoding: 57382 57382 41
Width: 850
GlyphClass: 3
Flags: W
LayerCount: 2
Fore
SplineSet
67 804 m 0,0,1
 64 802 64 802 61 797.5 c 128,-1,2
 58 793 58 793 56 788.5 c 128,-1,3
 54 784 54 784 52 779 c 128,-1,4
 50 774 50 774 49 769.5 c 128,-1,5
 48 765 48 765 47.5 761.5 c 128,-1,6
 47 758 47 758 47 756 c 2,7,-1
 47 754 l 1,8,-1
 111 664 l 1,9,10
 152 660 152 660 171 673 c 0,11,12
 176 677 176 677 180 683.5 c 128,-1,13
 184 690 184 690 186.5 696.5 c 128,-1,14
 189 703 189 703 191 709.5 c 128,-1,15
 193 716 193 716 193 720 c 2,16,-1
 194 724 l 1,17,-1
 130 813 l 1,18,19
 88 819 88 819 67 804 c 0,0,1
411 848 m 0,20,21
 404 848 404 848 396 845.5 c 128,-1,22
 388 843 388 843 381.5 839 c 128,-1,23
 375 835 375 835 369 831 c 128,-1,24
 363 827 363 827 360 825 c 2,25,-1
 357 822 l 1,26,-1
 357 732 l 1,27,28
 386 704 386 704 409 704 c 0,29,30
 419 704 419 704 431.5 711 c 128,-1,31
 444 718 444 718 452 725 c 2,32,-1
 459 732 l 1,33,-1
 459 822 l 1,34,35
 432 848 432 848 411 848 c 0,20,21
747 811 m 0,36,37
 739 817 739 817 723.5 817.5 c 128,-1,38
 708 818 708 818 697 816 c 2,39,-1
 687 813 l 1,40,-1
 623 724 l 1,41,42
 626 677 626 677 647 661 c 0,43,44
 652 658 652 658 660 656.5 c 128,-1,45
 668 655 668 655 676 656.5 c 128,-1,46
 684 658 684 658 690.5 659.5 c 128,-1,47
 697 661 697 661 702 662 c 2,48,-1
 706 664 l 1,49,-1
 770 754 l 1,50,51
 767 797 767 797 747 811 c 0,36,37
178 335 m 0,52,53
 178 346 178 346 181 362 c 128,-1,54
 184 378 184 378 188 395 c 128,-1,55
 192 412 192 412 198 427 c 128,-1,56
 204 442 204 442 209 451 c 0,57,58
 215 463 215 463 230.5 480 c 128,-1,59
 246 497 246 497 263.5 512.5 c 128,-1,60
 281 528 281 528 293 535 c 0,61,62
 310 545 310 545 348.5 555.5 c 128,-1,63
 387 566 387 566 408.5 566 c 128,-1,64
 430 566 430 566 468 555.5 c 128,-1,65
 506 545 506 545 524 535 c 0,66,67
 542 524 542 524 569.5 496.5 c 128,-1,68
 597 469 597 469 607.5 451 c 128,-1,69
 618 433 618 433 628.5 395 c 128,-1,70
 639 357 639 357 639 335.5 c 128,-1,71
 639 314 639 314 628.5 276 c 128,-1,72
 618 238 618 238 607.5 220 c 128,-1,73
 597 202 597 202 569.5 174 c 128,-1,74
 542 146 542 146 524 136 c 0,75,76
 512 129 512 129 490 122 c 128,-1,77
 468 115 468 115 445 110 c 128,-1,78
 422 105 422 105 408 105 c 128,-1,79
 394 105 394 105 371 110 c 128,-1,80
 348 115 348 115 326 122 c 128,-1,81
 304 129 304 129 292.5 136 c 128,-1,82
 281 143 281 143 263.5 158.5 c 128,-1,83
 246 174 246 174 230.5 191 c 128,-1,84
 215 208 215 208 209 220 c 0,85,86
 198 238 198 238 188 276 c 128,-1,87
 178 314 178 314 178 335 c 0,52,53
75 335.5 m 128,-1,89
 75 306 75 306 90 250 c 128,-1,90
 105 194 105 194 120 168 c 0,91,92
 135 143 135 143 175.5 102.5 c 128,-1,93
 216 62 216 62 241 47 c 128,-1,94
 266 32 266 32 322 17.5 c 128,-1,95
 378 3 378 3 408 3 c 128,-1,96
 438 3 438 3 494 17.5 c 128,-1,97
 550 32 550 32 575.5 47 c 128,-1,98
 601 62 601 62 641.5 102.5 c 128,-1,99
 682 143 682 143 696.5 168.5 c 128,-1,100
 711 194 711 194 726 250 c 128,-1,101
 741 306 741 306 741 335.5 c 128,-1,102
 741 365 741 365 726 421 c 128,-1,103
 711 477 711 477 696.5 502.5 c 128,-1,104
 682 528 682 528 641.5 568.5 c 128,-1,105
 601 609 601 609 575 624 c 0,106,107
 559 633 559 633 526.5 643.5 c 128,-1,108
 494 654 494 654 460.5 661 c 128,-1,109
 427 668 427 668 408 668 c 0,110,111
 378 668 378 668 322 653 c 128,-1,112
 266 638 266 638 241 623.5 c 128,-1,113
 216 609 216 609 175.5 568.5 c 128,-1,114
 135 528 135 528 120 503 c 0,115,116
 105 477 105 477 90 421 c 128,-1,88
 75 365 75 365 75 335.5 c 128,-1,89
13 39 m 0,117,118
 16 34 16 34 22.5 30 c 128,-1,119
 29 26 29 26 35 23.5 c 128,-1,120
 41 21 41 21 47 19.5 c 128,-1,121
 53 18 53 18 57 17 c 2,122,-1
 61 17 l 1,123,-1
 817 557 l 1,124,125
 830 602 830 602 815 622 c 0,126,127
 809 631 809 631 795 635.5 c 128,-1,128
 781 640 781 640 769 640 c 2,129,-1
 758 640 l 1,130,-1
 1 100 l 1,131,132
 -1 59 -1 59 13 39 c 0,117,118
EndSplineSet
Validated: 37
Ligature2: "'liga' Standard Ligatures in Latin lookup 0 subtable" k o k o s i l a
EndChar

StartChar: kon
Encoding: 57383 57383 42
Width: 850
GlyphClass: 3
Flags: W
LayerCount: 2
Fore
SplineSet
244 840 m 0,0,1
 233 840 233 840 222 834 c 0,2,3
 183 815 183 815 155.5 779.5 c 128,-1,4
 128 744 128 744 114 699.5 c 128,-1,5
 100 655 100 655 100 607 c 0,6,7
 100 532 100 532 132.5 470.5 c 128,-1,8
 165 409 165 409 223 381 c 0,9,10
 232 377 232 377 240.5 369.5 c 128,-1,11
 249 362 249 362 256.5 352.5 c 128,-1,12
 264 343 264 343 270.5 331 c 128,-1,13
 277 319 277 319 281.5 305 c 128,-1,14
 286 291 286 291 288.5 275.5 c 128,-1,15
 291 260 291 260 291 243 c 0,16,17
 291 195 291 195 270.5 156 c 128,-1,18
 250 117 250 117 222 103 c 0,19,20
 218 101 218 101 214.5 98 c 128,-1,21
 211 95 211 95 208 91.5 c 128,-1,22
 205 88 205 88 202.5 84 c 128,-1,23
 200 80 200 80 198.5 76 c 128,-1,24
 197 72 197 72 196 67.5 c 128,-1,25
 195 63 195 63 195 59 c 0,26,27
 195 46 195 46 201.5 34.5 c 128,-1,28
 208 23 208 23 219 16.5 c 128,-1,29
 230 10 230 10 244 10 c 0,30,31
 256 10 256 10 266 16 c 0,32,33
 324 45 324 45 356.5 107 c 128,-1,34
 389 169 389 169 389 243 c 0,35,36
 389 292 389 292 375 336 c 128,-1,37
 361 380 361 380 332.5 415 c 128,-1,38
 304 450 304 450 265 469 c 0,39,40
 238 482 238 482 218 520.5 c 128,-1,41
 198 559 198 559 198 607 c 128,-1,42
 198 655 198 655 218 694 c 128,-1,43
 238 733 238 733 266 747 c 0,44,45
 272 750 272 750 277 755 c 128,-1,46
 282 760 282 760 285.5 766 c 128,-1,47
 289 772 289 772 291.5 778.5 c 128,-1,48
 294 785 294 785 294 791 c 0,49,50
 294 811 294 811 279.5 825.5 c 128,-1,51
 265 840 265 840 245 840 c 2,52,53
 245 840 245 840 244 840 c 0,0,1
610 840 m 0,54,55
 598 840 598 840 588 834 c 0,56,57
 530 805 530 805 498 743 c 128,-1,58
 466 681 466 681 466 607 c 0,59,60
 466 570 466 570 474 536 c 128,-1,61
 482 502 482 502 497.5 472 c 128,-1,62
 513 442 513 442 536.5 418.5 c 128,-1,63
 560 395 560 395 589 381 c 0,64,65
 595 378 595 378 600.5 374 c 128,-1,66
 606 370 606 370 611.5 364.5 c 128,-1,67
 617 359 617 359 622 352.5 c 128,-1,68
 627 346 627 346 631.5 338.5 c 128,-1,69
 636 331 636 331 640 322.5 c 128,-1,70
 644 314 644 314 647 304.5 c 128,-1,71
 650 295 650 295 652.5 285.5 c 128,-1,72
 655 276 655 276 656 265 c 128,-1,73
 657 254 657 254 657 243 c 0,74,75
 657 219 657 219 651 196 c 128,-1,76
 645 173 645 173 635.5 155 c 128,-1,77
 626 137 626 137 614 123 c 128,-1,78
 602 109 602 109 588 103 c 0,79,80
 577 97 577 97 569 84 c 128,-1,81
 561 71 561 71 561 59 c 0,82,83
 561 27 561 27 589 14 c 0,84,85
 600 10 600 10 610 10 c 0,86,87
 622 10 622 10 632 16 c 0,88,89
 690 45 690 45 722 107 c 128,-1,90
 754 169 754 169 754 243 c 0,91,92
 754 268 754 268 750.5 291 c 128,-1,93
 747 314 747 314 740 336 c 128,-1,94
 733 358 733 358 722.5 378 c 128,-1,95
 712 398 712 398 698.5 415 c 128,-1,96
 685 432 685 432 668 446 c 128,-1,97
 651 460 651 460 631 469 c 0,98,99
 590 489 590 489 572 550 c 0,100,101
 564 578 564 578 563 607 c 0,102,103
 563 631 563 631 569 654 c 128,-1,104
 575 677 575 677 584.5 695 c 128,-1,105
 594 713 594 713 606.5 727 c 128,-1,106
 619 741 619 741 632 747 c 0,107,108
 644 753 644 753 652 766 c 128,-1,109
 660 779 660 779 660 791 c 0,110,111
 660 811 660 811 645.5 825.5 c 128,-1,112
 631 840 631 840 611 840 c 2,113,114
 611 840 611 840 610 840 c 0,54,55
EndSplineSet
Validated: 9
Ligature2: "'liga' Standard Ligatures in Latin lookup 0 subtable" k o n
EndChar

StartChar: ku
Encoding: 57384 57384 43
Width: 850
GlyphClass: 3
Flags: W
LayerCount: 2
Fore
SplineSet
98 97 m 1,0,-1
 98 730 l 1,1,-1
 730 730 l 1,2,-1
 730 97 l 1,3,-1
 98 97 l 1,0,-1
49 0 m 1,4,-1
 779 0 l 1,5,6
 807 4 807 4 819 16 c 0,7,8
 823 20 823 20 825.5 28.5 c 128,-1,9
 828 37 828 37 827 43 c 2,10,-1
 827 49 l 1,11,-1
 827 778 l 2,12,13
 825 801 825 801 814 812 c 0,14,15
 809 817 809 817 800 821 c 128,-1,16
 791 825 791 825 785 826 c 2,17,-1
 779 827 l 1,18,-1
 49 827 l 2,19,20
 20 828 20 828 8 816 c 0,21,22
 4 812 4 812 2 802.5 c 128,-1,23
 0 793 0 793 0 785 c 2,24,-1
 0 778 l 1,25,-1
 0 49 l 2,26,27
 2 23 2 23 12 13 c 0,28,29
 17 8 17 8 26 5 c 128,-1,30
 35 2 35 2 42 1 c 2,31,-1
 49 0 l 1,4,-1
805 789 m 1,32,-1
 761 823 l 1,33,-1
 226 611 l 2,34,35
 206 600 206 600 200 587 c 0,36,37
 197 581 197 581 196.5 572 c 128,-1,38
 196 563 196 563 197 557 c 2,39,-1
 198 551 l 1,40,-1
 359 37 l 1,41,-1
 405 52 l 1,42,-1
 452 67 l 1,43,-1
 304 537 l 1,44,-1
 797 733 l 1,45,-1
 805 789 l 1,32,-1
244 565 m 1,46,-1
 229 519 l 1,47,-1
 755 344 l 1,48,-1
 770 391 l 1,49,-1
 785 437 l 1,50,-1
 260 611 l 1,51,-1
 244 565 l 1,46,-1
546 247 m 128,-1,53
 546 252 546 252 549.5 255.5 c 128,-1,54
 553 259 553 259 558 259 c 0,55,56
 561 259 561 259 564 257.5 c 128,-1,57
 567 256 567 256 568.5 253 c 128,-1,58
 570 250 570 250 570 247 c 0,59,60
 570 242 570 242 566.5 238.5 c 128,-1,61
 563 235 563 235 558 235 c 128,-1,62
 553 235 553 235 549.5 238.5 c 128,-1,52
 546 242 546 242 546 247 c 128,-1,53
448 246.5 m 128,-1,64
 448 201 448 201 480.5 169 c 128,-1,65
 513 137 513 137 558 137 c 128,-1,66
 603 137 603 137 635 169 c 128,-1,67
 667 201 667 201 667 247 c 0,68,69
 667 269 667 269 658.5 289.5 c 128,-1,70
 650 310 650 310 635.5 324.5 c 128,-1,71
 621 339 621 339 600.5 347.5 c 128,-1,72
 580 356 580 356 558 356 c 0,73,74
 513 356 513 356 480.5 324 c 128,-1,63
 448 292 448 292 448 246.5 c 128,-1,64
EndSplineSet
Validated: 37
Ligature2: "'liga' Standard Ligatures in Latin lookup 0 subtable" k u
EndChar

StartChar: kule
Encoding: 57385 57385 44
Width: 850
GlyphClass: 3
Flags: W
LayerCount: 2
Fore
SplineSet
415 839 m 0,0,1
 403 839 403 839 390 831 c 128,-1,2
 377 823 377 823 371 812 c 2,3,-1
 202 473 l 1,4,-1
 49 473 l 2,5,6
 29 473 29 473 14.5 459 c 128,-1,7
 0 445 0 445 0 424.5 c 128,-1,8
 0 404 0 404 14.5 390 c 128,-1,9
 29 376 29 376 49 376 c 2,10,-1
 153 376 l 1,11,-1
 6 81 l 2,12,13
 1 70 1 70 1 59 c 0,14,15
 1 46 1 46 7.5 34.5 c 128,-1,16
 14 23 14 23 25 16.5 c 128,-1,17
 36 10 36 10 49 10 c 2,18,-1
 781 10 l 2,19,20
 801 10 801 10 815 24.5 c 128,-1,21
 829 39 829 39 829 59 c 0,22,23
 829 70 829 70 824 81 c 2,24,-1
 677 376 l 1,25,-1
 781 376 l 2,26,27
 801 376 801 376 815.5 390 c 128,-1,28
 830 404 830 404 830 424.5 c 128,-1,29
 830 445 830 445 815.5 459 c 128,-1,30
 801 473 801 473 781 473 c 2,31,-1
 628 473 l 1,32,-1
 459 812 l 2,33,34
 455 819 455 819 448 825 c 128,-1,35
 441 831 441 831 432 835 c 128,-1,36
 423 839 423 839 415 839 c 0,0,1
415 681 m 1,37,-1
 519 473 l 1,38,-1
 311 473 l 1,39,-1
 415 681 l 1,37,-1
262 376 m 1,40,-1
 568 376 l 1,41,-1
 702 107 l 1,42,-1
 128 107 l 1,43,-1
 262 376 l 1,40,-1
EndSplineSet
Validated: 9
Ligature2: "'liga' Standard Ligatures in Latin lookup 0 subtable" k u l e
EndChar

StartChar: kulupu
Encoding: 57386 57386 45
Width: 850
GlyphClass: 3
Flags: W
LayerCount: 2
Fore
SplineSet
415 840 m 128,-1,1
 335 840 335 840 277.5 782.5 c 128,-1,2
 220 725 220 725 220 644.5 c 128,-1,3
 220 564 220 564 277.5 506.5 c 128,-1,4
 335 449 335 449 415 449 c 128,-1,5
 495 449 495 449 552.5 506.5 c 128,-1,6
 610 564 610 564 610 644.5 c 128,-1,7
 610 725 610 725 552.5 782.5 c 128,-1,0
 495 840 495 840 415 840 c 128,-1,1
415 742 m 0,8,9
 456 742 456 742 484.5 714 c 128,-1,10
 513 686 513 686 513 645 c 128,-1,11
 513 604 513 604 484.5 575.5 c 128,-1,12
 456 547 456 547 415 547 c 128,-1,13
 374 547 374 547 345.5 575.5 c 128,-1,14
 317 604 317 604 317 645 c 0,15,16
 317 665 317 665 325 683 c 128,-1,17
 333 701 333 701 346 714 c 128,-1,18
 359 727 359 727 377 734.5 c 128,-1,19
 395 742 395 742 415 742 c 0,8,9
195.5 401 m 128,-1,21
 115 401 115 401 57.5 343.5 c 128,-1,22
 0 286 0 286 0 205.5 c 128,-1,23
 0 125 0 125 57.5 67.5 c 128,-1,24
 115 10 115 10 195.5 10 c 128,-1,25
 276 10 276 10 333.5 67.5 c 128,-1,26
 391 125 391 125 391 205.5 c 128,-1,27
 391 286 391 286 333.5 343.5 c 128,-1,20
 276 401 276 401 195.5 401 c 128,-1,21
634.5 401 m 128,-1,29
 554 401 554 401 496.5 343.5 c 128,-1,30
 439 286 439 286 439 205.5 c 128,-1,31
 439 125 439 125 496.5 67.5 c 128,-1,32
 554 10 554 10 634.5 10 c 128,-1,33
 715 10 715 10 772.5 67.5 c 128,-1,34
 830 125 830 125 830 205.5 c 128,-1,35
 830 286 830 286 772.5 343.5 c 128,-1,28
 715 401 715 401 634.5 401 c 128,-1,29
195 303 m 0,36,37
 211 303 211 303 226 298 c 128,-1,38
 241 293 241 293 253 284 c 128,-1,39
 265 275 265 275 274 263 c 128,-1,40
 283 251 283 251 288 236 c 128,-1,41
 293 221 293 221 293 205 c 0,42,43
 293 164 293 164 264.5 136 c 128,-1,44
 236 108 236 108 195 108 c 128,-1,45
 154 108 154 108 126 136 c 128,-1,46
 98 164 98 164 98 205 c 0,47,48
 98 219 98 219 101.5 231.5 c 128,-1,49
 105 244 105 244 111 255 c 128,-1,50
 117 266 117 266 126 275 c 128,-1,51
 135 284 135 284 145.5 290 c 128,-1,52
 156 296 156 296 169 299.5 c 128,-1,53
 182 303 182 303 195 303 c 0,36,37
635 303 m 0,54,55
 676 303 676 303 704 274.5 c 128,-1,56
 732 246 732 246 732 205 c 128,-1,57
 732 164 732 164 704 136 c 128,-1,58
 676 108 676 108 635 108 c 128,-1,59
 594 108 594 108 565.5 136 c 128,-1,60
 537 164 537 164 537 205 c 0,61,62
 537 221 537 221 542 236 c 128,-1,63
 547 251 547 251 556 263 c 128,-1,64
 565 275 565 275 577 284 c 128,-1,65
 589 293 589 293 604 298 c 128,-1,66
 619 303 619 303 635 303 c 0,54,55
EndSplineSet
Validated: 9
Ligature2: "'liga' Standard Ligatures in Latin lookup 0 subtable" k u l u p u
EndChar

StartChar: kute
Encoding: 57387 57387 46
Width: 850
GlyphClass: 3
Flags: W
LayerCount: 2
Fore
SplineSet
410 840 m 0,0,1
 330 840 330 840 256.5 819.5 c 128,-1,2
 183 799 183 799 125 760 c 0,3,4
 65 720 65 720 32 664 c 128,-1,5
 -1 608 -1 608 0 546 c 0,6,7
 0 533 0 533 6.5 522 c 128,-1,8
 13 511 13 511 24.5 504.5 c 128,-1,9
 36 498 36 498 49 498 c 128,-1,10
 62 498 62 498 73.5 504.5 c 128,-1,11
 85 511 85 511 91.5 522 c 128,-1,12
 98 533 98 533 98 546 c 0,13,14
 98 547 98 547 98 548 c 0,15,16
 97 583 97 583 117.5 617 c 128,-1,17
 138 651 138 651 180 679 c 0,18,19
 273 742 273 742 410 742 c 256,20,21
 547 742 547 742 643 679 c 0,22,23
 687 650 687 650 709 616 c 128,-1,24
 731 582 731 582 732 546 c 0,25,26
 732 459 732 459 698.5 378.5 c 128,-1,27
 665 298 665 298 603.5 236.5 c 128,-1,28
 542 175 542 175 461 141.5 c 128,-1,29
 380 108 380 108 293 108 c 0,30,31
 292 108 292 108 292 108 c 2,32,33
 284 108 284 108 276.5 105.5 c 128,-1,34
 269 103 269 103 263 98.5 c 128,-1,35
 257 94 257 94 252.5 88 c 128,-1,36
 248 82 248 82 245.5 74.5 c 128,-1,37
 243 67 243 67 243 59 c 0,38,39
 243 46 243 46 249.5 34.5 c 128,-1,40
 256 23 256 23 267.5 16.5 c 128,-1,41
 279 10 279 10 292 10 c 0,42,43
 293 10 293 10 293 10 c 2,44,45
 400 10 400 10 498.5 51 c 128,-1,46
 597 92 597 92 672.5 167.5 c 128,-1,47
 748 243 748 243 789 341.5 c 128,-1,48
 830 440 830 440 830 547 c 0,49,50
 830 548 830 548 830 548 c 2,51,52
 829 589 829 589 812.5 628.5 c 128,-1,53
 796 668 796 668 766.5 701 c 128,-1,54
 737 734 737 734 697 761 c 0,55,56
 576 840 576 840 410 840 c 0,0,1
416 597 m 2,57,-1
 415 597 l 2,58,59
 400 597 400 597 386.5 587 c 128,-1,60
 373 577 373 577 369 562 c 2,61,-1
 308 379 l 2,62,63
 305 372 305 372 305 363 c 0,64,65
 305 343 305 343 319.5 328.5 c 128,-1,66
 334 314 334 314 354 314 c 0,67,68
 360 314 360 314 366 316 c 128,-1,69
 372 318 372 318 377 321 c 128,-1,70
 382 324 382 324 387 328.5 c 128,-1,71
 392 333 392 333 395.5 338 c 128,-1,72
 399 343 399 343 400 349 c 2,73,-1
 461 532 l 2,74,75
 462 534 462 534 462.5 537 c 128,-1,76
 463 540 463 540 463.5 542.5 c 128,-1,77
 464 545 464 545 464 548 c 0,78,79
 464 568 464 568 450 582 c 128,-1,80
 436 596 436 596 416 597 c 2,57,-1
EndSplineSet
Validated: 41
Ligature2: "'liga' Standard Ligatures in Latin lookup 0 subtable" k u t e
EndChar

StartChar: la
Encoding: 57388 57388 47
Width: 708
GlyphClass: 3
Flags: W
LayerCount: 2
Fore
SplineSet
50 840 m 2,0,1
 50 840 50 840 49 840 c 0,2,3
 17 840 17 840 4 811 c 0,4,5
 0 801 0 801 0 791 c 0,6,7
 0 771 0 771 14 756.5 c 128,-1,8
 28 742 28 742 49 742 c 0,9,10
 162 740 162 740 267 712 c 128,-1,11
 372 684 372 684 450 636 c 0,12,13
 500 605 500 605 535 568 c 128,-1,14
 570 531 570 531 586 493.5 c 128,-1,15
 602 456 602 456 602 418 c 0,16,17
 602 396 602 396 596.5 373.5 c 128,-1,18
 591 351 591 351 578.5 328.5 c 128,-1,19
 566 306 566 306 548 285 c 128,-1,20
 530 264 530 264 505.5 243.5 c 128,-1,21
 481 223 481 223 450 205 c 0,22,23
 373 159 373 159 268 133 c 128,-1,24
 163 107 163 107 50 108 c 0,25,26
 49 108 49 108 49 108 c 2,27,28
 17 108 17 108 4 79 c 0,29,30
 0 69 0 69 0 59 c 0,31,32
 0 39 0 39 14.5 24.5 c 128,-1,33
 29 10 29 10 49 10 c 0,34,35
 133 10 133 10 213.5 22.5 c 128,-1,36
 294 35 294 35 367 60 c 128,-1,37
 440 85 440 85 501 121 c 0,38,39
 524 135 524 135 544.5 150 c 128,-1,40
 565 165 565 165 583.5 181.5 c 128,-1,41
 602 198 602 198 617.5 216 c 128,-1,42
 633 234 633 234 646 253 c 128,-1,43
 659 272 659 272 669 292 c 128,-1,44
 679 312 679 312 686 332.5 c 128,-1,45
 693 353 693 353 696.5 374.5 c 128,-1,46
 700 396 700 396 700 418 c 0,47,48
 700 436 700 436 698 453.5 c 128,-1,49
 696 471 696 471 691.5 487.5 c 128,-1,50
 687 504 687 504 680.5 520.5 c 128,-1,51
 674 537 674 537 665.5 553 c 128,-1,52
 657 569 657 569 646.5 584.5 c 128,-1,53
 636 600 636 600 624 614.5 c 128,-1,54
 612 629 612 629 598 643 c 128,-1,55
 584 657 584 657 568.5 670 c 128,-1,56
 553 683 553 683 536.5 695.5 c 128,-1,57
 520 708 520 708 501 719 c 0,58,59
 410 775 410 775 293.5 806 c 128,-1,60
 177 837 177 837 50 840 c 2,0,1
EndSplineSet
Validated: 41
Ligature2: "'liga' Standard Ligatures in Latin lookup 0 subtable" l a
EndChar

StartChar: lanpan
Encoding: 57389 57389 48
Width: 850
GlyphClass: 3
Flags: W
LayerCount: 2
Fore
SplineSet
670 -16 m 0,0,1
 666 -10 666 -10 664 -1.5 c 128,-1,2
 662 7 662 7 661.5 15 c 128,-1,3
 661 23 661 23 661.5 30.5 c 128,-1,4
 662 38 662 38 663 43 c 2,5,-1
 663 47 l 1,6,7
 730 100 730 100 730 186 c 0,8,9
 730 260 730 260 677.5 312.5 c 128,-1,10
 625 365 625 365 552 365 c 0,11,12
 491 365 491 365 453.5 328.5 c 128,-1,13
 416 292 416 292 395 203 c 0,14,15
 387 167 387 167 378 140 c 0,16,17
 367 111 367 111 349 80 c 0,18,19
 327 42 327 42 291 20 c 0,20,21
 254 -2 254 -2 207 -2 c 0,22,23
 121 -2 121 -2 60 59 c 0,24,25
 0 120 0 120 -3 205 c 2,26,-1
 -3 206 l 1,27,-1
 -3 208 l 2,28,29
 -2 258 -2 258 12 297 c 0,30,31
 27 340 27 340 61 373 c 0,32,33
 90 400 90 400 114 414 c 0,34,35
 135 428 135 428 175 449 c 0,36,37
 213 469 213 469 232 482 c 0,38,39
 249 492 249 492 275 516 c 0,40,41
 295 534 295 534 304 558 c 0,42,43
 314 586 314 586 314 624 c 0,44,45
 314 668 314 668 282.5 699.5 c 128,-1,46
 251 731 251 731 207.5 731 c 128,-1,47
 164 731 164 731 132.5 699.5 c 128,-1,48
 101 668 101 668 101 624 c 0,49,50
 101 592 101 592 111 570 c 1,51,52
 94 535 94 535 73 526 c 0,53,54
 64 522 64 522 49 521.5 c 128,-1,55
 34 521 34 521 24 523 c 2,56,-1
 14 526 l 1,57,58
 -6 569 -6 569 -6 624 c 0,59,60
 -6 713 -6 713 56.5 775.5 c 128,-1,61
 119 838 119 838 207.5 838 c 128,-1,62
 296 838 296 838 358.5 775.5 c 128,-1,63
 421 713 421 713 421 624 c 0,64,65
 421 567 421 567 405 521 c 0,66,67
 387 472 387 472 348 437 c 0,68,69
 315 407 315 407 290 391 c 0,70,71
 268 376 268 376 225 354 c 0,72,73
 189 335 189 335 171 324 c 0,74,75
 156 314 156 314 135 294 c 0,76,77
 120 280 120 280 113 262 c 0,78,79
 106 239 106 239 105 207 c 0,80,81
 106 165 106 165 136 135 c 0,82,83
 166 106 166 106 207 106 c 0,84,85
 225 106 225 106 236 113 c 0,86,87
 248 120 248 120 256 134 c 0,88,89
 269 157 269 157 276 176 c 0,90,91
 284 197 284 197 290 227 c 0,92,93
 317 342 317 342 384 407 c 128,-1,94
 451 472 451 472 552 472 c 0,95,96
 670 472 670 472 754 388.5 c 128,-1,97
 838 305 838 305 838 186 c 0,98,99
 838 48 838 48 730 -37 c 1,100,101
 685 -35 685 -35 670 -16 c 0,0,1
541 189 m 128,-1,103
 541 195 541 195 545 198.5 c 128,-1,104
 549 202 549 202 554.5 202 c 128,-1,105
 560 202 560 202 564 198.5 c 128,-1,106
 568 195 568 195 568 189 c 0,107,108
 568 186 568 186 567 183.5 c 128,-1,109
 566 181 566 181 564 179.5 c 128,-1,110
 562 178 562 178 559.5 177 c 128,-1,111
 557 176 557 176 554 176 c 0,112,113
 549 176 549 176 545 179.5 c 128,-1,102
 541 183 541 183 541 189 c 128,-1,103
433 189 m 128,-1,115
 433 139 433 139 468.5 103.5 c 128,-1,116
 504 68 504 68 554 68 c 128,-1,117
 604 68 604 68 639.5 103.5 c 128,-1,118
 675 139 675 139 675 189 c 128,-1,119
 675 239 675 239 639.5 274.5 c 128,-1,120
 604 310 604 310 554 310 c 128,-1,121
 504 310 504 310 468.5 274.5 c 128,-1,114
 433 239 433 239 433 189 c 128,-1,115
EndSplineSet
Validated: 9
Ligature2: "'liga' Standard Ligatures in Latin lookup 0 subtable" l a n p a n
EndChar

StartChar: lape
Encoding: 57390 57390 49
Width: 850
GlyphClass: 3
Flags: W
LayerCount: 2
Fore
SplineSet
635 600 m 0,0,1
 568 600 568 600 515.5 559 c 128,-1,2
 463 518 463 518 446 454 c 1,3,-1
 49 454 l 2,4,5
 17 454 17 454 4 425 c 0,6,7
 0 415 0 415 0 405 c 0,8,9
 0 385 0 385 14.5 370.5 c 128,-1,10
 29 356 29 356 49 356 c 1,11,12
 49 356 49 356 49 356 c 1,13,-1
 446 356 l 1,14,15
 457 315 457 315 484 281.5 c 128,-1,16
 511 248 511 248 550.5 229 c 128,-1,17
 590 210 590 210 635 210 c 0,18,19
 715 210 715 210 772.5 267.5 c 128,-1,20
 830 325 830 325 830 405 c 0,21,22
 830 445 830 445 814.5 481 c 128,-1,23
 799 517 799 517 773 543 c 128,-1,24
 747 569 747 569 710.5 584.5 c 128,-1,25
 674 600 674 600 635 600 c 0,0,1
635 503 m 0,26,27
 662 503 662 503 684.5 490 c 128,-1,28
 707 477 707 477 719.5 454.5 c 128,-1,29
 732 432 732 432 732 405 c 0,30,31
 732 364 732 364 704 336 c 128,-1,32
 676 308 676 308 635 308 c 0,33,34
 596 308 596 308 568 334 c 128,-1,35
 540 360 540 360 538 399 c 0,36,37
 538 402 538 402 538 405 c 128,-1,38
 538 408 538 408 538 411 c 0,39,40
 539 430 539 430 547 447 c 128,-1,41
 555 464 555 464 568 476.5 c 128,-1,42
 581 489 581 489 598.5 496 c 128,-1,43
 616 503 616 503 635 503 c 0,26,27
EndSplineSet
Validated: 5
Ligature2: "'liga' Standard Ligatures in Latin lookup 0 subtable" l a p e
EndChar

StartChar: laso
Encoding: 57391 57391 50
Width: 850
GlyphClass: 3
Flags: W
LayerCount: 2
Fore
SplineSet
172 840 m 0,0,1
 118 840 118 840 77 809 c 0,2,3
 0 751 0 751 0 616 c 0,4,5
 0 594 0 594 12 578 c 128,-1,6
 24 562 24 562 40 553 c 0,7,8
 61 540 61 540 95 533 c 0,9,10
 152 520 152 520 232 520 c 0,11,12
 302 520 302 520 355 530 c 1,13,14
 364 492 364 492 366 450 c 1,15,-1
 14 94 l 2,16,17
 0 80 0 80 0 59.5 c 128,-1,18
 0 39 0 39 14.5 24.5 c 128,-1,19
 29 10 29 10 49 10 c 2,20,-1
 781 10 l 2,21,22
 801 10 801 10 815.5 24.5 c 128,-1,23
 830 39 830 39 830 59.5 c 128,-1,24
 830 80 830 80 816 94 c 2,25,-1
 464 450 l 1,26,27
 465 464 465 464 466.5 478 c 128,-1,28
 468 492 468 492 470 505 c 128,-1,29
 472 518 472 518 475 530 c 1,30,31
 528 520 528 520 598 520 c 0,32,33
 610 520 610 520 622 520.5 c 128,-1,34
 634 521 634 521 646 521.5 c 128,-1,35
 658 522 658 522 669.5 523 c 128,-1,36
 681 524 681 524 692 525.5 c 128,-1,37
 703 527 703 527 714 528.5 c 128,-1,38
 725 530 725 530 735 533 c 0,39,40
 751 536 751 536 764.5 541 c 128,-1,41
 778 546 778 546 790 553 c 0,42,43
 830 576 830 576 830 616 c 0,44,45
 830 681 830 681 810.5 730.5 c 128,-1,46
 791 780 791 780 753 809 c 0,47,48
 717 836 717 836 669 839.5 c 128,-1,49
 621 843 621 843 579 824 c 0,50,51
 479 781 479 781 419 666 c 0,52,53
 417 666 417 666 415 666 c 256,54,55
 413 666 413 666 411 666 c 0,56,57
 351 781 351 781 251 824 c 0,58,59
 212 840 212 840 172 840 c 0,0,1
168 742 m 0,60,61
 188 743 188 743 213 732 c 0,62,63
 227 727 227 727 241 717 c 128,-1,64
 255 707 255 707 269 694 c 128,-1,65
 283 681 283 681 296 663 c 128,-1,66
 309 645 309 645 320 625 c 1,67,68
 301 622 301 622 278 620.5 c 128,-1,69
 255 619 255 619 232 619 c 0,70,71
 200 619 200 619 169 621.5 c 128,-1,72
 138 624 138 624 117 629 c 0,73,74
 107 631 107 631 98 634 c 1,75,76
 102 705 102 705 135 730 c 0,77,78
 142 735 142 735 150.5 738 c 128,-1,79
 159 741 159 741 168 742 c 0,60,61
662 742 m 0,80,81
 665 742 665 742 669 741 c 128,-1,82
 673 740 673 740 676 739 c 128,-1,83
 679 738 679 738 682.5 736.5 c 128,-1,84
 686 735 686 735 689 733.5 c 128,-1,85
 692 732 692 732 695 730 c 0,86,87
 728 705 728 705 732 634 c 1,88,89
 730 634 730 634 728.5 633.5 c 128,-1,90
 727 633 727 633 725 632.5 c 128,-1,91
 723 632 723 632 721.5 631.5 c 128,-1,92
 720 631 720 631 717.5 630.5 c 128,-1,93
 715 630 715 630 713 629 c 0,94,95
 699 626 699 626 680.5 623.5 c 128,-1,96
 662 621 662 621 640.5 620 c 128,-1,97
 619 619 619 619 598 619 c 0,98,99
 575 619 575 619 552 620.5 c 128,-1,100
 529 622 529 622 510 625 c 1,101,102
 531 665 531 665 559.5 692.5 c 128,-1,103
 588 720 588 720 617 732 c 0,104,105
 642 743 642 743 662 742 c 0,80,81
415 360 m 1,106,-1
 663 109 l 1,107,-1
 167 109 l 1,108,-1
 415 360 l 1,106,-1
EndSplineSet
Validated: 41
Ligature2: "'liga' Standard Ligatures in Latin lookup 0 subtable" l a s o
EndChar

StartChar: lawa
Encoding: 57392 57392 51
Width: 850
GlyphClass: 3
Flags: W
LayerCount: 2
Fore
SplineSet
293 840 m 0,0,1
 171 840 171 840 85 752 c 0,2,3
 5 669 5 669 1 554 c 1,4,-1
 0 545 l 2,5,6
 0 540 0 540 1 536 c 0,7,8
 1 328 1 328 74 179 c 0,9,10
 112 101 112 101 167 55.5 c 128,-1,11
 222 10 222 10 287 10 c 128,-1,12
 352 10 352 10 407.5 55 c 128,-1,13
 463 100 463 100 503 178 c 0,14,15
 571 311 571 311 583 495 c 1,16,-1
 781 495 l 1,17,18
 781 495 781 495 781 495 c 1,19,20
 801 495 801 495 815.5 509.5 c 128,-1,21
 830 524 830 524 830 544 c 0,22,23
 830 558 830 558 823.5 569 c 128,-1,24
 817 580 817 580 805.5 587 c 128,-1,25
 794 594 794 594 781 594 c 2,26,-1
 581 594 l 1,27,28
 564 699 564 699 482.5 769.5 c 128,-1,29
 401 840 401 840 293 840 c 0,0,1
293 741 m 0,30,31
 327 741 327 741 358 730 c 128,-1,32
 389 719 389 719 413.5 699.5 c 128,-1,33
 438 680 438 680 456 652.5 c 128,-1,34
 474 625 474 625 482 594 c 1,35,-1
 104 594 l 1,36,37
 120 658 120 658 172.5 699.5 c 128,-1,38
 225 741 225 741 293 741 c 0,30,31
1 545 m 1,39,-1
 1 544 l 1,40,-1
 1 545 l 1,39,-1
99 495 m 1,41,-1
 486 495 l 1,42,43
 480 417 480 417 462 347 c 128,-1,44
 444 277 444 277 417 224 c 0,45,46
 387 166 387 166 352.5 137.5 c 128,-1,47
 318 109 318 109 287 109 c 0,48,49
 272 109 272 109 256.5 115.5 c 128,-1,50
 241 122 241 122 225 135 c 128,-1,51
 209 148 209 148 192.5 170.5 c 128,-1,52
 176 193 176 193 161 223 c 0,53,54
 154 238 154 238 147.5 254.5 c 128,-1,55
 141 271 141 271 135 289 c 128,-1,56
 129 307 129 307 124 326.5 c 128,-1,57
 119 346 119 346 115 366.5 c 128,-1,58
 111 387 111 387 108 408 c 128,-1,59
 105 429 105 429 102.5 451 c 128,-1,60
 100 473 100 473 99 495 c 1,41,-1
EndSplineSet
Validated: 5
Ligature2: "'liga' Standard Ligatures in Latin lookup 0 subtable" l a w a
EndChar

StartChar: leko
Encoding: 57393 57393 52
Width: 850
GlyphClass: 3
Flags: W
LayerCount: 2
Fore
SplineSet
50 851 m 2,0,-1
 800 851 l 2,1,2
 821 851 821 851 835.5 836 c 128,-1,3
 850 821 850 821 850 801 c 2,4,-1
 850 51 l 2,5,6
 850 30 850 30 835.5 15.5 c 128,-1,7
 821 1 821 1 800 1 c 2,8,-1
 50 1 l 2,9,10
 30 1 30 1 15 15.5 c 128,-1,11
 0 30 0 30 0 51 c 2,12,-1
 0 801 l 2,13,14
 0 821 0 821 15 836 c 128,-1,15
 30 851 30 851 50 851 c 2,0,-1
100 751 m 1,16,-1
 100 101 l 1,17,-1
 750 101 l 1,18,-1
 750 751 l 1,19,-1
 100 751 l 1,16,-1
175 726 m 2,20,-1
 675 726 l 2,21,22
 696 726 696 726 710.5 711 c 128,-1,23
 725 696 725 696 725 676 c 2,24,-1
 725 176 l 2,25,26
 725 155 725 155 710.5 140.5 c 128,-1,27
 696 126 696 126 675 126 c 2,28,-1
 175 126 l 2,29,30
 155 126 155 126 140 140.5 c 128,-1,31
 125 155 125 155 125 176 c 2,32,-1
 125 676 l 2,33,34
 125 696 125 696 140 711 c 128,-1,35
 155 726 155 726 175 726 c 2,20,-1
225 626 m 1,36,-1
 225 226 l 1,37,-1
 625 226 l 1,38,-1
 625 626 l 1,39,-1
 225 626 l 1,36,-1
EndSplineSet
Validated: 1
Ligature2: "'liga' Standard Ligatures in Latin lookup 0 subtable" l e k o
EndChar

StartChar: len
Encoding: 57394 57394 53
Width: 850
GlyphClass: 3
Flags: W
LayerCount: 2
Fore
SplineSet
49 841 m 2,0,1
 17 841 17 841 4 812 c 0,2,3
 0 802 0 802 0 792 c 2,4,-1
 0 243 l 1,5,-1
 0 60 l 1,6,-1
 0 59 l 2,7,8
 0 39 0 39 14.5 24.5 c 128,-1,9
 29 10 29 10 49 10 c 0,10,11
 62 10 62 10 73.5 16.5 c 128,-1,12
 85 23 85 23 91.5 34.5 c 128,-1,13
 98 46 98 46 98 59 c 2,14,15
 98 59 98 59 98 60 c 2,16,-1
 98 194 l 1,17,-1
 366 194 l 1,18,-1
 366 60 l 2,19,20
 366 59 366 59 366 59 c 2,21,22
 366 46 366 46 372.5 34.5 c 128,-1,23
 379 23 379 23 390.5 16.5 c 128,-1,24
 402 10 402 10 415 10 c 0,25,26
 435 10 435 10 449.5 24.5 c 128,-1,27
 464 39 464 39 464 59 c 2,28,29
 464 59 464 59 464 60 c 2,30,-1
 464 194 l 1,31,-1
 732 194 l 1,32,-1
 732 60 l 2,33,34
 732 59 732 59 732 59 c 2,35,36
 732 39 732 39 746.5 24.5 c 128,-1,37
 761 10 761 10 781 10 c 128,-1,38
 801 10 801 10 815.5 24.5 c 128,-1,39
 830 39 830 39 830 59 c 2,40,41
 830 59 830 59 830 60 c 2,42,-1
 830 243 l 1,43,-1
 830 792 l 2,44,45
 830 812 830 812 815.5 826.5 c 128,-1,46
 801 841 801 841 781 841 c 2,47,-1
 49 841 l 2,0,1
98 743 m 1,48,-1
 732 743 l 1,49,-1
 732 291 l 1,50,-1
 423 291 l 2,51,52
 419 292 419 292 415 292 c 0,53,54
 413 292 413 292 411 292 c 128,-1,55
 409 292 409 292 407 291 c 2,56,-1
 98 291 l 1,57,-1
 98 743 l 1,48,-1
EndSplineSet
Validated: 9
Ligature2: "'liga' Standard Ligatures in Latin lookup 0 subtable" l e n
EndChar

StartChar: lete
Encoding: 57395 57395 54
Width: 850
GlyphClass: 3
Flags: W
LayerCount: 2
Fore
SplineSet
171 840 m 0,0,1
 151 840 151 840 136.5 825.5 c 128,-1,2
 122 811 122 811 122 791 c 0,3,4
 122 776 122 776 131 763 c 2,5,-1
 324 474 l 1,6,-1
 49 474 l 2,7,8
 29 474 29 474 14.5 459.5 c 128,-1,9
 0 445 0 445 0 425 c 128,-1,10
 0 405 0 405 14.5 390.5 c 128,-1,11
 29 376 29 376 49 376 c 1,12,13
 49 376 49 376 49 376 c 1,14,-1
 324 376 l 1,15,-1
 131 86 l 2,16,17
 122 74 122 74 122 59 c 0,18,19
 122 49 122 49 126 40 c 128,-1,20
 130 31 130 31 136.5 24.5 c 128,-1,21
 143 18 143 18 152 14 c 128,-1,22
 161 10 161 10 171 10 c 0,23,24
 182 10 182 10 194 16.5 c 128,-1,25
 206 23 206 23 212 32 c 2,26,-1
 415 337 l 1,27,-1
 618 32 l 2,28,29
 624 23 624 23 636 16.5 c 128,-1,30
 648 10 648 10 659 10 c 0,31,32
 679 10 679 10 693.5 24.5 c 128,-1,33
 708 39 708 39 708 59 c 0,34,35
 708 74 708 74 699 86 c 2,36,-1
 506 376 l 1,37,-1
 781 376 l 2,38,39
 788 376 788 376 794.5 378 c 128,-1,40
 801 380 801 380 806 383 c 128,-1,41
 811 386 811 386 815.5 390.5 c 128,-1,42
 820 395 820 395 823 400.5 c 128,-1,43
 826 406 826 406 828 412 c 128,-1,44
 830 418 830 418 830 425 c 0,45,46
 830 438 830 438 823.5 449.5 c 128,-1,47
 817 461 817 461 805.5 467.5 c 128,-1,48
 794 474 794 474 781 474 c 2,49,-1
 506 474 l 1,50,-1
 699 763 l 2,51,52
 708 776 708 776 708 791 c 0,53,54
 708 811 708 811 693.5 825.5 c 128,-1,55
 679 840 679 840 659 840 c 0,56,57
 648 840 648 840 636 833.5 c 128,-1,58
 624 827 624 827 618 817 c 2,59,-1
 415 513 l 1,60,-1
 212 817 l 2,61,62
 209 822 209 822 204 826 c 128,-1,63
 199 830 199 830 193.5 833 c 128,-1,64
 188 836 188 836 182 838 c 128,-1,65
 176 840 176 840 171 840 c 0,0,1
EndSplineSet
Validated: 5
Ligature2: "'liga' Standard Ligatures in Latin lookup 0 subtable" l e t e
EndChar

StartChar: li
Encoding: 57396 57396 55
Width: 850
GlyphClass: 3
Flags: W
LayerCount: 2
Fore
SplineSet
147 840 m 2,0,1
 142 840 142 840 137.5 838.5 c 128,-1,2
 133 837 133 837 128.5 835.5 c 128,-1,3
 124 834 124 834 120.5 831 c 128,-1,4
 117 828 117 828 114 825 c 128,-1,5
 111 822 111 822 108 818 c 128,-1,6
 105 814 105 814 103.5 809.5 c 128,-1,7
 102 805 102 805 101 800.5 c 128,-1,8
 100 796 100 796 100 791 c 0,9,10
 100 784 100 784 102.5 776.5 c 128,-1,11
 105 769 105 769 110 762.5 c 128,-1,12
 115 756 115 756 120 752 c 2,13,-1
 556 425 l 1,14,-1
 120 98 l 2,15,16
 118 97 118 97 116.5 95.5 c 128,-1,17
 115 94 115 94 113.5 92.5 c 128,-1,18
 112 91 112 91 110.5 89 c 128,-1,19
 109 87 109 87 108 85 c 128,-1,20
 107 83 107 83 106 80.5 c 128,-1,21
 105 78 105 78 104 76 c 128,-1,22
 103 74 103 74 102.5 72 c 128,-1,23
 102 70 102 70 101.5 67.5 c 128,-1,24
 101 65 101 65 100.5 63 c 128,-1,25
 100 61 100 61 100 59 c 0,26,27
 100 39 100 39 114.5 24.5 c 128,-1,28
 129 10 129 10 149 10 c 0,29,30
 165 10 165 10 179 20 c 2,31,-1
 666 386 l 2,32,33
 670 389 670 389 674 393.5 c 128,-1,34
 678 398 678 398 680.5 403.5 c 128,-1,35
 683 409 683 409 684.5 414.5 c 128,-1,36
 686 420 686 420 686 425 c 0,37,38
 686 435 686 435 680 446.5 c 128,-1,39
 674 458 674 458 666 464 c 2,40,-1
 179 830 l 2,41,42
 165 840 165 840 149 840 c 2,43,-1
 147 840 l 2,0,1
EndSplineSet
Validated: 9
Ligature2: "'liga' Standard Ligatures in Latin lookup 0 subtable" l i
EndChar

StartChar: lili
Encoding: 57397 57397 56
Width: 708
GlyphClass: 3
Flags: W
LayerCount: 2
Fore
SplineSet
277 646 m 0,0,1
 276 646 276 646 276 646 c 2,2,3
 252 646 252 646 235.5 629.5 c 128,-1,4
 219 613 219 613 219 589 c 0,5,6
 219 584 219 584 221 576 c 128,-1,7
 223 568 223 568 225 563 c 2,8,-1
 368 278 l 2,9,10
 374 265 374 265 389 255.5 c 128,-1,11
 404 246 404 246 419 246 c 0,12,13
 428 246 428 246 438.5 250.5 c 128,-1,14
 449 255 449 255 457.5 262 c 128,-1,15
 466 269 466 269 470 278 c 2,16,-1
 612 563 l 2,17,18
 619 576 619 576 619 589 c 0,19,20
 619 613 619 613 602 629.5 c 128,-1,21
 585 646 585 646 562 646 c 0,22,23
 533 646 533 646 515 621 c 0,24,25
 512 618 512 618 510 614 c 2,26,-1
 419 431 l 1,27,-1
 327 614 l 2,28,29
 323 623 323 623 315 630 c 128,-1,30
 307 637 307 637 297 641.5 c 128,-1,31
 287 646 287 646 277 646 c 0,0,1
EndSplineSet
Validated: 9
Ligature2: "'liga' Standard Ligatures in Latin lookup 0 subtable" l i l i
EndChar

StartChar: linja
Encoding: 57398 57398 57
Width: 850
GlyphClass: 3
Flags: W
LayerCount: 2
Fore
SplineSet
237 829 m 0,0,1
 184 829 184 829 139.5 793.5 c 128,-1,2
 95 758 95 758 63 697 c 0,3,4
 49 669 49 669 37 636.5 c 128,-1,5
 25 604 25 604 17.5 568.5 c 128,-1,6
 10 533 10 533 5.5 496 c 128,-1,7
 1 459 1 459 0 420 c 2,8,9
 0 420 0 420 0 419 c 0,10,11
 0 398 0 398 14.5 384 c 128,-1,12
 29 370 29 370 49 370 c 0,13,14
 62 370 62 370 73 376.5 c 128,-1,15
 84 383 84 383 91 394 c 128,-1,16
 98 405 98 405 98 418 c 0,17,18
 101 557 101 557 150 652 c 0,19,20
 159 669 159 669 168.5 682.5 c 128,-1,21
 178 696 178 696 187 705 c 128,-1,22
 196 714 196 714 205 720 c 128,-1,23
 214 726 214 726 222 728.5 c 128,-1,24
 230 731 230 731 237 731 c 0,25,26
 256 731 256 731 278 712 c 128,-1,27
 300 693 300 693 320 653 c 0,28,29
 367 558 367 558 366 420 c 0,30,31
 366 342 366 342 380 270.5 c 128,-1,32
 394 199 394 199 422 142 c 0,33,34
 452 82 452 82 496 46 c 128,-1,35
 540 10 540 10 593 10 c 0,36,37
 620 10 620 10 645.5 19.5 c 128,-1,38
 671 29 671 29 692.5 47 c 128,-1,39
 714 65 714 65 732.5 88.5 c 128,-1,40
 751 112 751 112 767 142 c 0,41,42
 796 198 796 198 812 269.5 c 128,-1,43
 828 341 828 341 830 418 c 0,44,45
 830 419 830 419 830 420 c 0,46,47
 830 440 830 440 815.5 454.5 c 128,-1,48
 801 469 801 469 781 469 c 128,-1,49
 761 469 761 469 746.5 454.5 c 128,-1,50
 732 440 732 440 732 420 c 0,51,52
 729 282 729 282 680 187 c 0,53,54
 659 146 659 146 635.5 127 c 128,-1,55
 612 108 612 108 593 108 c 128,-1,56
 574 108 574 108 552 126.5 c 128,-1,57
 530 145 530 145 510 186 c 0,58,59
 463 281 463 281 464 419 c 0,60,61
 464 497 464 497 450 568 c 128,-1,62
 436 639 436 639 408 696 c 0,63,64
 399 713 399 713 390 728 c 128,-1,65
 381 743 381 743 370 756.5 c 128,-1,66
 359 770 359 770 347.5 781 c 128,-1,67
 336 792 336 792 323 801 c 128,-1,68
 310 810 310 810 296 816 c 128,-1,69
 282 822 282 822 267 825.5 c 128,-1,70
 252 829 252 829 237 829 c 0,0,1
EndSplineSet
Validated: 41
Ligature2: "'liga' Standard Ligatures in Latin lookup 0 subtable" l i n j a
EndChar

StartChar: linluwi
Encoding: 57399 57399 58
Width: 850
GlyphClass: 3
Flags: W
LayerCount: 2
Fore
SplineSet
48 831 m 2,0,-1
 798 831 l 2,1,2
 819 831 819 831 833.5 816.5 c 128,-1,3
 848 802 848 802 848 781 c 2,4,-1
 848 218 l 1,5,-1
 847 226 l 2,6,7
 851 206 851 206 839 189 c 0,8,9
 836 185 836 185 831 181 c 0,10,11
 828 178 828 178 824 175 c 0,12,13
 819 172 819 172 812 168 c 0,14,15
 798 160 798 160 780 152 c 0,16,17
 729 130 729 130 675 120 c 0,18,19
 500 84 500 84 390 181 c 0,20,21
 318 244 318 244 191 217 c 0,22,23
 161 211 161 211 131.5 200.5 c 128,-1,24
 102 190 102 190 87 182 c 2,25,-1
 72 175 l 2,26,27
 61 168 61 168 48 168 c 0,28,29
 27 168 27 168 12.5 183 c 128,-1,30
 -2 198 -2 198 -2 218 c 2,31,-1
 -2 781 l 2,32,33
 -2 802 -2 802 12.5 816.5 c 128,-1,34
 27 831 27 831 48 831 c 2,0,-1
98 731 m 1,35,-1
 98 294 l 1,36,37
 137 308 137 308 171 315 c 0,38,39
 346 352 346 352 456 256 c 0,40,41
 529 192 529 192 655 218 c 0,42,43
 699 226 699 226 740 244 c 0,44,45
 742 245 742 245 745 246 c 2,46,-1
 748 248 l 1,47,-1
 748 731 l 1,48,-1
 98 731 l 1,35,-1
48 268 m 128,-1,50
 69 268 69 268 83.5 253.5 c 128,-1,51
 98 239 98 239 98 218 c 2,52,-1
 98 31 l 2,53,54
 98 10 98 10 83.5 -4.5 c 128,-1,55
 69 -19 69 -19 48 -19 c 128,-1,56
 27 -19 27 -19 12.5 -4.5 c 128,-1,57
 -2 10 -2 10 -2 31 c 2,58,-1
 -2 218 l 2,59,60
 -2 239 -2 239 12.5 253.5 c 128,-1,49
 27 268 27 268 48 268 c 128,-1,50
423 268 m 128,-1,62
 444 268 444 268 458.5 253.5 c 128,-1,63
 473 239 473 239 473 218 c 2,64,-1
 473 31 l 2,65,66
 473 10 473 10 458.5 -4.5 c 128,-1,67
 444 -19 444 -19 423 -19 c 128,-1,68
 402 -19 402 -19 387.5 -4.5 c 128,-1,69
 373 10 373 10 373 31 c 2,70,-1
 373 218 l 2,71,72
 373 239 373 239 387.5 253.5 c 128,-1,61
 402 268 402 268 423 268 c 128,-1,62
798 268 m 128,-1,74
 819 268 819 268 833.5 253.5 c 128,-1,75
 848 239 848 239 848 218 c 2,76,-1
 848 31 l 2,77,78
 848 10 848 10 833.5 -4.5 c 128,-1,79
 819 -19 819 -19 798 -19 c 128,-1,80
 777 -19 777 -19 762.5 -4.5 c 128,-1,81
 748 10 748 10 748 31 c 2,82,-1
 748 218 l 2,83,84
 748 239 748 239 762.5 253.5 c 128,-1,73
 777 268 777 268 798 268 c 128,-1,74
212 641 m 0,85,86
 252 641 252 641 282.5 614.5 c 128,-1,87
 313 588 313 588 320 549 c 0,88,89
 325 539 325 539 325 529 c 128,-1,90
 325 519 325 519 320 509 c 0,91,92
 313 470 313 470 282.5 443 c 128,-1,93
 252 416 252 416 212 416 c 0,94,95
 166 416 166 416 133 449.5 c 128,-1,96
 100 483 100 483 100 529 c 128,-1,97
 100 575 100 575 133 608 c 128,-1,98
 166 641 166 641 212 641 c 0,85,86
212.5 541 m 128,-1,100
 225 541 225 541 225 528.5 c 128,-1,101
 225 516 225 516 212.5 516 c 128,-1,102
 200 516 200 516 200 528.5 c 128,-1,99
 200 541 200 541 212.5 541 c 128,-1,100
424 641 m 0,103,104
 444 641 444 641 462.5 634 c 128,-1,105
 481 627 481 627 495 614.5 c 128,-1,106
 509 602 509 602 519 585 c 128,-1,107
 529 568 529 568 532 549 c 0,108,109
 536 539 536 539 536 529 c 128,-1,110
 536 519 536 519 532 509 c 0,111,112
 525 470 525 470 494.5 443 c 128,-1,113
 464 416 464 416 424 416 c 0,114,115
 378 416 378 416 344.5 449.5 c 128,-1,116
 311 483 311 483 311 529 c 128,-1,117
 311 575 311 575 344.5 608 c 128,-1,118
 378 641 378 641 424 641 c 0,103,104
423.5 541 m 128,-1,120
 436 541 436 541 436 528.5 c 128,-1,121
 436 516 436 516 423.5 516 c 128,-1,122
 411 516 411 516 411 528.5 c 128,-1,119
 411 541 411 541 423.5 541 c 128,-1,120
636 641 m 0,123,124
 676 641 676 641 706.5 614.5 c 128,-1,125
 737 588 737 588 744 549 c 0,126,127
 748 539 748 539 748 529 c 128,-1,128
 748 519 748 519 744 509 c 0,129,130
 737 470 737 470 706.5 443 c 128,-1,131
 676 416 676 416 636 416 c 0,132,133
 590 416 590 416 556.5 449.5 c 128,-1,134
 523 483 523 483 523 529 c 0,135,136
 523 559 523 559 538.5 585 c 128,-1,137
 554 611 554 611 580 626 c 128,-1,138
 606 641 606 641 636 641 c 0,123,124
635.5 541 m 128,-1,140
 648 541 648 541 648 528.5 c 128,-1,141
 648 516 648 516 635.5 516 c 128,-1,142
 623 516 623 516 623 528.5 c 128,-1,139
 623 541 623 541 635.5 541 c 128,-1,140
EndSplineSet
Validated: 37
Ligature2: "'liga' Standard Ligatures in Latin lookup 0 subtable" l i n l u w i
EndChar

StartChar: lipu
Encoding: 57400 57400 59
Width: 850
GlyphClass: 3
Flags: W
LayerCount: 2
Fore
SplineSet
49 840 m 2,0,1
 29 840 29 840 14.5 825.5 c 128,-1,2
 0 811 0 811 0 791 c 2,3,-1
 0 59 l 2,4,5
 0 39 0 39 14.5 24.5 c 128,-1,6
 29 10 29 10 49 10 c 2,7,-1
 781 10 l 2,8,9
 801 10 801 10 815.5 24.5 c 128,-1,10
 830 39 830 39 830 59 c 2,11,-1
 830 791 l 2,12,13
 830 811 830 811 815.5 825.5 c 128,-1,14
 801 840 801 840 781 840 c 2,15,-1
 49 840 l 2,0,1
98 742 m 1,16,-1
 732 742 l 1,17,-1
 732 108 l 1,18,-1
 98 108 l 1,19,-1
 98 742 l 1,16,-1
EndSplineSet
Validated: 9
Ligature2: "'liga' Standard Ligatures in Latin lookup 0 subtable" l i p u
EndChar

StartChar: loje
Encoding: 57401 57401 60
Width: 850
GlyphClass: 3
Flags: W
LayerCount: 2
Fore
SplineSet
49 840 m 2,0,1
 42 840 42 840 36 838 c 128,-1,2
 30 836 30 836 24.5 833 c 128,-1,3
 19 830 19 830 14.5 825.5 c 128,-1,4
 10 821 10 821 7 815.5 c 128,-1,5
 4 810 4 810 2 804 c 128,-1,6
 0 798 0 798 0 791 c 2,7,-1
 0 790 l 2,8,9
 1 759 1 759 10.5 729 c 128,-1,10
 20 699 20 699 37.5 672 c 128,-1,11
 55 645 55 645 79 621 c 128,-1,12
 103 597 103 597 133 578 c 0,13,14
 254 498 254 498 420 498 c 0,15,16
 587 498 587 498 705 578 c 0,17,18
 765 618 765 618 798 674 c 128,-1,19
 831 730 831 730 830 792 c 0,20,21
 830 812 830 812 815.5 826 c 128,-1,22
 801 840 801 840 781 840 c 2,23,-1
 49 840 l 2,0,1
110 742 m 1,24,-1
 723 742 l 1,25,26
 705 696 705 696 650 659 c 0,27,28
 607 629 607 629 546.5 612.5 c 128,-1,29
 486 596 486 596 420 596 c 0,30,31
 377 596 377 596 334 603.5 c 128,-1,32
 291 611 291 611 254 625.5 c 128,-1,33
 217 640 217 640 187 659 c 0,34,35
 159 678 159 678 139.5 699 c 128,-1,36
 120 720 120 720 110 742 c 1,24,-1
414 474 m 2,37,38
 406 474 406 474 396 469.5 c 128,-1,39
 386 465 386 465 380 460 c 2,40,-1
 14 93 l 2,41,42
 8 87 8 87 4 77 c 128,-1,43
 0 67 0 67 0 59 c 0,44,45
 0 27 0 27 29 14 c 0,46,47
 39 10 39 10 49 10 c 2,48,-1
 781 10 l 2,49,50
 801 10 801 10 815.5 24.5 c 128,-1,51
 830 39 830 39 830 59 c 128,-1,52
 830 79 830 79 816 93 c 2,53,-1
 450 460 l 2,54,55
 435 474 435 474 415 474 c 2,56,-1
 414 474 l 2,37,38
415 356 m 1,57,-1
 663 108 l 1,58,-1
 167 108 l 1,59,-1
 415 356 l 1,57,-1
EndSplineSet
Validated: 41
Ligature2: "'liga' Standard Ligatures in Latin lookup 0 subtable" l o j e
EndChar

StartChar: lon
Encoding: 57402 57402 61
Width: 850
GlyphClass: 3
Flags: W
LayerCount: 2
Fore
SplineSet
415 634 m 0,0,1
 370 634 370 634 337.5 601.5 c 128,-1,2
 305 569 305 569 305 524 c 128,-1,3
 305 479 305 479 337.5 447 c 128,-1,4
 370 415 370 415 415 415 c 128,-1,5
 460 415 460 415 492.5 447 c 128,-1,6
 525 479 525 479 525 524 c 0,7,8
 525 546 525 546 516 566.5 c 128,-1,9
 507 587 507 587 492.5 601.5 c 128,-1,10
 478 616 478 616 457.5 625 c 128,-1,11
 437 634 437 634 415 634 c 0,0,1
415 536 m 0,12,13
 427 536 427 536 427 524 c 128,-1,14
 427 512 427 512 415 512 c 128,-1,15
 403 512 403 512 403 524 c 0,16,17
 403 528 403 528 404.5 530.5 c 128,-1,18
 406 533 406 533 408.5 534.5 c 128,-1,19
 411 536 411 536 415 536 c 0,12,13
49 207 m 2,20,21
 29 207 29 207 14.5 193 c 128,-1,22
 0 179 0 179 0 159 c 128,-1,23
 0 139 0 139 14.5 124.5 c 128,-1,24
 29 110 29 110 49 110 c 2,25,-1
 781 110 l 1,26,27
 781 110 781 110 781 110 c 1,28,29
 791 110 791 110 800 114 c 128,-1,30
 809 118 809 118 815.5 124.5 c 128,-1,31
 822 131 822 131 826 140 c 128,-1,32
 830 149 830 149 830 159 c 0,33,34
 830 179 830 179 815.5 193 c 128,-1,35
 801 207 801 207 781 207 c 2,36,-1
 49 207 l 2,20,21
EndSplineSet
Validated: 5
Ligature2: "'liga' Standard Ligatures in Latin lookup 0 subtable" l o n
EndChar

StartChar: luka
Encoding: 57403 57403 62
Width: 850
GlyphClass: 3
Flags: W
LayerCount: 2
Fore
SplineSet
524 828 m 0,0,1
 449 828 449 828 385 758 c 0,2,3
 329 696 329 696 287 587 c 0,4,5
 229 437 229 437 207 234 c 1,6,-1
 92 448 l 2,7,8
 87 459 87 459 74 467 c 128,-1,9
 61 475 61 475 49 475 c 0,10,11
 39 475 39 475 30 471 c 128,-1,12
 21 467 21 467 14.5 460.5 c 128,-1,13
 8 454 8 454 4 445 c 128,-1,14
 0 436 0 436 0 426 c 0,15,16
 0 421 0 421 2 414 c 128,-1,17
 4 407 4 407 6 403 c 2,18,-1
 201 37 l 2,19,20
 204 32 204 32 207.5 28 c 128,-1,21
 211 24 211 24 215 21 c 128,-1,22
 219 18 219 18 224 15.5 c 128,-1,23
 229 13 229 13 234.5 12 c 128,-1,24
 240 11 240 11 244 11 c 0,25,26
 264 11 264 11 278.5 25 c 128,-1,27
 293 39 293 39 293 58 c 0,28,29
 296 198 296 198 318 327 c 128,-1,30
 340 456 340 456 378 552 c 0,31,32
 390 583 390 583 403.5 610 c 128,-1,33
 417 637 417 637 430.5 657 c 128,-1,34
 444 677 444 677 457 692 c 0,35,36
 492 731 492 731 524 731 c 0,37,38
 554 731 554 731 588 693 c 0,39,40
 630 645 630 645 663 553 c 0,41,42
 697 457 697 457 715.5 328.5 c 128,-1,43
 734 200 734 200 732 60 c 0,44,45
 732 59 732 59 732 59 c 2,46,47
 732 27 732 27 761 14 c 0,48,49
 771 10 771 10 781 10 c 0,50,51
 801 10 801 10 815.5 24.5 c 128,-1,52
 830 39 830 39 830 59 c 0,53,54
 831 157 831 157 822.5 251 c 128,-1,55
 814 345 814 345 797 430 c 128,-1,56
 780 515 780 515 755 586 c 0,57,58
 715 696 715 696 661 757 c 0,59,60
 642 779 642 779 620.5 794.5 c 128,-1,61
 599 810 599 810 574 819 c 128,-1,62
 549 828 549 828 524 828 c 0,0,1
EndSplineSet
Validated: 41
Ligature2: "'liga' Standard Ligatures in Latin lookup 0 subtable" l u k a
EndChar

StartChar: lukin
Encoding: 57404 57404 63
Width: 850
GlyphClass: 3
Flags: W
LayerCount: 2
Fore
SplineSet
410 696 m 0,0,1
 243 696 243 696 125 616 c 0,2,3
 86 590 86 590 58.5 557 c 128,-1,4
 31 524 31 524 15.5 485.5 c 128,-1,5
 0 447 0 447 0 406 c 2,6,-1
 0 403 l 1,7,8
 0 403 0 403 0 402 c 0,9,10
 0 399 0 399 0 397 c 0,11,12
 3 337 3 337 38 283 c 128,-1,13
 73 229 73 229 133 190 c 0,14,15
 192 151 192 151 266 130.5 c 128,-1,16
 340 110 340 110 420 110 c 0,17,18
 587 110 587 110 705 190 c 0,19,20
 765 230 765 230 798 286 c 128,-1,21
 831 342 831 342 830 404 c 128,-1,22
 829 466 829 466 793.5 521 c 128,-1,23
 758 576 758 576 697 616 c 0,24,25
 576 696 576 696 410 696 c 0,0,1
410 598 m 256,26,27
 547 598 547 598 643 535 c 0,28,29
 731 477 731 477 732 402 c 0,30,31
 733 379 733 379 724.5 356.5 c 128,-1,32
 716 334 716 334 697 312 c 128,-1,33
 678 290 678 290 650 271 c 0,34,35
 607 241 607 241 546.5 224.5 c 128,-1,36
 486 208 486 208 420 208 c 0,37,38
 283 208 283 208 187 271 c 0,39,40
 99 329 99 329 98 404 c 0,41,42
 96 479 96 479 180 535 c 0,43,44
 273 598 273 598 410 598 c 256,26,27
415 513 m 128,-1,46
 370 513 370 513 337.5 480.5 c 128,-1,47
 305 448 305 448 305 403 c 128,-1,48
 305 358 305 358 337.5 325.5 c 128,-1,49
 370 293 370 293 415 293 c 128,-1,50
 460 293 460 293 492.5 325.5 c 128,-1,51
 525 358 525 358 525 403 c 128,-1,52
 525 448 525 448 492.5 480.5 c 128,-1,45
 460 513 460 513 415 513 c 128,-1,46
415 415 m 0,53,54
 427 415 427 415 427 403 c 128,-1,55
 427 391 427 391 415 391 c 128,-1,56
 403 391 403 391 403 403 c 0,57,58
 403 407 403 407 404.5 409.5 c 128,-1,59
 406 412 406 412 408.5 413.5 c 128,-1,60
 411 415 411 415 415 415 c 0,53,54
EndSplineSet
Validated: 41
Ligature2: "'liga' Standard Ligatures in Latin lookup 0 subtable" l u k i n
EndChar

StartChar: lupa
Encoding: 57405 57405 64
Width: 850
GlyphClass: 3
Flags: W
LayerCount: 2
Fore
SplineSet
48 841 m 2,0,1
 28 840 28 840 14 826 c 128,-1,2
 0 812 0 812 0 792 c 2,3,4
 0 792 0 792 0 791 c 2,5,-1
 0 425 l 2,6,7
 0 342 0 342 31.5 266 c 128,-1,8
 63 190 63 190 121.5 131.5 c 128,-1,9
 180 73 180 73 256 41.5 c 128,-1,10
 332 10 332 10 415 10 c 0,11,12
 470 10 470 10 522.5 24 c 128,-1,13
 575 38 575 38 622.5 65.5 c 128,-1,14
 670 93 670 93 708 132 c 0,15,16
 767 190 767 190 798.5 266 c 128,-1,17
 830 342 830 342 830 425 c 2,18,-1
 830 791 l 1,19,-1
 830 792 l 2,20,21
 830 800 830 800 827.5 807.5 c 128,-1,22
 825 815 825 815 820.5 821 c 128,-1,23
 816 827 816 827 810 831.5 c 128,-1,24
 804 836 804 836 796.5 838.5 c 128,-1,25
 789 841 789 841 781 841 c 128,-1,26
 773 841 773 841 765.5 838.5 c 128,-1,27
 758 836 758 836 752 831.5 c 128,-1,28
 746 827 746 827 741.5 821 c 128,-1,29
 737 815 737 815 734.5 807.5 c 128,-1,30
 732 800 732 800 732 792 c 2,31,32
 732 792 732 792 732 791 c 2,33,-1
 732 425 l 2,34,35
 732 362 732 362 708 303.5 c 128,-1,36
 684 245 684 245 639 201 c 0,37,38
 610 171 610 171 573.5 150 c 128,-1,39
 537 129 537 129 497 118.5 c 128,-1,40
 457 108 457 108 415 108 c 0,41,42
 352 108 352 108 293.5 132 c 128,-1,43
 235 156 235 156 191 201 c 0,44,45
 161 230 161 230 140 266 c 128,-1,46
 119 302 119 302 108.5 342.5 c 128,-1,47
 98 383 98 383 98 425 c 2,48,-1
 98 791 l 1,49,50
 98 791 98 791 98 792 c 0,51,52
 98 812 98 812 83.5 826.5 c 128,-1,53
 69 841 69 841 49 841 c 0,54,55
 48 841 48 841 48 841 c 2,0,1
EndSplineSet
Validated: 9
Ligature2: "'liga' Standard Ligatures in Latin lookup 0 subtable" l u p a
EndChar

StartChar: ma
Encoding: 57406 57406 65
Width: 850
GlyphClass: 3
Flags: W
LayerCount: 2
Fore
SplineSet
414 840 m 2,0,1
 410 840 410 840 406 839 c 0,2,3
 326 837 326 837 252.5 806 c 128,-1,4
 179 775 179 775 122 718 c 0,5,6
 12 608 12 608 2 453 c 0,7,8
 1 443 1 443 1 434 c 0,9,10
 0 430 0 430 0 425 c 128,-1,11
 0 420 0 420 1 416 c 0,12,13
 3 336 3 336 34 262.5 c 128,-1,14
 65 189 65 189 122 132 c 0,15,16
 160 94 160 94 205.5 67.5 c 128,-1,17
 251 41 251 41 302 26.5 c 128,-1,18
 353 12 353 12 406 11 c 0,19,20
 410 10 410 10 415 10 c 128,-1,21
 420 10 420 10 424 11 c 0,22,23
 504 13 504 13 577.5 44 c 128,-1,24
 651 75 651 75 708 132 c 128,-1,25
 765 189 765 189 796 262.5 c 128,-1,26
 827 336 827 336 829 416 c 0,27,28
 829 418 829 418 829.5 420.5 c 128,-1,29
 830 423 830 423 830 425 c 2,30,-1
 829 434 l 1,31,32
 828 487 828 487 813.5 538 c 128,-1,33
 799 589 799 589 772.5 634.5 c 128,-1,34
 746 680 746 680 708 718 c 0,35,36
 651 775 651 775 577.5 806 c 128,-1,37
 504 837 504 837 424 839 c 0,38,39
 420 840 420 840 415 840 c 0,40,41
 414 840 414 840 414 840 c 2,0,1
366 738 m 1,42,-1
 366 474 l 1,43,-1
 102 474 l 1,44,45
 118 576 118 576 191 649 c 128,-1,46
 264 722 264 722 366 738 c 1,42,-1
464 738 m 1,47,48
 566 722 566 722 639 649 c 128,-1,49
 712 576 712 576 728 474 c 1,50,-1
 464 474 l 1,51,-1
 464 738 l 1,47,48
102 376 m 1,52,-1
 366 376 l 1,53,-1
 366 112 l 1,54,55
 264 128 264 128 191 201 c 128,-1,56
 118 274 118 274 102 376 c 1,52,-1
464 376 m 1,57,-1
 728 376 l 1,58,59
 712 274 712 274 639 201 c 128,-1,60
 566 128 566 128 464 112 c 1,61,-1
 464 376 l 1,57,-1
EndSplineSet
Validated: 9
Ligature2: "'liga' Standard Ligatures in Latin lookup 0 subtable" m a
EndChar

StartChar: majuna
Encoding: 57407 57407 66
Width: 850
GlyphClass: 3
Flags: W
LayerCount: 2
Fore
SplineSet
426 -26 m 128,-1,1
 405 -26 405 -26 390.5 -11.5 c 128,-1,2
 376 3 376 3 376 24 c 2,3,-1
 376 336 l 2,4,5
 376 357 376 357 390.5 371.5 c 128,-1,6
 405 386 405 386 426 386 c 128,-1,7
 447 386 447 386 461.5 371.5 c 128,-1,8
 476 357 476 357 476 336 c 2,9,-1
 476 24 l 2,10,11
 476 3 476 3 461.5 -11.5 c 128,-1,0
 447 -26 447 -26 426 -26 c 128,-1,1
51 474 m 2,12,13
 30 474 30 474 15.5 488.5 c 128,-1,14
 1 503 1 503 1 524 c 128,-1,15
 1 545 1 545 15.5 559.5 c 128,-1,16
 30 574 30 574 51 574 c 2,17,-1
 301 574 l 2,18,19
 322 574 322 574 336.5 559.5 c 128,-1,20
 351 545 351 545 351 524 c 128,-1,21
 351 503 351 503 336.5 488.5 c 128,-1,22
 322 474 322 474 301 474 c 2,23,-1
 51 474 l 2,12,13
551 474 m 2,24,25
 530 474 530 474 515.5 488.5 c 128,-1,26
 501 503 501 503 501 524 c 128,-1,27
 501 545 501 545 515.5 559.5 c 128,-1,28
 530 574 530 574 551 574 c 2,29,-1
 801 574 l 2,30,31
 822 574 822 574 836.5 559.5 c 128,-1,32
 851 545 851 545 851 524 c 128,-1,33
 851 503 851 503 836.5 488.5 c 128,-1,34
 822 474 822 474 801 474 c 2,35,-1
 551 474 l 2,24,25
EndSplineSet
Validated: 1
Ligature2: "'liga' Standard Ligatures in Latin lookup 0 subtable" m a j u n a
EndChar

StartChar: mama
Encoding: 57408 57408 67
Width: 850
GlyphClass: 3
Flags: W
LayerCount: 2
Fore
SplineSet
342 840 m 0,0,1
 274 840 274 840 211 814 c 128,-1,2
 148 788 148 788 100 740 c 0,3,4
 81 721 81 721 65 699 c 128,-1,5
 49 677 49 677 37 653 c 128,-1,6
 25 629 25 629 16.5 604 c 128,-1,7
 8 579 8 579 4 552 c 128,-1,8
 0 525 0 525 0 498 c 0,9,10
 0 430 0 430 26 367.5 c 128,-1,11
 52 305 52 305 100 257 c 0,12,13
 118 238 118 238 138.5 223 c 128,-1,14
 159 208 159 208 181.5 196 c 128,-1,15
 204 184 204 184 228 176 c 1,16,17
 220 154 220 154 220 132 c 0,18,19
 220 82 220 82 256 46 c 128,-1,20
 292 10 292 10 342 10 c 0,21,22
 375 10 375 10 403 26.5 c 128,-1,23
 431 43 431 43 447.5 71 c 128,-1,24
 464 99 464 99 464 132 c 0,25,26
 464 154 464 154 455 176 c 1,27,28
 529 202 529 202 583 257 c 0,29,30
 631 305 631 305 657.5 367.5 c 128,-1,31
 684 430 684 430 684 498 c 0,32,33
 684 521 684 521 681 543.5 c 128,-1,34
 678 566 678 566 672 587 c 128,-1,35
 666 608 666 608 657.5 629 c 128,-1,36
 649 650 649 650 638 669 c 128,-1,37
 627 688 627 688 613 706 c 128,-1,38
 599 724 599 724 583 740 c 0,39,40
 552 772 552 772 513 794.5 c 128,-1,41
 474 817 474 817 430.5 828.5 c 128,-1,42
 387 840 387 840 342 840 c 0,0,1
342 742 m 0,43,44
 390 742 390 742 435 723.5 c 128,-1,45
 480 705 480 705 514 671 c 0,46,47
 586 599 586 599 586 498 c 128,-1,48
 586 397 586 397 514 326 c 0,49,50
 492 303 492 303 464 287 c 128,-1,51
 436 271 436 271 405 262.5 c 128,-1,52
 374 254 374 254 342 254 c 0,53,54
 241 254 241 254 169.5 325.5 c 128,-1,55
 98 397 98 397 98 498 c 0,56,57
 98 547 98 547 116.5 592 c 128,-1,58
 135 637 135 637 169 671 c 0,59,60
 241 742 241 742 342 742 c 0,43,44
341.5 156 m 128,-1,62
 352 156 352 156 359 149.5 c 128,-1,63
 366 143 366 143 366 132.5 c 128,-1,64
 366 122 366 122 359 115 c 128,-1,65
 352 108 352 108 341.5 108 c 128,-1,66
 331 108 331 108 324 115 c 128,-1,67
 317 122 317 122 317 132.5 c 128,-1,68
 317 143 317 143 324 149.5 c 128,-1,61
 331 156 331 156 341.5 156 c 128,-1,62
EndSplineSet
Validated: 9
Ligature2: "'liga' Standard Ligatures in Latin lookup 0 subtable" m a m a
EndChar

StartChar: mani
Encoding: 57409 57409 68
Width: 850
GlyphClass: 3
Flags: W
LayerCount: 2
Fore
SplineSet
48 841 m 2,0,1
 28 840 28 840 14 826 c 128,-1,2
 0 812 0 812 0 792 c 2,3,4
 0 792 0 792 0 791 c 0,5,6
 0 709 0 709 52 645.5 c 128,-1,7
 104 582 104 582 183 565 c 1,8,-1
 183 242 l 2,9,10
 183 146 183 146 251 78 c 128,-1,11
 319 10 319 10 415 10 c 128,-1,12
 511 10 511 10 579 78 c 128,-1,13
 647 146 647 146 647 242 c 2,14,-1
 647 565 l 1,15,16
 726 582 726 582 778 645.5 c 128,-1,17
 830 709 830 709 830 791 c 2,18,-1
 830 792 l 2,19,20
 830 800 830 800 827.5 807.5 c 128,-1,21
 825 815 825 815 820.5 821 c 128,-1,22
 816 827 816 827 810 831.5 c 128,-1,23
 804 836 804 836 796.5 838.5 c 128,-1,24
 789 841 789 841 781 841 c 128,-1,25
 773 841 773 841 765.5 838.5 c 128,-1,26
 758 836 758 836 752 831.5 c 128,-1,27
 746 827 746 827 741.5 821 c 128,-1,28
 737 815 737 815 734.5 807.5 c 128,-1,29
 732 800 732 800 732 792 c 2,30,31
 732 792 732 792 732 791 c 0,32,33
 732 764 732 764 722 740 c 128,-1,34
 712 716 712 716 695 698 c 128,-1,35
 678 680 678 680 654 669 c 128,-1,36
 630 658 630 658 604 657 c 0,37,38
 601 658 601 658 598 658 c 2,39,-1
 590 657 l 1,40,-1
 240 657 l 2,41,42
 236 658 236 658 232 658 c 0,43,44
 229 658 229 658 226 657 c 0,45,46
 172 660 172 660 135 698.5 c 128,-1,47
 98 737 98 737 98 791 c 2,48,49
 98 791 98 791 98 792 c 0,50,51
 98 812 98 812 83.5 826.5 c 128,-1,52
 69 841 69 841 49 841 c 0,53,54
 48 841 48 841 48 841 c 2,0,1
281 559 m 1,55,-1
 549 559 l 1,56,-1
 549 242 l 2,57,58
 549 228 549 228 546.5 214.5 c 128,-1,59
 544 201 544 201 539 189 c 128,-1,60
 534 177 534 177 526.5 166.5 c 128,-1,61
 519 156 519 156 510 147 c 128,-1,62
 501 138 501 138 490 130.5 c 128,-1,63
 479 123 479 123 467.5 118 c 128,-1,64
 456 113 456 113 442.5 110.5 c 128,-1,65
 429 108 429 108 415 108 c 0,66,67
 359 108 359 108 320 147 c 128,-1,68
 281 186 281 186 281 242 c 2,69,-1
 281 559 l 1,55,-1
EndSplineSet
Validated: 9
Ligature2: "'liga' Standard Ligatures in Latin lookup 0 subtable" m a n i
EndChar

StartChar: meli
Encoding: 57410 57410 69
Width: 850
GlyphClass: 3
Flags: W
LayerCount: 2
Fore
SplineSet
415 841 m 0,0,1
 255 841 255 841 136 732 c 0,2,3
 20 627 20 627 3 472 c 0,4,5
 0 449 0 449 0 426 c 2,6,-1
 0 60 l 2,7,8
 0 59 0 59 0 59 c 2,9,10
 0 49 0 49 4 40 c 128,-1,11
 8 31 8 31 14.5 24.5 c 128,-1,12
 21 18 21 18 30 14 c 128,-1,13
 39 10 39 10 49 10 c 0,14,15
 55 10 55 10 60 11.5 c 128,-1,16
 65 13 65 13 70 15 c 128,-1,17
 75 17 75 17 79.5 20.5 c 128,-1,18
 84 24 84 24 87 28.5 c 128,-1,19
 90 33 90 33 92.5 37.5 c 128,-1,20
 95 42 95 42 96.5 47.5 c 128,-1,21
 98 53 98 53 98 59 c 2,22,23
 98 59 98 59 98 60 c 2,24,-1
 98 426 l 2,25,26
 98 558 98 558 190.5 650.5 c 128,-1,27
 283 743 283 743 415 743 c 0,28,29
 502 743 502 743 575 700.5 c 128,-1,30
 648 658 648 658 690 585 c 128,-1,31
 732 512 732 512 732 426 c 2,32,-1
 732 60 l 2,33,34
 732 59 732 59 732 59 c 2,35,36
 732 27 732 27 761 14 c 0,37,38
 771 10 771 10 781 10 c 0,39,40
 801 10 801 10 815.5 24.5 c 128,-1,41
 830 39 830 39 830 59 c 2,42,-1
 830 60 l 1,43,-1
 830 426 l 2,44,45
 830 493 830 493 809 556.5 c 128,-1,46
 788 620 788 620 749.5 671 c 128,-1,47
 711 722 711 722 660 760.5 c 128,-1,48
 609 799 609 799 545.5 820 c 128,-1,49
 482 841 482 841 415 841 c 0,0,1
415 658 m 0,50,51
 336 658 336 658 268.5 618.5 c 128,-1,52
 201 579 201 579 161.5 511.5 c 128,-1,53
 122 444 122 444 122 365 c 0,54,55
 122 244 122 244 208 158 c 128,-1,56
 294 72 294 72 415 72 c 128,-1,57
 536 72 536 72 622 158 c 128,-1,58
 708 244 708 244 708 365 c 128,-1,59
 708 486 708 486 622 572 c 128,-1,60
 536 658 536 658 415 658 c 0,50,51
415 560 m 128,-1,62
 496 560 496 560 553 503 c 128,-1,63
 610 446 610 446 610 364.5 c 128,-1,64
 610 283 610 283 553 226 c 128,-1,65
 496 169 496 169 415 169 c 128,-1,66
 334 169 334 169 277 226 c 128,-1,67
 220 283 220 283 220 364.5 c 128,-1,68
 220 446 220 446 277 503 c 128,-1,61
 334 560 334 560 415 560 c 128,-1,62
EndSplineSet
Validated: 9
Ligature2: "'liga' Standard Ligatures in Latin lookup 0 subtable" m e l i
EndChar

StartChar: meso
Encoding: 57411 57411 70
Width: 850
GlyphClass: 3
Flags: W
LayerCount: 2
Fore
SplineSet
686 823 m 0,0,1
 673 823 673 823 660.5 811 c 128,-1,2
 648 799 648 799 641 787 c 2,3,-1
 635 775 l 1,4,-1
 635 7 l 2,5,6
 637 3 637 3 641.5 -3.5 c 128,-1,7
 646 -10 646 -10 659.5 -21.5 c 128,-1,8
 673 -33 673 -33 686 -33 c 128,-1,9
 699 -33 699 -33 712 -23 c 128,-1,10
 725 -13 725 -13 731 -3 c 2,11,-1
 737 7 l 1,12,-1
 737 775 l 2,13,14
 736 777 736 777 734.5 780.5 c 128,-1,15
 733 784 733 784 727.5 792 c 128,-1,16
 722 800 722 800 716.5 806.5 c 128,-1,17
 711 813 711 813 702.5 818 c 128,-1,18
 694 823 694 823 686 823 c 0,0,1
134 823 m 0,19,20
 125 823 125 823 117 818 c 128,-1,21
 109 813 109 813 103 806 c 128,-1,22
 97 799 97 799 92 792 c 128,-1,23
 87 785 87 785 85 780 c 2,24,-1
 82 775 l 1,25,-1
 82 7 l 2,26,27
 85 3 85 3 89.5 -3.5 c 128,-1,28
 94 -10 94 -10 107.5 -21.5 c 128,-1,29
 121 -33 121 -33 133.5 -33 c 128,-1,30
 146 -33 146 -33 159 -23 c 128,-1,31
 172 -13 172 -13 178 -3 c 2,32,-1
 185 7 l 1,33,-1
 185 775 l 2,34,35
 182 781 182 781 177.5 789 c 128,-1,36
 173 797 173 797 159.5 810 c 128,-1,37
 146 823 146 823 134 823 c 0,19,20
407 420 m 128,-1,39
 407 425 407 425 410.5 429 c 128,-1,40
 414 433 414 433 419.5 433 c 128,-1,41
 425 433 425 433 428.5 429 c 128,-1,42
 432 425 432 425 432 420 c 128,-1,43
 432 415 432 415 428.5 411 c 128,-1,44
 425 407 425 407 419.5 407 c 128,-1,45
 414 407 414 407 410.5 411 c 128,-1,38
 407 415 407 415 407 420 c 128,-1,39
304 420 m 128,-1,47
 304 372 304 372 338 338.5 c 128,-1,48
 372 305 372 305 419 305 c 0,49,50
 468 305 468 305 501.5 337 c 128,-1,51
 535 369 535 369 535 420 c 0,52,53
 535 464 535 464 500.5 499.5 c 128,-1,54
 466 535 466 535 419 535 c 256,55,56
 372 535 372 535 338 501.5 c 128,-1,46
 304 468 304 468 304 420 c 128,-1,47
EndSplineSet
Validated: 9
Ligature2: "'liga' Standard Ligatures in Latin lookup 0 subtable" m e s o
EndChar

StartChar: mi
Encoding: 57412 57412 71
Width: 850
GlyphClass: 3
Flags: W
LayerCount: 2
Fore
SplineSet
432 840 m 0,0,1
 365 840 365 840 309.5 805 c 128,-1,2
 254 770 254 770 225 713 c 1,3,4
 218 709 218 709 212.5 702 c 128,-1,5
 207 695 207 695 203.5 686.5 c 128,-1,6
 200 678 200 678 200 670 c 2,7,8
 200 670 200 670 200 669 c 2,9,-1
 200 608 l 1,10,-1
 200 59 l 2,11,12
 200 39 200 39 214.5 24.5 c 128,-1,13
 229 10 229 10 249 10 c 128,-1,14
 269 10 269 10 283.5 24.5 c 128,-1,15
 298 39 298 39 298 59 c 2,16,-1
 298 420 l 1,17,18
 327 399 327 399 361 388 c 128,-1,19
 395 377 395 377 432 377 c 0,20,21
 527 377 527 377 595 445 c 128,-1,22
 663 513 663 513 663 608 c 0,23,24
 663 671 663 671 632 724.5 c 128,-1,25
 601 778 601 778 547.5 809 c 128,-1,26
 494 840 494 840 432 840 c 0,0,1
432 742 m 0,27,28
 488 742 488 742 527 703 c 128,-1,29
 566 664 566 664 566 608 c 128,-1,30
 566 552 566 552 527 513 c 128,-1,31
 488 474 488 474 432 474 c 128,-1,32
 376 474 376 474 337 513 c 128,-1,33
 298 552 298 552 298 608 c 0,34,35
 298 645 298 645 315.5 676 c 128,-1,36
 333 707 333 707 364 724.5 c 128,-1,37
 395 742 395 742 432 742 c 0,27,28
EndSplineSet
Validated: 9
Ligature2: "'liga' Standard Ligatures in Latin lookup 0 subtable" m i
EndChar

StartChar: mije
Encoding: 57413 57413 72
Width: 850
GlyphClass: 3
Flags: W
LayerCount: 2
Fore
SplineSet
415 841 m 128,-1,1
 294 841 294 841 208 755 c 128,-1,2
 122 669 122 669 122 548 c 0,3,4
 122 468 122 468 161.5 400.5 c 128,-1,5
 201 333 201 333 268.5 294 c 128,-1,6
 336 255 336 255 415 255 c 0,7,8
 536 255 536 255 622 341 c 128,-1,9
 708 427 708 427 708 548 c 128,-1,10
 708 669 708 669 622 755 c 128,-1,0
 536 841 536 841 415 841 c 128,-1,1
415 743 m 128,-1,12
 496 743 496 743 553 686 c 128,-1,13
 610 629 610 629 610 547.5 c 128,-1,14
 610 466 610 466 553 409 c 128,-1,15
 496 352 496 352 415 352 c 128,-1,16
 334 352 334 352 277 409 c 128,-1,17
 220 466 220 466 220 547.5 c 128,-1,18
 220 629 220 629 277 686 c 128,-1,11
 334 743 334 743 415 743 c 128,-1,12
171 230 m 2,19,20
 90 230 90 230 38 167 c 0,21,22
 0 119 0 119 0 60 c 2,23,-1
 0 59 l 2,24,25
 0 39 0 39 14.5 24.5 c 128,-1,26
 29 10 29 10 49 10 c 0,27,28
 62 10 62 10 73.5 16.5 c 128,-1,29
 85 23 85 23 91.5 34.5 c 128,-1,30
 98 46 98 46 98 59 c 2,31,32
 98 59 98 59 98 60 c 0,33,34
 98 90 98 90 119 111.5 c 128,-1,35
 140 133 140 133 171 133 c 2,36,-1
 659 133 l 2,37,38
 671 133 671 133 682.5 129 c 128,-1,39
 694 125 694 125 703 118.5 c 128,-1,40
 712 112 712 112 718.5 103 c 128,-1,41
 725 94 725 94 728.5 83 c 128,-1,42
 732 72 732 72 732 60 c 0,43,44
 732 59 732 59 732 59 c 2,45,46
 732 39 732 39 746.5 24.5 c 128,-1,47
 761 10 761 10 781 10 c 128,-1,48
 801 10 801 10 815.5 24.5 c 128,-1,49
 830 39 830 39 830 59 c 2,50,51
 830 59 830 59 830 60 c 0,52,53
 830 94 830 94 816.5 125.5 c 128,-1,54
 803 157 803 157 780 180 c 128,-1,55
 757 203 757 203 725.5 216.5 c 128,-1,56
 694 230 694 230 659 230 c 2,57,-1
 171 230 l 2,19,20
EndSplineSet
Validated: 9
Ligature2: "'liga' Standard Ligatures in Latin lookup 0 subtable" m i j e
EndChar

StartChar: misa
Encoding: 57414 57414 73
Width: 850
GlyphClass: 3
Flags: W
LayerCount: 2
Fore
SplineSet
193 482 m 128,-1,1
 272 482 272 482 328.5 426 c 128,-1,2
 385 370 385 370 385 291 c 0,3,4
 385 270 385 270 370.5 255.5 c 128,-1,5
 356 241 356 241 335 241 c 128,-1,6
 314 241 314 241 299.5 255.5 c 128,-1,7
 285 270 285 270 285 291 c 0,8,9
 285 329 285 329 258.5 355.5 c 128,-1,10
 232 382 232 382 193.5 382 c 128,-1,11
 155 382 155 382 128 355.5 c 128,-1,12
 101 329 101 329 101 290.5 c 128,-1,13
 101 252 101 252 128 225.5 c 128,-1,14
 155 199 155 199 193 199 c 0,15,16
 207 199 207 199 218.5 192 c 128,-1,17
 230 185 230 185 236.5 173.5 c 128,-1,18
 243 162 243 162 243 148.5 c 128,-1,19
 243 135 243 135 236.5 123.5 c 128,-1,20
 230 112 230 112 218.5 105.5 c 128,-1,21
 207 99 207 99 193 99 c 0,22,23
 114 99 114 99 57.5 155.5 c 128,-1,24
 1 212 1 212 1 291 c 128,-1,25
 1 370 1 370 57.5 426 c 128,-1,0
 114 482 114 482 193 482 c 128,-1,1
533 362 m 2,26,-1
 549 362 l 2,27,28
 569 362 569 362 584 347.5 c 128,-1,29
 599 333 599 333 599 312 c 1,30,-1
 599 312 l 1,31,32
 599 292 599 292 584 277 c 128,-1,33
 569 262 569 262 549 262 c 2,34,-1
 533 262 l 2,35,36
 513 262 513 262 498 277 c 128,-1,37
 483 292 483 292 483 312 c 1,38,-1
 483 312 l 1,39,40
 483 322 483 322 487 331.5 c 128,-1,41
 491 341 491 341 498 347.5 c 128,-1,42
 505 354 505 354 514 358 c 128,-1,43
 523 362 523 362 533 362 c 2,26,-1
649 362 m 2,44,-1
 664 362 l 2,45,46
 685 362 685 362 699.5 347.5 c 128,-1,47
 714 333 714 333 714 312 c 1,48,-1
 714 312 l 1,49,50
 714 292 714 292 699.5 277 c 128,-1,51
 685 262 685 262 664 262 c 2,52,-1
 649 262 l 2,53,54
 628 262 628 262 613.5 277 c 128,-1,55
 599 292 599 292 599 312 c 1,56,-1
 599 312 l 1,57,58
 599 326 599 326 605.5 337.5 c 128,-1,59
 612 349 612 349 623.5 355.5 c 128,-1,60
 635 362 635 362 649 362 c 2,44,-1
489 506 m 2,61,-1
 490 506 l 2,62,63
 627 503 627 503 726 452 c 0,64,65
 778 425 778 425 809.5 386 c 128,-1,66
 841 347 841 347 841 298.5 c 128,-1,67
 841 250 841 250 809 211.5 c 128,-1,68
 777 173 777 173 725 147 c 0,69,70
 626 98 626 98 489 99 c 0,71,72
 434 99 434 99 387 126.5 c 128,-1,73
 340 154 340 154 312.5 200.5 c 128,-1,74
 285 247 285 247 285 302 c 0,75,76
 285 386 285 386 345 446 c 128,-1,77
 405 506 405 506 489 506 c 2,61,-1
488 406 m 0,78,79
 445 406 445 406 415 376 c 128,-1,80
 385 346 385 346 385 302.5 c 128,-1,81
 385 259 385 259 415 229 c 128,-1,82
 445 199 445 199 489 199 c 1,83,-1
 489 199 l 1,84,85
 603 198 603 198 681 237 c 0,86,87
 712 252 712 252 726.5 268.5 c 128,-1,88
 741 285 741 285 741 298 c 0,89,90
 741 307 741 307 735.5 316.5 c 128,-1,91
 730 326 730 326 715.5 339 c 128,-1,92
 701 352 701 352 680 363 c 0,93,94
 602 403 602 403 488 406 c 0,78,79
EndSplineSet
Validated: 37
Ligature2: "'liga' Standard Ligatures in Latin lookup 0 subtable" m i s a
EndChar

StartChar: misekeke
Encoding: 57415 57415 74
Width: 850
GlyphClass: 3
Flags: W
LayerCount: 2
Fore
SplineSet
154 259 m 1,0,1
 145 108 145 108 263 41 c 0,2,3
 313 12 313 12 371 2.5 c 128,-1,4
 429 -7 429 -7 488 5.5 c 128,-1,5
 547 18 547 18 595 54 c 0,6,7
 636 84 636 84 656 130.5 c 128,-1,8
 676 177 676 177 678 212 c 0,9,10
 678 213 678 213 678 576 c 0,11,12
 678 616 678 616 657.5 662 c 128,-1,13
 637 708 637 708 595 740 c 0,14,15
 547 776 547 776 488 788.5 c 128,-1,16
 429 801 429 801 371 791.5 c 128,-1,17
 313 782 313 782 263 753 c 0,18,19
 205 720 205 720 177.5 662.5 c 128,-1,20
 150 605 150 605 154 535 c 1,21,-1
 154 259 l 1,0,1
247 245 m 0,22,23
 248 248 248 248 248 251 c 2,24,-1
 248 543 l 2,25,26
 248 546 248 546 247 549 c 0,27,28
 242 585 242 585 259.5 619.5 c 128,-1,29
 277 654 277 654 310 672 c 0,30,31
 362 703 362 703 427.5 701.5 c 128,-1,32
 493 700 493 700 539 665 c 0,33,34
 560 649 560 649 573 621 c 128,-1,35
 586 593 586 593 585 578 c 0,36,37
 585 577 585 577 585 576 c 2,38,39
 585 576 585 576 585 574 c 0,40,41
 585 245 585 245 585 219 c 0,42,43
 585 217 585 217 585 216 c 0,44,45
 586 200 586 200 573 172 c 128,-1,46
 560 144 560 144 539 128 c 0,47,48
 492 94 492 94 427 92.5 c 128,-1,49
 362 91 362 91 310 122 c 0,50,51
 277 140 277 140 259.5 174.5 c 128,-1,52
 242 209 242 209 247 245 c 0,22,23
629 393 m 1,53,-1
 629 440 l 1,54,-1
 205 440 l 1,55,-1
 205 393 l 1,56,-1
 205 346 l 1,57,-1
 629 346 l 1,58,-1
 629 393 l 1,53,-1
EndSplineSet
Validated: 37
Ligature2: "'liga' Standard Ligatures in Latin lookup 0 subtable" m i s e k e k e
EndChar

StartChar: moku
Encoding: 57416 57416 75
Width: 850
GlyphClass: 3
Flags: W
LayerCount: 2
Fore
SplineSet
49 840 m 2,0,1
 18 840 18 840 5 812 c 0,2,3
 1 801 1 801 0 791 c 2,4,-1
 0 790 l 2,5,6
 2 728 2 728 37.5 673 c 128,-1,7
 73 618 73 618 133 578 c 0,8,9
 193 539 193 539 267 519 c 128,-1,10
 341 499 341 499 421 499 c 0,11,12
 587 499 587 499 705 578 c 0,13,14
 725 592 725 592 741.5 607 c 128,-1,15
 758 622 758 622 772 638.5 c 128,-1,16
 786 655 786 655 797 673.5 c 128,-1,17
 808 692 808 692 815.5 711.5 c 128,-1,18
 823 731 823 731 826.5 751.5 c 128,-1,19
 830 772 830 772 830 792 c 256,20,21
 830 812 830 812 815.5 826 c 128,-1,22
 801 840 801 840 781 840 c 2,23,-1
 49 840 l 2,0,1
110 743 m 1,24,-1
 723 743 l 1,25,26
 714 720 714 720 696 699 c 128,-1,27
 678 678 678 678 650 659 c 0,28,29
 607 630 607 630 546.5 613 c 128,-1,30
 486 596 486 596 421 596 c 0,31,32
 284 596 284 596 187 660 c 0,33,34
 132 696 132 696 110 743 c 1,24,-1
419 469 m 0,35,36
 357 469 357 469 302 435.5 c 128,-1,37
 247 402 247 402 206 343 c 0,38,39
 154 267 154 267 134 166 c 1,40,-1
 84 216 l 2,41,42
 69 231 69 231 49 231 c 256,43,44
 29 231 29 231 14.5 216.5 c 128,-1,45
 0 202 0 202 0 182 c 0,46,47
 1 162 1 162 15 147 c 2,48,-1
 137 25 l 2,49,50
 141 21 141 21 147 18 c 128,-1,51
 153 15 153 15 159.5 13 c 128,-1,52
 166 11 166 11 171 11 c 0,53,54
 184 11 184 11 195.5 17.5 c 128,-1,55
 207 24 207 24 213.5 35 c 128,-1,56
 220 46 220 46 220 59 c 0,57,58
 223 194 223 194 287 288 c 0,59,60
 306 316 306 316 328.5 335 c 128,-1,61
 351 354 351 354 373.5 363 c 128,-1,62
 396 372 396 372 419 372 c 0,63,64
 454 372 454 372 487.5 351 c 128,-1,65
 521 330 521 330 548 288 c 0,66,67
 611 195 611 195 610 60 c 0,68,69
 610 59 610 59 610 59 c 2,70,71
 610 39 610 39 624.5 24.5 c 128,-1,72
 639 10 639 10 659 10 c 128,-1,73
 679 10 679 10 693.5 24.5 c 128,-1,74
 708 39 708 39 708 59 c 0,75,76
 708 224 708 224 630 342 c 0,77,78
 610 371 610 371 586.5 394.5 c 128,-1,79
 563 418 563 418 536 435 c 128,-1,80
 509 452 509 452 479.5 460.5 c 128,-1,81
 450 469 450 469 419 469 c 0,35,36
EndSplineSet
Validated: 41
Ligature2: "'liga' Standard Ligatures in Latin lookup 0 subtable" m o k u
EndChar

StartChar: moli
Encoding: 57417 57417 76
Width: 850
GlyphClass: 3
Flags: W
LayerCount: 2
Fore
SplineSet
415 840 m 128,-1,1
 360 840 360 840 307.5 826 c 128,-1,2
 255 812 255 812 207.5 784.5 c 128,-1,3
 160 757 160 757 122 718 c 0,4,5
 63 660 63 660 31.5 584 c 128,-1,6
 0 508 0 508 0 425 c 128,-1,7
 0 342 0 342 31.5 266 c 128,-1,8
 63 190 63 190 121.5 131.5 c 128,-1,9
 180 73 180 73 256 41.5 c 128,-1,10
 332 10 332 10 415 10 c 128,-1,11
 498 10 498 10 574 41.5 c 128,-1,12
 650 73 650 73 708.5 131.5 c 128,-1,13
 767 190 767 190 798.5 266 c 128,-1,14
 830 342 830 342 830 425 c 0,15,16
 830 480 830 480 816 532.5 c 128,-1,17
 802 585 802 585 774.5 632.5 c 128,-1,18
 747 680 747 680 708.5 718.5 c 128,-1,19
 670 757 670 757 622.5 784.5 c 128,-1,20
 575 812 575 812 522.5 826 c 128,-1,0
 470 840 470 840 415 840 c 128,-1,1
415 742 m 128,-1,22
 446 742 446 742 477 736 c 128,-1,23
 508 730 508 730 536.5 718 c 128,-1,24
 565 706 565 706 591 689 c 128,-1,25
 617 672 617 672 639 649 c 0,26,27
 684 605 684 605 708 546.5 c 128,-1,28
 732 488 732 488 732 425 c 128,-1,29
 732 362 732 362 708 303.5 c 128,-1,30
 684 245 684 245 639.5 200.5 c 128,-1,31
 595 156 595 156 536.5 132 c 128,-1,32
 478 108 478 108 415 108 c 128,-1,33
 352 108 352 108 293.5 132 c 128,-1,34
 235 156 235 156 190.5 200.5 c 128,-1,35
 146 245 146 245 122 303.5 c 128,-1,36
 98 362 98 362 98 425 c 0,37,38
 98 467 98 467 108.5 507.5 c 128,-1,39
 119 548 119 548 140 584 c 128,-1,40
 161 620 161 620 191 649 c 0,41,42
 213 672 213 672 239 689 c 128,-1,43
 265 706 265 706 293.5 718 c 128,-1,44
 322 730 322 730 353 736 c 128,-1,21
 384 742 384 742 415 742 c 128,-1,22
219 535 m 0,45,46
 206 535 206 535 194.5 528.5 c 128,-1,47
 183 522 183 522 176.5 511 c 128,-1,48
 170 500 170 500 170 487 c 0,49,50
 170 466 170 466 185 452 c 2,51,-1
 212 425 l 1,52,-1
 185 398 l 2,53,54
 181 395 181 395 177.5 388.5 c 128,-1,55
 174 382 174 382 172 375.5 c 128,-1,56
 170 369 170 369 170 363 c 256,57,58
 170 357 170 357 172 350.5 c 128,-1,59
 174 344 174 344 177 338.5 c 128,-1,60
 180 333 180 333 184.5 328.5 c 128,-1,61
 189 324 189 324 194.5 321 c 128,-1,62
 200 318 200 318 206.5 316.5 c 128,-1,63
 213 315 213 315 219 315 c 256,64,65
 225 315 225 315 231.5 317 c 128,-1,66
 238 319 238 319 244 322 c 128,-1,67
 250 325 250 325 254 329 c 2,68,-1
 281 356 l 1,69,-1
 307 329 l 2,70,71
 322 315 322 315 342 315 c 0,72,73
 352 315 352 315 361 318.5 c 128,-1,74
 370 322 370 322 376.5 328.5 c 128,-1,75
 383 335 383 335 387 344.5 c 128,-1,76
 391 354 391 354 391 363 c 256,77,78
 391 372 391 372 386.5 382.5 c 128,-1,79
 382 393 382 393 376 398 c 2,80,-1
 350 425 l 1,81,-1
 376 452 l 2,82,83
 380 455 380 455 383.5 461.5 c 128,-1,84
 387 468 387 468 389 474.5 c 128,-1,85
 391 481 391 481 391 487 c 0,86,87
 391 507 391 507 376.5 521 c 128,-1,88
 362 535 362 535 342 535 c 0,89,90
 334 535 334 535 323.5 531 c 128,-1,91
 313 527 313 527 307 521 c 2,92,-1
 281 494 l 1,93,-1
 254 521 l 2,94,95
 240 535 240 535 219 535 c 0,45,46
488 535 m 0,96,97
 478 535 478 535 469 531.5 c 128,-1,98
 460 528 460 528 453.5 521.5 c 128,-1,99
 447 515 447 515 443 505.5 c 128,-1,100
 439 496 439 496 439 487 c 0,101,102
 439 466 439 466 454 452 c 2,103,-1
 480 425 l 1,104,-1
 454 398 l 2,105,106
 450 395 450 395 446.5 388.5 c 128,-1,107
 443 382 443 382 441 375.5 c 128,-1,108
 439 369 439 369 439 363 c 256,109,110
 439 357 439 357 440.5 350.5 c 128,-1,111
 442 344 442 344 445.5 338.5 c 128,-1,112
 449 333 449 333 453.5 328.5 c 128,-1,113
 458 324 458 324 463 321 c 128,-1,114
 468 318 468 318 474.5 316.5 c 128,-1,115
 481 315 481 315 488 315 c 0,116,117
 496 315 496 315 506.5 319 c 128,-1,118
 517 323 517 323 523 329 c 2,119,-1
 549 356 l 1,120,-1
 576 329 l 2,121,122
 578 327 578 327 581.5 325 c 128,-1,123
 585 323 585 323 588.5 321 c 128,-1,124
 592 319 592 319 596 317.5 c 128,-1,125
 600 316 600 316 603.5 315.5 c 128,-1,126
 607 315 607 315 611 315 c 0,127,128
 631 315 631 315 645.5 329 c 128,-1,129
 660 343 660 343 660 363 c 0,130,131
 660 384 660 384 645 398 c 2,132,-1
 618 425 l 1,133,-1
 645 452 l 2,134,135
 651 457 651 457 655.5 467.5 c 128,-1,136
 660 478 660 478 660 487 c 0,137,138
 660 507 660 507 645.5 521 c 128,-1,139
 631 535 631 535 611 535 c 0,140,141
 602 535 602 535 592 531 c 128,-1,142
 582 527 582 527 576 521 c 2,143,-1
 549 494 l 1,144,-1
 523 521 l 2,145,146
 508 535 508 535 488 535 c 0,96,97
EndSplineSet
Validated: 9
Ligature2: "'liga' Standard Ligatures in Latin lookup 0 subtable" m o l i
EndChar

StartChar: monsi
Encoding: 57418 57418 77
Width: 850
GlyphClass: 3
Flags: W
LayerCount: 2
Fore
SplineSet
293 839 m 2,0,1
 272 839 272 839 258 825 c 128,-1,2
 244 811 244 811 244 791 c 2,3,-1
 244 59 l 2,4,5
 244 39 244 39 258 24.5 c 128,-1,6
 272 10 272 10 293 10 c 2,7,-1
 781 10 l 1,8,9
 781 10 781 10 781 10 c 1,10,11
 801 10 801 10 815.5 24.5 c 128,-1,12
 830 39 830 39 830 59 c 0,13,14
 830 72 830 72 823.5 83.5 c 128,-1,15
 817 95 817 95 805.5 101.5 c 128,-1,16
 794 108 794 108 781 108 c 1,17,18
 781 108 781 108 781 108 c 1,19,-1
 341 108 l 1,20,-1
 341 742 l 1,21,-1
 781 742 l 2,22,23
 801 742 801 742 815.5 756 c 128,-1,24
 830 770 830 770 830 790.5 c 128,-1,25
 830 811 830 811 815.5 825 c 128,-1,26
 801 839 801 839 781 839 c 2,27,-1
 293 839 l 2,0,1
110 534 m 128,-1,29
 65 534 65 534 32.5 502 c 128,-1,30
 0 470 0 470 0 425 c 128,-1,31
 0 380 0 380 32.5 347.5 c 128,-1,32
 65 315 65 315 110 315 c 0,33,34
 139 315 139 315 164.5 329.5 c 128,-1,35
 190 344 190 344 205 369.5 c 128,-1,36
 220 395 220 395 220 425 c 0,37,38
 220 470 220 470 187.5 502 c 128,-1,28
 155 534 155 534 110 534 c 128,-1,29
110 437 m 0,39,40
 122 437 122 437 122 425 c 0,41,42
 122 421 122 421 120.5 418 c 128,-1,43
 119 415 119 415 116 413.5 c 128,-1,44
 113 412 113 412 109.5 412 c 128,-1,45
 106 412 106 412 103.5 413.5 c 128,-1,46
 101 415 101 415 99.5 418 c 128,-1,47
 98 421 98 421 98 425 c 0,48,49
 98 430 98 430 101 433.5 c 128,-1,50
 104 437 104 437 110 437 c 0,39,40
EndSplineSet
Validated: 5
Ligature2: "'liga' Standard Ligatures in Latin lookup 0 subtable" m o n s i
EndChar

StartChar: monsuta
Encoding: 57419 57419 78
Width: 859
GlyphClass: 3
Flags: W
LayerCount: 2
Fore
SplineSet
314 635 m 2,0,1
 314 635 314 635 315 635 c 0,2,3
 326 635 326 635 336.5 630 c 128,-1,4
 347 625 347 625 354.5 615.5 c 128,-1,5
 362 606 362 606 364 595 c 2,6,-1
 427 292 l 1,7,-1
 494 595 l 2,8,9
 497 612 497 612 511.5 623.5 c 128,-1,10
 526 635 526 635 543 635 c 256,11,12
 560 635 560 635 574.5 623 c 128,-1,13
 589 611 589 611 592 595 c 2,14,-1
 637 380 l 1,15,-1
 677 529 l 2,16,17
 681 544 681 544 695 555 c 128,-1,18
 709 566 709 566 725 566 c 256,19,20
 741 566 741 566 755 555 c 128,-1,21
 769 544 769 544 774 529 c 2,22,-1
 845 277 l 2,23,24
 847 270 847 270 847 263 c 0,25,26
 847 247 847 247 836.5 233 c 128,-1,27
 826 219 826 219 811 214 c 0,28,29
 804 213 804 213 797 213 c 0,30,31
 781 213 781 213 767 223.5 c 128,-1,32
 753 234 753 234 748 249 c 2,33,-1
 726 326 l 1,34,-1
 679 150 l 2,35,36
 675 134 675 134 660.5 123 c 128,-1,37
 646 112 646 112 630 112 c 0,38,39
 613 112 613 112 598.5 124 c 128,-1,40
 584 136 584 136 581 153 c 2,41,-1
 541 343 l 1,42,-1
 475 39 l 2,43,44
 473 29 473 29 465.5 19.5 c 128,-1,45
 458 10 458 10 447.5 5 c 128,-1,46
 437 0 437 0 426 0 c 0,47,48
 409 0 409 0 394.5 11.5 c 128,-1,49
 380 23 380 23 376 40 c 2,50,-1
 312 349 l 1,51,-1
 269 164 l 2,52,53
 266 147 266 147 251.5 136 c 128,-1,54
 237 125 237 125 220 125 c 0,55,56
 204 125 204 125 189.5 136 c 128,-1,57
 175 147 175 147 171 162 c 2,58,-1
 128 330 l 1,59,-1
 98 222 l 2,60,61
 93 207 93 207 79 196.5 c 128,-1,62
 65 186 65 186 49 186 c 0,63,64
 42 186 42 186 35 188 c 0,65,66
 20 192 20 192 9.5 206.5 c 128,-1,67
 -1 221 -1 221 -1 236 c 0,68,69
 -1 243 -1 243 1 250 c 2,70,-1
 82 536 l 2,71,72
 87 552 87 552 101 562.5 c 128,-1,73
 115 573 115 573 131 573 c 0,74,75
 141 573 141 573 151.5 568 c 128,-1,76
 162 563 162 563 169.5 554 c 128,-1,77
 177 545 177 545 180 535 c 2,78,-1
 218 388 l 1,79,-1
 266 596 l 2,80,81
 268 607 268 607 275.5 615.5 c 128,-1,82
 283 624 283 624 293 629.5 c 128,-1,83
 303 635 303 635 314 635 c 2,0,1
EndSplineSet
Validated: 1
Ligature2: "'liga' Standard Ligatures in Latin lookup 0 subtable" m o n s u t a
EndChar

StartChar: mu
Encoding: 57420 57420 79
Width: 850
GlyphClass: 3
Flags: W
LayerCount: 2
Fore
SplineSet
146 840 m 0,0,1
 107 840 107 840 73 820.5 c 128,-1,2
 39 801 39 801 19.5 767 c 128,-1,3
 0 733 0 733 0 694 c 0,4,5
 0 642 0 642 32.5 602 c 128,-1,6
 65 562 65 562 114 551 c 1,7,8
 61 465 61 465 61 364 c 0,9,10
 61 294 61 294 88 228.5 c 128,-1,11
 115 163 115 163 164.5 113.5 c 128,-1,12
 214 64 214 64 279.5 37 c 128,-1,13
 345 10 345 10 415 10 c 128,-1,14
 485 10 485 10 550.5 37 c 128,-1,15
 616 64 616 64 665.5 113.5 c 128,-1,16
 715 163 715 163 742 228.5 c 128,-1,17
 769 294 769 294 769 364 c 0,18,19
 769 414 769 414 755.5 461.5 c 128,-1,20
 742 509 742 509 716 551 c 1,21,22
 748 558 748 558 774 578.5 c 128,-1,23
 800 599 800 599 815 629.5 c 128,-1,24
 830 660 830 660 830 694 c 0,25,26
 830 723 830 723 818.5 750 c 128,-1,27
 807 777 807 777 787 797 c 128,-1,28
 767 817 767 817 740 828.5 c 128,-1,29
 713 840 713 840 684 840 c 0,30,31
 624 840 624 840 581 798 c 128,-1,32
 538 756 538 756 537 696 c 1,33,34
 478 718 478 718 415 718 c 0,35,36
 384 718 384 718 353 712.5 c 128,-1,37
 322 707 322 707 293 696 c 1,38,39
 292 756 292 756 249 798 c 128,-1,40
 206 840 206 840 146 840 c 0,0,1
146.5 742 m 128,-1,42
 167 742 167 742 181 728 c 128,-1,43
 195 714 195 714 195 693.5 c 128,-1,44
 195 673 195 673 181 659 c 128,-1,45
 167 645 167 645 146 645 c 0,46,47
 133 645 133 645 121.5 651.5 c 128,-1,48
 110 658 110 658 104 669 c 128,-1,49
 98 680 98 680 98 694 c 0,50,51
 98 714 98 714 112 728 c 128,-1,41
 126 742 126 742 146.5 742 c 128,-1,42
684 742 m 0,52,53
 704 742 704 742 718 728 c 128,-1,54
 732 714 732 714 732 693.5 c 128,-1,55
 732 673 732 673 718 659 c 128,-1,56
 704 645 704 645 683.5 645 c 128,-1,57
 663 645 663 645 649 659 c 128,-1,58
 635 673 635 673 635 694 c 0,59,60
 635 707 635 707 641.5 718.5 c 128,-1,61
 648 730 648 730 659 736 c 128,-1,62
 670 742 670 742 684 742 c 0,52,53
415 620 m 128,-1,64
 521 620 521 620 596 545 c 0,65,66
 620 521 620 521 637 492 c 128,-1,67
 654 463 654 463 662.5 430.5 c 128,-1,68
 671 398 671 398 671 364 c 0,69,70
 671 258 671 258 596 183 c 0,71,72
 572 159 572 159 543 142 c 128,-1,73
 514 125 514 125 481.5 116.5 c 128,-1,74
 449 108 449 108 415 108 c 0,75,76
 309 108 309 108 234 183 c 128,-1,77
 159 258 159 258 159 364 c 128,-1,78
 159 470 159 470 234 545 c 128,-1,63
 309 620 309 620 415 620 c 128,-1,64
415 291 m 128,-1,80
 392 291 392 291 372.5 279.5 c 128,-1,81
 353 268 353 268 341.5 248 c 128,-1,82
 330 228 330 228 330 205 c 0,83,84
 330 170 330 170 355 145 c 128,-1,85
 380 120 380 120 415 120 c 0,86,87
 432 120 432 120 448 127 c 128,-1,88
 464 134 464 134 475.5 145.5 c 128,-1,89
 487 157 487 157 493.5 172.5 c 128,-1,90
 500 188 500 188 500 205 c 0,91,92
 500 228 500 228 488.5 248 c 128,-1,93
 477 268 477 268 457.5 279.5 c 128,-1,79
 438 291 438 291 415 291 c 128,-1,80
415 218 m 128,-1,95
 420 218 420 218 423.5 214 c 128,-1,96
 427 210 427 210 427 205 c 0,97,98
 427 202 427 202 425.5 199.5 c 128,-1,99
 424 197 424 197 421 195 c 128,-1,100
 418 193 418 193 415 193 c 0,101,102
 410 193 410 193 406.5 197 c 128,-1,103
 403 201 403 201 403 205.5 c 128,-1,104
 403 210 403 210 406.5 214 c 128,-1,94
 410 218 410 218 415 218 c 128,-1,95
EndSplineSet
Validated: 9
Ligature2: "'liga' Standard Ligatures in Latin lookup 0 subtable" m u
EndChar

StartChar: mulapisu
Encoding: 57421 57421 80
Width: 850
GlyphClass: 3
Flags: W
LayerCount: 2
Fore
SplineSet
425 850 m 2,0,1
 437 850 437 850 450 842 c 128,-1,2
 463 834 463 834 469 823 c 2,3,-1
 844 73 l 2,4,5
 849 62 849 62 849 50 c 0,6,7
 849 30 849 30 834.5 15 c 128,-1,8
 820 0 820 0 799 0 c 2,9,-1
 49 0 l 2,10,11
 28 0 28 0 13.5 15 c 128,-1,12
 -1 30 -1 30 -1 50 c 0,13,14
 -1 62 -1 62 4 73 c 2,15,-1
 379 823 l 2,16,17
 385 834 385 834 398 842 c 128,-1,18
 411 850 411 850 424 850 c 2,19,-1
 425 850 l 2,0,1
424 689 m 1,20,-1
 130 100 l 1,21,-1
 718 100 l 1,22,-1
 424 689 l 1,20,-1
311 328 m 0,23,24
 338 328 338 328 361.5 315 c 128,-1,25
 385 302 385 302 400.5 280.5 c 128,-1,26
 416 259 416 259 421 233 c 0,27,28
 425 224 425 224 425 213.5 c 128,-1,29
 425 203 425 203 421 194 c 0,30,31
 414 153 414 153 383 126 c 128,-1,32
 352 99 352 99 311 99 c 0,33,34
 264 99 264 99 230 132.5 c 128,-1,35
 196 166 196 166 196 213 c 128,-1,36
 196 260 196 260 230 294 c 128,-1,37
 264 328 264 328 311 328 c 0,23,24
310.5 228 m 128,-1,39
 296 228 296 228 296 213.5 c 128,-1,40
 296 199 296 199 310.5 199 c 128,-1,41
 325 199 325 199 325 213.5 c 128,-1,38
 325 228 325 228 310.5 228 c 128,-1,39
539 328 m 0,42,43
 580 328 580 328 611 300.5 c 128,-1,44
 642 273 642 273 649 233 c 0,45,46
 653 224 653 224 653 213.5 c 128,-1,47
 653 203 653 203 649 194 c 0,48,49
 642 153 642 153 611 126 c 128,-1,50
 580 99 580 99 539 99 c 0,51,52
 492 99 492 99 458.5 132.5 c 128,-1,53
 425 166 425 166 425 213 c 128,-1,54
 425 260 425 260 458.5 294 c 128,-1,55
 492 328 492 328 539 328 c 0,42,43
539 228 m 128,-1,57
 525 228 525 228 525 213.5 c 128,-1,58
 525 199 525 199 539 199 c 128,-1,59
 553 199 553 199 553 213.5 c 128,-1,56
 553 228 553 228 539 228 c 128,-1,57
427 525 m 0,60,61
 468 525 468 525 498.5 497.5 c 128,-1,62
 529 470 529 470 537 430 c 0,63,64
 541 420 541 420 541 410 c 128,-1,65
 541 400 541 400 537 391 c 0,66,67
 529 350 529 350 498.5 323 c 128,-1,68
 468 296 468 296 427 296 c 0,69,70
 380 296 380 296 346 329.5 c 128,-1,71
 312 363 312 363 312 410 c 128,-1,72
 312 457 312 457 346 491 c 128,-1,73
 380 525 380 525 427 525 c 0,60,61
426.5 425 m 128,-1,75
 441 425 441 425 441 410.5 c 128,-1,76
 441 396 441 396 426.5 396 c 128,-1,77
 412 396 412 396 412 410.5 c 128,-1,74
 412 425 412 425 426.5 425 c 128,-1,75
EndSplineSet
Validated: 5
Ligature2: "'liga' Standard Ligatures in Latin lookup 0 subtable" m u l a p i s u
EndChar

StartChar: mun
Encoding: 57422 57422 81
Width: 850
GlyphClass: 3
Flags: W
LayerCount: 2
Fore
SplineSet
170 840 m 0,0,1
 169 840 169 840 169 840 c 2,2,3
 159 840 159 840 150 836 c 128,-1,4
 141 832 141 832 134.5 825.5 c 128,-1,5
 128 819 128 819 124 810 c 128,-1,6
 120 801 120 801 120 791 c 256,7,8
 120 781 120 781 126 769 c 128,-1,9
 132 757 132 757 140 751 c 0,10,11
 230 687 230 687 278.5 601.5 c 128,-1,12
 327 516 327 516 327 423.5 c 128,-1,13
 327 331 327 331 278.5 246.5 c 128,-1,14
 230 162 230 162 141 99 c 0,15,16
 132 93 132 93 126 81 c 128,-1,17
 120 69 120 69 120 59 c 0,18,19
 120 27 120 27 149 14 c 0,20,21
 159 10 159 10 169 10 c 0,22,23
 273 10 273 10 369 40 c 128,-1,24
 465 70 465 70 540 126 c 0,25,26
 577 154 577 154 607 188 c 128,-1,27
 637 222 637 222 657.5 259.5 c 128,-1,28
 678 297 678 297 689 338 c 128,-1,29
 700 379 700 379 700 421 c 0,30,31
 700 506 700 506 658 583 c 128,-1,32
 616 660 616 660 540 719 c 0,33,34
 465 776 465 776 369.5 807 c 128,-1,35
 274 838 274 838 170 840 c 0,0,1
314 721 m 1,36,37
 411 695 411 695 481 641 c 0,38,39
 521 611 521 611 548 574.5 c 128,-1,40
 575 538 575 538 589 499.5 c 128,-1,41
 603 461 603 461 603 421 c 0,42,43
 603 361 603 361 572 305 c 128,-1,44
 541 249 541 249 481 204 c 0,45,46
 410 151 410 151 313 126 c 1,47,48
 424 261 424 261 424 424 c 0,49,50
 424 586 424 586 314 721 c 1,36,37
EndSplineSet
Validated: 9
Ligature2: "'liga' Standard Ligatures in Latin lookup 0 subtable" m u n
EndChar

StartChar: musi
Encoding: 57423 57423 82
Width: 850
GlyphClass: 3
Flags: W
LayerCount: 2
Fore
SplineSet
171 840 m 128,-1,1
 101 840 101 840 50.5 789.5 c 128,-1,2
 0 739 0 739 0 669 c 0,3,4
 0 650 0 650 4 631.5 c 128,-1,5
 8 613 8 613 16 597 c 128,-1,6
 24 581 24 581 35 566.5 c 128,-1,7
 46 552 46 552 59.5 540.5 c 128,-1,8
 73 529 73 529 89 520 c 128,-1,9
 105 511 105 511 122 505 c 1,10,-1
 122 303 l 2,11,12
 122 182 122 182 208 96 c 128,-1,13
 294 10 294 10 415 10 c 128,-1,14
 536 10 536 10 622 96 c 128,-1,15
 708 182 708 182 708 303 c 2,16,-1
 708 505 l 1,17,18
 761 522 761 522 795.5 567 c 128,-1,19
 830 612 830 612 830 669 c 0,20,21
 830 715 830 715 807 754.5 c 128,-1,22
 784 794 784 794 744.5 817 c 128,-1,23
 705 840 705 840 659 840 c 128,-1,24
 613 840 613 840 573.5 817 c 128,-1,25
 534 794 534 794 511 754.5 c 128,-1,26
 488 715 488 715 488 669 c 0,27,28
 488 631 488 631 504 597.5 c 128,-1,29
 520 564 520 564 547.5 540 c 128,-1,30
 575 516 575 516 610 505 c 1,31,-1
 610 303 l 2,32,33
 610 222 610 222 553 165 c 128,-1,34
 496 108 496 108 415 108 c 128,-1,35
 334 108 334 108 277 165 c 128,-1,36
 220 222 220 222 220 303 c 2,37,-1
 220 505 l 1,38,39
 273 522 273 522 307.5 567 c 128,-1,40
 342 612 342 612 342 669 c 0,41,42
 342 739 342 739 291.5 789.5 c 128,-1,0
 241 840 241 840 171 840 c 128,-1,1
171 742 m 0,43,44
 191 742 191 742 208 732.5 c 128,-1,45
 225 723 225 723 234.5 706 c 128,-1,46
 244 689 244 689 244 669 c 0,47,48
 244 640 244 640 224.5 619 c 128,-1,49
 205 598 205 598 177 596 c 0,50,51
 174 597 174 597 171 597 c 128,-1,52
 168 597 168 597 165 596 c 0,53,54
 136 598 136 598 117 619 c 128,-1,55
 98 640 98 640 98 669 c 0,56,57
 98 700 98 700 119 721 c 128,-1,58
 140 742 140 742 171 742 c 0,43,44
659 742 m 128,-1,60
 690 742 690 742 711 721 c 128,-1,61
 732 700 732 700 732 669 c 0,62,63
 732 640 732 640 713 619 c 128,-1,64
 694 598 694 598 665 596 c 0,65,66
 662 597 662 597 659 597 c 128,-1,67
 656 597 656 597 653 596 c 0,68,69
 624 598 624 598 605 619 c 128,-1,70
 586 640 586 640 586 669 c 0,71,72
 586 700 586 700 607 721 c 128,-1,59
 628 742 628 742 659 742 c 128,-1,60
EndSplineSet
Validated: 9
Ligature2: "'liga' Standard Ligatures in Latin lookup 0 subtable" m u s i
EndChar

StartChar: mute
Encoding: 57424 57424 83
Width: 850
GlyphClass: 3
Flags: W
LayerCount: 2
Fore
SplineSet
48 841 m 2,0,1
 28 841 28 841 14 826.5 c 128,-1,2
 0 812 0 812 0 793 c 0,3,4
 0 792 0 792 0 792 c 1,5,-1
 0 60 l 1,6,-1
 0 59 l 2,7,8
 0 39 0 39 14.5 24.5 c 128,-1,9
 29 10 29 10 49 10 c 0,10,11
 62 10 62 10 73.5 16.5 c 128,-1,12
 85 23 85 23 91.5 34.5 c 128,-1,13
 98 46 98 46 98 59 c 2,14,15
 98 59 98 59 98 60 c 2,16,-1
 98 792 l 1,17,18
 98 792 98 792 98 793 c 0,19,20
 98 813 98 813 83.5 827 c 128,-1,21
 69 841 69 841 49 841 c 0,22,23
 48 841 48 841 48 841 c 2,0,1
414 841 m 0,24,25
 394 841 394 841 380 826.5 c 128,-1,26
 366 812 366 812 366 793 c 0,27,28
 366 792 366 792 366 792 c 1,29,-1
 366 60 l 2,30,31
 366 59 366 59 366 59 c 2,32,33
 366 46 366 46 372.5 34.5 c 128,-1,34
 379 23 379 23 390.5 16.5 c 128,-1,35
 402 10 402 10 415 10 c 0,36,37
 435 10 435 10 449.5 24.5 c 128,-1,38
 464 39 464 39 464 59 c 2,39,40
 464 59 464 59 464 60 c 2,41,-1
 464 792 l 1,42,-1
 464 793 l 2,43,44
 464 813 464 813 449.5 827 c 128,-1,45
 435 841 435 841 415 841 c 2,46,47
 415 841 415 841 414 841 c 0,24,25
780 841 m 0,48,49
 771 841 771 841 762 837 c 128,-1,50
 753 833 753 833 746.5 826.5 c 128,-1,51
 740 820 740 820 736 811 c 128,-1,52
 732 802 732 802 732 793 c 0,53,54
 732 792 732 792 732 792 c 1,55,-1
 732 60 l 2,56,57
 732 59 732 59 732 59 c 2,58,59
 732 39 732 39 746.5 24.5 c 128,-1,60
 761 10 761 10 781 10 c 128,-1,61
 801 10 801 10 815.5 24.5 c 128,-1,62
 830 39 830 39 830 59 c 2,63,64
 830 59 830 59 830 60 c 2,65,-1
 830 792 l 1,66,-1
 830 793 l 2,67,68
 830 813 830 813 815.5 827 c 128,-1,69
 801 841 801 841 781 841 c 2,70,71
 781 841 781 841 780 841 c 0,48,49
EndSplineSet
Validated: 9
Ligature2: "'liga' Standard Ligatures in Latin lookup 0 subtable" m u t e
EndChar

StartChar: namako
Encoding: 57425 57425 84
Width: 850
GlyphClass: 3
Flags: W
LayerCount: 2
Fore
SplineSet
425 836 m 128,-1,1
 445 836 445 836 459.5 821.5 c 128,-1,2
 474 807 474 807 474 787 c 2,3,-1
 474 555 l 2,4,5
 474 534 474 534 459.5 519.5 c 128,-1,6
 445 505 445 505 425 505 c 0,7,8
 412 505 412 505 400.5 512 c 128,-1,9
 389 519 389 519 382.5 530 c 128,-1,10
 376 541 376 541 376 555 c 2,11,-1
 376 787 l 2,12,13
 376 807 376 807 390.5 821.5 c 128,-1,0
 405 836 405 836 425 836 c 128,-1,1
54 464 m 2,14,-1
 302 464 l 2,15,16
 312 464 312 464 321 460.5 c 128,-1,17
 330 457 330 457 336.5 450 c 128,-1,18
 343 443 343 443 347 434 c 128,-1,19
 351 425 351 425 351 415 c 0,20,21
 351 395 351 395 336.5 380.5 c 128,-1,22
 322 366 322 366 302 366 c 2,23,-1
 54 366 l 2,24,25
 34 366 34 366 19.5 380.5 c 128,-1,26
 5 395 5 395 5 415 c 0,27,28
 5 428 5 428 11.5 439.5 c 128,-1,29
 18 451 18 451 29.5 457.5 c 128,-1,30
 41 464 41 464 54 464 c 2,14,-1
548 464 m 2,31,-1
 796 464 l 2,32,33
 816 464 816 464 830.5 449.5 c 128,-1,34
 845 435 845 435 845 415 c 128,-1,35
 845 395 845 395 830.5 380.5 c 128,-1,36
 816 366 816 366 796 366 c 2,37,-1
 548 366 l 2,38,39
 528 366 528 366 513.5 380.5 c 128,-1,40
 499 395 499 395 499 415 c 128,-1,41
 499 435 499 435 513.5 449.5 c 128,-1,42
 528 464 528 464 548 464 c 2,31,-1
425 326 m 128,-1,44
 445 326 445 326 459.5 311.5 c 128,-1,45
 474 297 474 297 474 277 c 2,46,-1
 474 45 l 2,47,48
 474 24 474 24 459.5 9.5 c 128,-1,49
 445 -5 445 -5 425 -5 c 128,-1,50
 405 -5 405 -5 390.5 9.5 c 128,-1,51
 376 24 376 24 376 45 c 2,52,-1
 376 277 l 2,53,54
 376 297 376 297 390.5 311.5 c 128,-1,43
 405 326 405 326 425 326 c 128,-1,44
EndSplineSet
Validated: 1
Ligature2: "'liga' Standard Ligatures in Latin lookup 0 subtable" n a m a k o
EndChar

StartChar: nanpa
Encoding: 57426 57426 85
Width: 850
GlyphClass: 3
Flags: W
LayerCount: 2
Fore
SplineSet
231 840 m 2,0,1
 226 840 226 840 220.5 838.5 c 128,-1,2
 215 837 215 837 210.5 834.5 c 128,-1,3
 206 832 206 832 201.5 829 c 128,-1,4
 197 826 197 826 194 821.5 c 128,-1,5
 191 817 191 817 188.5 812.5 c 128,-1,6
 186 808 186 808 184.5 802.5 c 128,-1,7
 183 797 183 797 183 791 c 1,8,9
 183 791 183 791 183 791 c 1,10,-1
 183 657 l 1,11,-1
 49 657 l 2,12,13
 17 657 17 657 4 628 c 0,14,15
 0 618 0 618 0 608 c 0,16,17
 0 588 0 588 14.5 573.5 c 128,-1,18
 29 559 29 559 49 559 c 1,19,20
 49 559 49 559 49 559 c 1,21,-1
 183 559 l 1,22,-1
 183 291 l 1,23,-1
 49 291 l 2,24,25
 29 291 29 291 14.5 276.5 c 128,-1,26
 0 262 0 262 0 242 c 0,27,28
 0 229 0 229 6.5 218 c 128,-1,29
 13 207 13 207 24.5 200 c 128,-1,30
 36 193 36 193 49 193 c 1,31,32
 49 193 49 193 49 193 c 1,33,-1
 183 193 l 1,34,-1
 183 59 l 2,35,36
 183 27 183 27 212 14 c 0,37,38
 222 10 222 10 232 10 c 0,39,40
 252 10 252 10 266.5 24.5 c 128,-1,41
 281 39 281 39 281 59 c 1,42,43
 281 59 281 59 281 59 c 1,44,-1
 281 193 l 1,45,-1
 549 193 l 1,46,-1
 549 59 l 1,47,48
 549 59 549 59 549 59 c 1,49,50
 549 39 549 39 563.5 24.5 c 128,-1,51
 578 10 578 10 598 10 c 128,-1,52
 618 10 618 10 632.5 24.5 c 128,-1,53
 647 39 647 39 647 59 c 1,54,55
 647 59 647 59 647 59 c 1,56,-1
 647 193 l 1,57,-1
 781 193 l 2,58,59
 791 193 791 193 800 197 c 128,-1,60
 809 201 809 201 815.5 207.5 c 128,-1,61
 822 214 822 214 826 223 c 128,-1,62
 830 232 830 232 830 242 c 128,-1,63
 830 252 830 252 826 261 c 128,-1,64
 822 270 822 270 815.5 276.5 c 128,-1,65
 809 283 809 283 800 287 c 128,-1,66
 791 291 791 291 781 291 c 2,67,-1
 647 291 l 1,68,-1
 647 559 l 1,69,-1
 781 559 l 2,70,71
 801 559 801 559 815.5 573.5 c 128,-1,72
 830 588 830 588 830 608 c 0,73,74
 830 621 830 621 823.5 632 c 128,-1,75
 817 643 817 643 805.5 650 c 128,-1,76
 794 657 794 657 781 657 c 1,77,78
 781 657 781 657 781 657 c 1,79,-1
 647 657 l 1,80,-1
 647 791 l 2,81,82
 647 801 647 801 643 810 c 128,-1,83
 639 819 639 819 632.5 825.5 c 128,-1,84
 626 832 626 832 617 836 c 128,-1,85
 608 840 608 840 598 840 c 128,-1,86
 588 840 588 840 579 836 c 128,-1,87
 570 832 570 832 563.5 825.5 c 128,-1,88
 557 819 557 819 553 810 c 128,-1,89
 549 801 549 801 549 791 c 2,90,-1
 549 657 l 1,91,-1
 281 657 l 1,92,-1
 281 791 l 1,93,94
 281 791 281 791 281 791 c 1,95,96
 281 811 281 811 266.5 825.5 c 128,-1,97
 252 840 252 840 232 840 c 2,98,-1
 231 840 l 2,0,1
281 559 m 1,99,-1
 549 559 l 1,100,-1
 549 291 l 1,101,-1
 281 291 l 1,102,-1
 281 559 l 1,99,-1
EndSplineSet
Validated: 5
Ligature2: "'liga' Standard Ligatures in Latin lookup 0 subtable" n a n p a
EndChar

StartChar: nasa
Encoding: 57427 57427 86
Width: 850
GlyphClass: 3
Flags: W
LayerCount: 2
Fore
SplineSet
434 840 m 0,0,1
 348 840 348 840 268 807 c 128,-1,2
 188 774 188 774 127 713 c 128,-1,3
 66 652 66 652 33 572 c 128,-1,4
 0 492 0 492 0 406 c 0,5,6
 0 327 0 327 30 254.5 c 128,-1,7
 60 182 60 182 116 126 c 128,-1,8
 172 70 172 70 244.5 40 c 128,-1,9
 317 10 317 10 396 10 c 0,10,11
 431 10 431 10 466 17 c 128,-1,12
 501 24 501 24 533 37 c 128,-1,13
 565 50 565 50 594.5 70 c 128,-1,14
 624 90 624 90 649 115 c 0,15,16
 699 165 699 165 726 230.5 c 128,-1,17
 753 296 753 296 753 368 c 0,18,19
 753 431 753 431 729 489.5 c 128,-1,20
 705 548 705 548 660 593 c 128,-1,21
 615 638 615 638 556.5 662.5 c 128,-1,22
 498 687 498 687 434 687 c 0,23,24
 315 687 315 687 232 600 c 0,25,26
 154 518 154 518 153 406 c 0,27,28
 153 378 153 378 159.5 350.5 c 128,-1,29
 166 323 166 323 178 299.5 c 128,-1,30
 190 276 190 276 206.5 254.5 c 128,-1,31
 223 233 223 233 244.5 216.5 c 128,-1,32
 266 200 266 200 289.5 188 c 128,-1,33
 313 176 313 176 340.5 169.5 c 128,-1,34
 368 163 368 163 396 163 c 0,35,36
 451 163 451 163 498 190.5 c 128,-1,37
 545 218 545 218 572.5 265 c 128,-1,38
 600 312 600 312 600 368 c 0,39,40
 600 436 600 436 551 485 c 128,-1,41
 502 534 502 534 434 534 c 2,42,43
 434 534 434 534 433 534 c 0,44,45
 412 534 412 534 397 519 c 128,-1,46
 382 504 382 504 382 482.5 c 128,-1,47
 382 461 382 461 397 446 c 128,-1,48
 412 431 412 431 433 431 c 0,49,50
 434 431 434 431 434 431 c 2,51,52
 461 431 461 431 479.5 412.5 c 128,-1,53
 498 394 498 394 498 368 c 0,54,55
 498 325 498 325 468.5 295 c 128,-1,56
 439 265 439 265 396 265 c 0,57,58
 384 265 384 265 373 267 c 128,-1,59
 362 269 362 269 351.5 272.5 c 128,-1,60
 341 276 341 276 331 281 c 128,-1,61
 321 286 321 286 312.5 292.5 c 128,-1,62
 304 299 304 299 296.5 306.5 c 128,-1,63
 289 314 289 314 282.5 322.5 c 128,-1,64
 276 331 276 331 271 341 c 128,-1,65
 266 351 266 351 262.5 361.5 c 128,-1,66
 259 372 259 372 257 383 c 128,-1,67
 255 394 255 394 255 406 c 0,68,69
 255 430 255 430 261.5 453.5 c 128,-1,70
 268 477 268 477 279.5 496.5 c 128,-1,71
 291 516 291 516 307.5 532.5 c 128,-1,72
 324 549 324 549 343.5 560.5 c 128,-1,73
 363 572 363 572 386.5 578.5 c 128,-1,74
 410 585 410 585 434 585 c 0,75,76
 477 585 477 585 517 568.5 c 128,-1,77
 557 552 557 552 588 521 c 0,78,79
 651 457 651 457 651 368 c 0,80,81
 651 262 651 262 576 187 c 0,82,83
 540 151 540 151 493.5 131.5 c 128,-1,84
 447 112 447 112 396 112 c 0,85,86
 274 112 274 112 188 198 c 0,87,88
 176 210 176 210 166 223 c 128,-1,89
 156 236 156 236 147 250 c 128,-1,90
 138 264 138 264 131 278.5 c 128,-1,91
 124 293 124 293 118.5 308.5 c 128,-1,92
 113 324 113 324 109.5 340 c 128,-1,93
 106 356 106 356 104 372.5 c 128,-1,94
 102 389 102 389 102 406 c 0,95,96
 102 472 102 472 127.5 533 c 128,-1,97
 153 594 153 594 199.5 640.5 c 128,-1,98
 246 687 246 687 307 712.5 c 128,-1,99
 368 738 368 738 434 738 c 0,100,101
 435 738 435 738 435 738 c 2,102,103
 456 738 456 738 471 753 c 128,-1,104
 486 768 486 768 486 789 c 128,-1,105
 486 810 486 810 471 825 c 128,-1,106
 456 840 456 840 435 840 c 2,107,108
 435 840 435 840 434 840 c 0,0,1
EndSplineSet
Validated: 9
Ligature2: "'liga' Standard Ligatures in Latin lookup 0 subtable" n a s a
EndChar

StartChar: nasin
Encoding: 57428 57428 87
Width: 850
GlyphClass: 3
Flags: W
LayerCount: 2
Fore
SplineSet
403 840 m 0,0,1
 383 840 383 840 369 825.5 c 128,-1,2
 355 811 355 811 355 791 c 2,3,-1
 355 570 l 1,4,-1
 69 341 l 2,5,6
 64 337 64 337 59.5 330.5 c 128,-1,7
 55 324 55 324 52.5 316.5 c 128,-1,8
 50 309 50 309 50 303 c 0,9,10
 50 293 50 293 54 284 c 128,-1,11
 58 275 58 275 64.5 268.5 c 128,-1,12
 71 262 71 262 80 258 c 128,-1,13
 89 254 89 254 99 254 c 0,14,15
 116 254 116 254 130 265 c 2,16,-1
 355 445 l 1,17,-1
 355 59 l 1,18,19
 355 59 355 59 355 59 c 1,20,21
 355 55 355 55 355.5 51 c 128,-1,22
 356 47 356 47 357.5 43.5 c 128,-1,23
 359 40 359 40 360.5 36.5 c 128,-1,24
 362 33 362 33 364.5 30 c 128,-1,25
 367 27 367 27 369.5 24.5 c 128,-1,26
 372 22 372 22 375 19.5 c 128,-1,27
 378 17 378 17 381.5 15.5 c 128,-1,28
 385 14 385 14 388.5 12.5 c 128,-1,29
 392 11 392 11 396 10.5 c 128,-1,30
 400 10 400 10 404 10 c 0,31,32
 424 10 424 10 438.5 24.5 c 128,-1,33
 453 39 453 39 453 59 c 1,34,35
 453 59 453 59 453 59 c 1,36,-1
 453 445 l 1,37,-1
 678 265 l 2,38,39
 692 254 692 254 709 254 c 0,40,41
 719 254 719 254 728 258 c 128,-1,42
 737 262 737 262 743.5 268.5 c 128,-1,43
 750 275 750 275 754 284 c 128,-1,44
 758 293 758 293 758 303 c 128,-1,45
 758 313 758 313 752.5 324 c 128,-1,46
 747 335 747 335 739 341 c 2,47,-1
 453 570 l 1,48,-1
 453 791 l 2,49,50
 453 811 453 811 438.5 825.5 c 128,-1,51
 424 840 424 840 404 840 c 2,52,53
 404 840 404 840 403 840 c 0,0,1
EndSplineSet
Validated: 5
Ligature2: "'liga' Standard Ligatures in Latin lookup 0 subtable" n a s i n
EndChar

StartChar: nena
Encoding: 57429 57429 88
Width: 850
GlyphClass: 3
Flags: W
LayerCount: 2
Fore
SplineSet
353.5 840 m 128,-1,1
 273 840 273 840 203 770 c 0,2,3
 187 754 187 754 172 735 c 128,-1,4
 157 716 157 716 143 694 c 128,-1,5
 129 672 129 672 117 647.5 c 128,-1,6
 105 623 105 623 93 596 c 0,7,8
 48 487 48 487 24 348.5 c 128,-1,9
 0 210 0 210 0 60 c 2,10,-1
 0 59 l 2,11,12
 0 39 0 39 14.5 24.5 c 128,-1,13
 29 10 29 10 49 10 c 0,14,15
 57 10 57 10 64.5 12.5 c 128,-1,16
 72 15 72 15 78 19.5 c 128,-1,17
 84 24 84 24 88.5 30 c 128,-1,18
 93 36 93 36 95.5 43.5 c 128,-1,19
 98 51 98 51 98 59 c 0,20,21
 98 200 98 200 120.5 330.5 c 128,-1,22
 143 461 143 461 183 558 c 0,23,24
 222 652 222 652 271 701 c 0,25,26
 313 742 313 742 354 742 c 0,27,28
 373 742 373 742 393.5 732.5 c 128,-1,29
 414 723 414 723 436 701 c 0,30,31
 485 652 485 652 524 558 c 0,32,33
 565 461 565 461 587.5 330.5 c 128,-1,34
 610 200 610 200 610 59 c 0,35,36
 610 39 610 39 624 24.5 c 128,-1,37
 638 10 638 10 658.5 10 c 128,-1,38
 679 10 679 10 693 24.5 c 128,-1,39
 707 39 707 39 707 59 c 2,40,41
 707 59 707 59 707 60 c 0,42,43
 707 372 707 372 614 596 c 0,44,45
 568 708 568 708 505 770 c 0,46,0
 434 840 434 840 353.5 840 c 128,-1,1
EndSplineSet
Validated: 9
Ligature2: "'liga' Standard Ligatures in Latin lookup 0 subtable" n e n a
EndChar

StartChar: ni
Encoding: 57430 57430 89
Width: 850
GlyphClass: 3
Flags: W
LayerCount: 2
Fore
SplineSet
414 840 m 0,0,1
 405 840 405 840 396 836 c 128,-1,2
 387 832 387 832 380.5 825.5 c 128,-1,3
 374 819 374 819 370 810 c 128,-1,4
 366 801 366 801 366 791 c 2,5,-1
 366 151 l 1,6,-1
 76 344 l 2,7,8
 64 352 64 352 49 352 c 0,9,10
 17 352 17 352 4 324 c 0,11,12
 0 314 0 314 0 304 c 0,13,14
 2 278 2 278 22 263 c 2,15,-1
 381 23 l 2,16,17
 383 22 383 22 384.5 20.5 c 128,-1,18
 386 19 386 19 388 18 c 128,-1,19
 390 17 390 17 391 16 c 0,20,21
 394 14 394 14 398.5 13 c 128,-1,22
 403 12 403 12 407.5 11 c 128,-1,23
 412 10 412 10 415 10 c 0,24,25
 427 10 427 10 438 16 c 0,26,27
 444 19 444 19 449 23 c 2,28,-1
 808 263 l 2,29,30
 817 269 817 269 823.5 281 c 128,-1,31
 830 293 830 293 830 304 c 0,32,33
 830 324 830 324 815.5 338 c 128,-1,34
 801 352 801 352 781 352 c 0,35,36
 775 352 775 352 767 349.5 c 128,-1,37
 759 347 759 347 754 344 c 2,38,-1
 464 151 l 1,39,-1
 464 791 l 2,40,41
 464 812 464 812 449.5 826 c 128,-1,42
 435 840 435 840 415 840 c 2,43,44
 415 840 415 840 414 840 c 0,0,1
EndSplineSet
Validated: 9
Ligature2: "'liga' Standard Ligatures in Latin lookup 0 subtable" n i
EndChar

StartChar: nimi
Encoding: 57431 57431 90
Width: 850
GlyphClass: 3
Flags: W
LayerCount: 2
Fore
SplineSet
173 696 m 2,0,1
 130 697 130 697 92 677 c 128,-1,2
 54 657 54 657 29 621 c 128,-1,3
 4 585 4 585 1 541 c 0,4,5
 1 539 1 539 1 538 c 0,6,7
 0 518 0 518 0.5 416 c 128,-1,8
 1 314 1 314 1 295 c 0,9,10
 -6 221 -6 221 46 164.5 c 128,-1,11
 98 108 98 108 173 111 c 2,12,-1
 171 111 l 1,13,-1
 643 111 l 1,14,15
 713 105 713 105 768.5 150 c 128,-1,16
 824 195 824 195 829 266 c 0,17,18
 829 267 829 267 829 268 c 0,19,20
 830 288 830 288 829.5 390 c 128,-1,21
 829 492 829 492 829 511 c 0,22,23
 833 560 833 560 811 603 c 128,-1,24
 789 646 789 646 748 671.5 c 128,-1,25
 707 697 707 697 657 696 c 2,26,-1
 659 696 l 1,27,-1
 187 696 l 1,28,-1
 173 696 l 2,0,1
173 599 m 0,29,30
 177 599 177 599 180 598 c 0,31,32
 181 598 181 598 182.5 598 c 128,-1,33
 184 598 184 598 185 598 c 2,34,-1
 659 598 l 2,35,36
 660 598 660 598 660 598 c 2,37,38
 689 599 689 599 712 573 c 128,-1,39
 735 547 735 547 732 518 c 0,40,41
 732 516 732 516 732 513 c 0,42,43
 732 491 732 491 732 392 c 128,-1,44
 732 293 732 293 731 272 c 0,45,46
 729 245 729 245 703.5 225 c 128,-1,47
 678 205 678 205 650 208 c 0,48,49
 647 208 647 208 645 208 c 2,50,-1
 171 208 l 2,51,52
 170 208 170 208 170 208 c 2,53,54
 141 207 141 207 118 233 c 128,-1,55
 95 259 95 259 98 288 c 0,56,57
 98 289 98 289 98 290.5 c 128,-1,58
 98 292 98 292 98 293 c 0,59,60
 98 339 98 339 98 374.5 c 128,-1,61
 98 410 98 410 98 455 c 128,-1,62
 98 500 98 500 99 534 c 0,63,64
 100 551 100 551 111 566 c 128,-1,65
 122 581 122 581 139 590 c 128,-1,66
 156 599 156 599 173 599 c 0,29,30
EndSplineSet
Validated: 37
Ligature2: "'liga' Standard Ligatures in Latin lookup 0 subtable" n i m i
EndChar

StartChar: nn
Encoding: 57432 57432 91
Width: 850
GlyphClass: 3
Flags: W
LayerCount: 2
Fore
SplineSet
411 837 m 0,0,1
 400 837 400 837 386 829.5 c 128,-1,2
 372 822 372 822 364 815 c 2,3,-1
 355 808 l 1,4,-1
 355 266 l 1,5,6
 386 242 386 242 408 242 c 0,7,8
 419 242 419 242 432.5 248 c 128,-1,9
 446 254 446 254 455 260 c 2,10,-1
 464 266 l 1,11,-1
 464 808 l 1,12,13
 434 837 434 837 411 837 c 0,0,1
317 -34 m 0,14,15
 326 -33 326 -33 337 -26.5 c 128,-1,16
 348 -20 348 -20 355 -14 c 2,17,-1
 361 -8 l 1,18,19
 361 -8 361 -8 361.5 5 c 128,-1,20
 362 18 362 18 364.5 36 c 128,-1,21
 367 54 367 54 371.5 72 c 128,-1,22
 376 90 376 90 385.5 102.5 c 128,-1,23
 395 115 395 115 409 115 c 0,24,25
 423 114 423 114 433.5 101.5 c 128,-1,26
 444 89 444 89 448.5 71 c 128,-1,27
 453 53 453 53 455 35 c 128,-1,28
 457 17 457 17 457.5 4 c 128,-1,29
 458 -9 458 -9 458 -9 c 1,30,31
 482 -29 482 -29 501 -31 c 0,32,33
 509 -32 509 -32 521 -28.5 c 128,-1,34
 533 -25 533 -25 540 -21 c 2,35,-1
 548 -17 l 2,36,37
 548 -14 548 -14 548.5 -9 c 128,-1,38
 549 -4 549 -4 550 11 c 128,-1,39
 551 26 551 26 550 40.5 c 128,-1,40
 549 55 549 55 546 75 c 128,-1,41
 543 95 543 95 537.5 112 c 128,-1,42
 532 129 532 129 521.5 146.5 c 128,-1,43
 511 164 511 164 496.5 176 c 128,-1,44
 482 188 482 188 460 196 c 128,-1,45
 438 204 438 204 410 204 c 0,46,47
 375 205 375 205 348.5 193 c 128,-1,48
 322 181 322 181 307.5 161.5 c 128,-1,49
 293 142 293 142 283.5 118.5 c 128,-1,50
 274 95 274 95 272 71.5 c 128,-1,51
 270 48 270 48 269.5 28.5 c 128,-1,52
 269 9 269 9 270 -4 c 2,53,-1
 272 -16 l 2,54,55
 275 -18 275 -18 280 -21 c 128,-1,56
 285 -24 285 -24 297 -29 c 128,-1,57
 309 -34 309 -34 317 -34 c 0,14,15
EndSplineSet
Validated: 41
Ligature2: "'liga' Standard Ligatures in Latin lookup 0 subtable" n n
Ligature2: "'liga' Standard Ligatures in Latin lookup 0 subtable" n period
Ligature2: "'liga' Standard Ligatures in Latin lookup 0 subtable" n comma
Ligature2: "'liga' Standard Ligatures in Latin lookup 0 subtable" n colon
Ligature2: "'liga' Standard Ligatures in Latin lookup 0 subtable" n nonmarkingreturn
Ligature2: "'liga' Standard Ligatures in Latin lookup 0 subtable" n nbspace
Ligature2: "'liga' Standard Ligatures in Latin lookup 0 subtable" n exclam
Ligature2: "'liga' Standard Ligatures in Latin lookup 0 subtable" n space
EndChar

StartChar: noka
Encoding: 57433 57433 92
Width: 850
GlyphClass: 3
Flags: W
LayerCount: 2
Fore
SplineSet
48 840 m 2,0,1
 17 840 17 840 4 811 c 0,2,3
 0 801 0 801 0 791 c 2,4,-1
 0 59 l 2,5,6
 0 39 0 39 14.5 24.5 c 128,-1,7
 29 10 29 10 49 10 c 2,8,-1
 537 10 l 1,9,-1
 537 10 l 1,10,11
 607 10 607 10 657 60 c 128,-1,12
 707 110 707 110 707 180.5 c 128,-1,13
 707 251 707 251 657 301 c 128,-1,14
 607 351 607 351 537 351 c 1,15,-1
 537 351 l 1,16,-1
 341 351 l 1,17,-1
 341 791 l 2,18,19
 341 811 341 811 327 825.5 c 128,-1,20
 313 840 313 840 293 840 c 0,21,22
 279 840 279 840 268 833.5 c 128,-1,23
 257 827 257 827 250.5 815.5 c 128,-1,24
 244 804 244 804 244 791 c 2,25,-1
 244 303 l 2,26,27
 244 283 244 283 258.5 268.5 c 128,-1,28
 273 254 273 254 293 254 c 2,29,-1
 537 254 l 2,30,31
 567 254 567 254 588.5 232.5 c 128,-1,32
 610 211 610 211 610 180.5 c 128,-1,33
 610 150 610 150 588.5 129 c 128,-1,34
 567 108 567 108 537 108 c 2,35,-1
 98 108 l 1,36,-1
 98 791 l 2,37,38
 98 811 98 811 83.5 825.5 c 128,-1,39
 69 840 69 840 49 840 c 2,40,-1
 48 840 l 2,0,1
EndSplineSet
Validated: 5
Ligature2: "'liga' Standard Ligatures in Latin lookup 0 subtable" n o k a
EndChar

StartChar: oo
Encoding: 57434 57434 93
Width: 708
GlyphClass: 3
Flags: W
LayerCount: 2
Fore
SplineSet
329 840 m 2,0,1
 316 840 316 840 305 833.5 c 128,-1,2
 294 827 294 827 287.5 815.5 c 128,-1,3
 281 804 281 804 281 791 c 2,4,-1
 281 303 l 2,5,6
 281 302 281 302 281 302 c 2,7,8
 281 295 281 295 282.5 289 c 128,-1,9
 284 283 284 283 287.5 277.5 c 128,-1,10
 291 272 291 272 295.5 267.5 c 128,-1,11
 300 263 300 263 305 260 c 128,-1,12
 310 257 310 257 316.5 255 c 128,-1,13
 323 253 323 253 330 253 c 0,14,15
 350 253 350 253 364.5 267.5 c 128,-1,16
 379 282 379 282 379 302 c 0,17,18
 379 303 379 303 379 303 c 1,19,-1
 379 791 l 2,20,21
 379 811 379 811 364.5 825.5 c 128,-1,22
 350 840 350 840 330 840 c 0,23,24
 329 840 329 840 329 840 c 2,0,1
330 230 m 128,-1,26
 285 230 285 230 252.5 197.5 c 128,-1,27
 220 165 220 165 220 120 c 128,-1,28
 220 75 220 75 252.5 42.5 c 128,-1,29
 285 10 285 10 330 10 c 128,-1,30
 375 10 375 10 407.5 42.5 c 128,-1,31
 440 75 440 75 440 120 c 128,-1,32
 440 165 440 165 407.5 197.5 c 128,-1,25
 375 230 375 230 330 230 c 128,-1,26
329.5 132 m 128,-1,34
 335 132 335 132 338.5 128.5 c 128,-1,35
 342 125 342 125 342 120 c 0,36,37
 342 108 342 108 330 108 c 0,38,39
 324 108 324 108 321 111 c 128,-1,40
 318 114 318 114 318 119.5 c 128,-1,41
 318 125 318 125 321 128.5 c 128,-1,33
 324 132 324 132 329.5 132 c 128,-1,34
EndSplineSet
Validated: 9
Ligature2: "'liga' Standard Ligatures in Latin lookup 0 subtable" o exclam
Ligature2: "'liga' Standard Ligatures in Latin lookup 0 subtable" o space
Ligature2: "'liga' Standard Ligatures in Latin lookup 0 subtable" o o
Ligature2: "'liga' Standard Ligatures in Latin lookup 0 subtable" o period
Ligature2: "'liga' Standard Ligatures in Latin lookup 0 subtable" o comma
Ligature2: "'liga' Standard Ligatures in Latin lookup 0 subtable" o colon
Ligature2: "'liga' Standard Ligatures in Latin lookup 0 subtable" o nonmarkingreturn
Ligature2: "'liga' Standard Ligatures in Latin lookup 0 subtable" o nbspace
EndChar

StartChar: oko
Encoding: 57435 57435 94
Width: 850
GlyphClass: 3
Flags: W
LayerCount: 2
Fore
SplineSet
554 833 m 0,0,1
 563 833 563 833 571 830 c 0,2,3
 584 825 584 825 594 811.5 c 128,-1,4
 604 798 604 798 604 783 c 0,5,6
 604 775 604 775 601 766 c 0,7,8
 533 579 533 579 403.5 469 c 128,-1,9
 274 359 274 359 94 359 c 1,10,-1
 94 359 l 1,11,12
 67 359 67 359 41 361 c 0,13,14
 22 363 22 363 9 377.5 c 128,-1,15
 -4 392 -4 392 -4 411 c 0,16,17
 -4 413 -4 413 -4 416 c 0,18,19
 -2 435 -2 435 12.5 448 c 128,-1,20
 27 461 27 461 46 461 c 0,21,22
 48 461 48 461 51 461 c 0,23,24
 72 459 72 459 94 459 c 0,25,26
 384 460 384 460 507 800 c 0,27,28
 510 809 510 809 517.5 816.5 c 128,-1,29
 525 824 525 824 534.5 828.5 c 128,-1,30
 544 833 544 833 554 833 c 0,0,1
569 778 m 2,31,-1
 570 778 l 2,32,33
 591 778 591 778 605 763 c 0,34,35
 674 694 674 694 712.5 603 c 128,-1,36
 751 512 751 512 751 411 c 128,-1,37
 751 310 751 310 712.5 219 c 128,-1,38
 674 128 674 128 605 59 c 0,39,40
 591 44 591 44 570 44 c 128,-1,41
 549 44 549 44 534.5 59 c 128,-1,42
 520 74 520 74 520 94.5 c 128,-1,43
 520 115 520 115 534 130 c 0,44,45
 562 157 562 157 583.5 188.5 c 128,-1,46
 605 220 605 220 620 255.5 c 128,-1,47
 635 291 635 291 643 330.5 c 128,-1,48
 651 370 651 370 651 411 c 0,49,50
 651 492 651 492 620.5 564.5 c 128,-1,51
 590 637 590 637 534 692 c 0,52,53
 520 707 520 707 520 727.5 c 128,-1,54
 520 748 520 748 534 763 c 0,55,56
 549 777 549 777 569 778 c 2,31,-1
680 565 m 0,57,58
 701 565 701 565 715.5 550 c 128,-1,59
 730 535 730 535 730 514.5 c 128,-1,60
 730 494 730 494 715.5 479.5 c 128,-1,61
 701 465 701 465 680 465 c 0,62,63
 656 465 656 465 639 448 c 128,-1,64
 622 431 622 431 622 406.5 c 128,-1,65
 622 382 622 382 639 365.5 c 128,-1,66
 656 349 656 349 680 349 c 0,67,68
 701 349 701 349 715.5 334 c 128,-1,69
 730 319 730 319 730 298.5 c 128,-1,70
 730 278 730 278 715.5 263.5 c 128,-1,71
 701 249 701 249 680 249 c 0,72,73
 637 249 637 249 601 270 c 128,-1,74
 565 291 565 291 543.5 327.5 c 128,-1,75
 522 364 522 364 522 406.5 c 128,-1,76
 522 449 522 449 543.5 485.5 c 128,-1,77
 565 522 565 522 601 543.5 c 128,-1,78
 637 565 637 565 680 565 c 0,57,58
94 465 m 1,79,-1
 94 465 l 1,80,81
 274 465 274 465 403.5 355 c 128,-1,82
 533 245 533 245 601 58 c 0,83,84
 604 49 604 49 604 41 c 0,85,86
 604 26 604 26 594 12 c 128,-1,87
 584 -2 584 -2 571 -6 c 0,88,89
 562 -9 562 -9 554 -9 c 0,90,91
 539 -9 539 -9 525.5 0.5 c 128,-1,92
 512 10 512 10 507 24 c 0,93,94
 384 364 384 364 94 365 c 0,95,96
 72 365 72 365 51 363 c 0,97,98
 49 363 49 363 46 363 c 0,99,100
 27 363 27 363 12.5 376 c 128,-1,101
 -2 389 -2 389 -4 408 c 0,102,103
 -4 410 -4 410 -4 413 c 0,104,105
 -4 432 -4 432 9 446.5 c 128,-1,106
 22 461 22 461 41 463 c 0,107,108
 67 465 67 465 94 465 c 1,79,-1
EndSplineSet
Validated: 5
Ligature2: "'liga' Standard Ligatures in Latin lookup 0 subtable" o k o
EndChar

